<?xml version="1.0" encoding="utf-8"?>
<!-- Generator: Adobe Illustrator 25.4.1, SVG Export Plug-In . SVG Version: 6.00 Build 0)  -->
<svg version="1.1" id="分離模式" xmlns="http://www.w3.org/2000/svg" xmlns:xlink="http://www.w3.org/1999/xlink" x="0px"
	 y="0px" viewBox="0 0 396 82" style="enable-background:new 0 0 396 82;" xml:space="preserve">
<style type="text/css">
	.st0{opacity:0.6;}
	.st1{opacity:0.6;fill:#FFFFFF;enable-background:new    ;}
	.st2{fill:#FFFFFF;}
	.st3{opacity:0.8;fill:#FFFFFF;enable-background:new    ;}
	.st4{opacity:0.3;fill:#FFFFFF;enable-background:new    ;}
	.st5{opacity:0.3;}
</style>
<g class="st0">
	<g>
		<polygon class="st1" points="142.3,23.3 152.3,17.6 162.3,23.3 162.3,34.9 152.3,40.6 142.3,34.9 		"/>
		<polygon class="st1" points="115.1,26.4 121.5,22.7 128,26.4 128,33.9 121.5,37.6 115.1,33.9 		"/>
		<polygon class="st1" points="64.3,16.2 67.9,14.1 71.5,16.2 71.5,20.4 67.9,22.5 64.3,20.4 		"/>
		<g class="st0">
			<path class="st2" d="M148.4,9.4l2.3,1.3v2.6l-2.3,1.3l-2.3-1.3v-2.6L148.4,9.4 M148.4,9.1l-2.5,1.5v2.9l2.5,1.5l2.5-1.5v-2.9
				L148.4,9.1L148.4,9.1z"/>
		</g>
		<g class="st0">
			<path class="st2" d="M134.9,12.4l11.1,6.4v12.8L134.9,38l-11-6.4V18.8L134.9,12.4 M134.9,10.8L122.6,18v14.3l12.4,7.2l12.4-7.2
				V18L134.9,10.8L134.9,10.8z"/>
		</g>
		<g class="st0">
			<path class="st2" d="M209.4,10l0.7,0.4v0.8l-0.7,0.4l-0.7-0.4v-0.8L209.4,10 M209.4,9.9l-0.8,0.5v1l0.8,0.5l0.8-0.5v-1L209.4,9.9
				L209.4,9.9z"/>
		</g>
		<polygon class="st2" points="226.5,9 227.6,8.4 228.7,9 228.7,10.2 227.6,10.8 226.5,10.2 		"/>
		<polygon class="st3" points="90.7,12.5 97.8,8.4 104.9,12.5 104.9,20.7 97.8,24.8 90.7,20.7 		"/>
		<polygon class="st2" points="41.8,31.3 44.9,29.5 48.1,31.3 48.1,35 44.9,36.8 41.8,35 		"/>
		<polygon class="st2" points="101.3,8.3 103.1,7.2 104.8,8.3 104.8,10.3 103.1,11.3 101.3,10.3 		"/>
		<polygon class="st2" points="167.2,27.9 173.9,24 180.6,27.9 180.6,35.7 173.9,39.6 167.2,35.7 		"/>
		<polygon class="st2" points="203.3,31.3 203.9,30.9 204.5,31.3 204.5,31.9 203.9,32.2 203.3,31.9 		"/>
		<g>
			<path class="st2" d="M88.1,35.4l0.5,0.3v0.6l-0.5,0.3l-0.5-0.3v-0.6L88.1,35.4 M88.1,35.3l-0.6,0.3v0.7l0.6,0.3l0.6-0.3v-0.7
				L88.1,35.3L88.1,35.3z"/>
		</g>
		<g>
			<path class="st2" d="M32.1,27.6l5.8,3.4v6.7l-5.8,3.4l-5.8-3.4V31L32.1,27.6 M32.1,26.8l-6.5,3.8v7.6l6.5,3.8l6.5-3.8v-7.6
				L32.1,26.8L32.1,26.8z"/>
		</g>
		<g>
			<path class="st2" d="M266.3,11.9l2.7,1.5v3.1l-2.7,1.5l-2.7-1.5v-3.1L266.3,11.9 M266.3,11.5l-3,1.7v3.5l3,1.7l3-1.7v-3.5
				L266.3,11.5L266.3,11.5z"/>
		</g>
		<polygon class="st2" points="99.6,26.1 106.2,22.3 112.8,26.1 112.8,33.7 106.2,37.5 99.6,33.7 		"/>
		<polygon class="st2" points="6.8,13.1 18.2,6.5 29.6,13.1 29.6,26.3 18.2,32.9 6.8,26.3 		"/>
		<polygon class="st2" points="33.6,10.6 35.6,9.4 37.6,10.6 37.6,12.9 35.6,14.1 33.6,12.9 		"/>
		<g>
			<path class="st2" d="M254.7,8.7l1.4,0.8v1.7l-1.4,0.8l-1.4-0.8V9.5L254.7,8.7 M254.7,8.5l-1.6,0.9v1.9l1.6,0.9l1.6-0.9V9.4
				L254.7,8.5L254.7,8.5z"/>
		</g>
		<g>
			<path class="st2" d="M212.8,17.5l6.2,3.6v7.2l-6.2,3.6l-6.2-3.6v-7.2L212.8,17.5 M212.8,16.6l-7,4v8.1l7,4l7-4v-8.1L212.8,16.6
				L212.8,16.6z"/>
		</g>
		<g>
			<path class="st2" d="M131.1,8.7l1.4,0.8v1.6l-1.4,0.8l-1.4-0.8V9.5L131.1,8.7 M131.1,8.5l-1.6,0.9v1.8l1.6,0.9l1.6-0.9V9.4
				L131.1,8.5L131.1,8.5z"/>
		</g>
		<g>
			<path class="st2" d="M68.5,33.4l0.6,0.4v0.7l-0.6,0.4l-0.6-0.4v-0.7L68.5,33.4 M68.5,33.4l-0.7,0.4v0.8l0.7,0.4l0.7-0.4v-0.8
				L68.5,33.4L68.5,33.4z"/>
		</g>
		<g>
			<path class="st2" d="M165.2,9.2l0.5,0.3v0.6l-0.5,0.3l-0.5-0.3V9.5L165.2,9.2 M165.2,9.2l-0.6,0.3v0.7l0.6,0.3l0.6-0.3V9.5
				L165.2,9.2L165.2,9.2z"/>
		</g>
		<g>
			<path class="st2" d="M10.4,32.6l0.7,0.4v0.8l-0.7,0.4l-0.7-0.4V33L10.4,32.6 M10.4,32.5L9.6,33v0.9l0.8,0.4l0.8-0.4V33L10.4,32.5
				L10.4,32.5z"/>
		</g>
		<polygon class="st4" points="39,13.3 50.6,6.6 62.2,13.3 62.2,26.7 50.6,33.4 39,26.7 		"/>
		<polygon class="st4" points="11.9,4.7 19.9,0.1 27.9,4.7 27.9,13.9 19.9,18.5 11.9,13.9 		"/>
		<polygon class="st4" points="83.3,22.2 91.2,17.7 99.1,22.2 99.1,31.3 91.2,35.9 83.3,31.3 		"/>
		<g class="st5">
			<path class="st2" d="M225.2,8.9l9.5,5.5v10.9l-9.5,5.5l-9.5-5.5V14.4L225.2,8.9 M225.2,7.6l-10.6,6.1V26l10.6,6.1l10.6-6.1V13.7
				L225.2,7.6L225.2,7.6z"/>
		</g>
		<g class="st5">
			<path class="st2" d="M19.1,31.1l0.5,0.3V32l-0.5,0.3L18.6,32v-0.6L19.1,31.1 M19.1,31l-0.6,0.3V32l0.6,0.3l0.6-0.3v-0.7L19.1,31
				L19.1,31z"/>
		</g>
		<g class="st5">
			<path class="st2" d="M10.3,13.4l0.7,0.4v0.9l-0.7,0.4l-0.7-0.4v-0.9L10.3,13.4 M10.3,13.3l-0.8,0.5v1l0.8,0.5l0.8-0.5v-1
				L10.3,13.3L10.3,13.3z"/>
		</g>
		<g class="st0">
			<path class="st2" d="M78.6,20.6l6.9,4v7.9l-6.9,4l-6.9-4v-7.9L78.6,20.6 M78.6,20.3l-7.1,4.1v8.1l7.1,4.1l7.1-4.1v-8.1L78.6,20.3
				L78.6,20.3z"/>
		</g>
		<g class="st0">
			<path class="st2" d="M81.5,4.7l6.9,4v8l-6.9,4l-6.9-4v-8L81.5,4.7 M81.5,4.5l-7.1,4.1v8.2l7.1,4.1l7.1-4.1V8.6L81.5,4.5L81.5,4.5
				z"/>
		</g>
		<g class="st0">
			<path class="st2" d="M243.3,14.8l1.3,0.7V17l-1.3,0.7L242,17v-1.5L243.3,14.8 M243.3,14.8l-1.3,0.8v1.5l1.3,0.8l1.3-0.8v-1.5
				L243.3,14.8L243.3,14.8z"/>
		</g>
		<g>
			<path class="st2" d="M189.6,28.3l1.3,0.8v1.6l-1.3,0.8l-1.3-0.8V29L189.6,28.3 M189.6,28.2l-1.4,0.8v1.6l1.4,0.8l1.4-0.8V29
				L189.6,28.2L189.6,28.2z"/>
		</g>
		<g>
			<path class="st2" d="M244.3,31.7l0.9,0.5v1l-0.9,0.5l-0.9-0.5v-1L244.3,31.7 M244.3,31.7l-0.9,0.5v1.1l0.9,0.5l0.9-0.5v-1.1
				L244.3,31.7L244.3,31.7z"/>
		</g>
		<g>
			<path class="st2" d="M193.6,6.2l7.4,4.3V19l-7.4,4.3l-7.4-4.3v-8.5L193.6,6.2 M193.6,6l-7.6,4.4v8.7l7.6,4.4l7.6-4.4v-8.7
				L193.6,6L193.6,6z"/>
		</g>
		<g>
			<path class="st2" d="M167.5,7.5l10.6,6.1v12.2L167.5,32l-10.6-6.1V13.7L167.5,7.5 M167.5,7.2l-10.9,6.3v12.6l10.9,6.3l10.9-6.3
				V13.5L167.5,7.2L167.5,7.2z"/>
		</g>
		<g>
			<path class="st2" d="M270.2,29.6l0.6,0.4v0.7l-0.6,0.4l-0.6-0.4V30L270.2,29.6 M270.2,29.6l-0.7,0.4v0.8l0.7,0.4l0.7-0.4V30
				L270.2,29.6L270.2,29.6z"/>
		</g>
		<g>
			<path class="st2" d="M258.2,20.4l8.1,4.7v9.4l-8.1,4.7l-8.1-4.7v-9.4L258.2,20.4 M258.2,20.1l-8.4,4.8v9.6l8.4,4.8l8.4-4.8v-9.6
				L258.2,20.1L258.2,20.1z"/>
		</g>
		<g>
			<path class="st2" d="M229.7,23.1l7.1,4.1v8.1l-7.1,4.1l-7.1-4.1v-8.1L229.7,23.1 M229.7,22.8l-7.3,4.2v8.4l7.3,4.2l7.3-4.2V27
				L229.7,22.8L229.7,22.8z"/>
		</g>
		<g>
			<path class="st2" d="M180.4,6.7l5.5,3.1v6.3l-5.5,3.1l-5.5-3.1V9.9L180.4,6.7 M180.4,6.5l-5.6,3.2v6.5l5.6,3.2l5.6-3.2V9.8
				L180.4,6.5L180.4,6.5z"/>
		</g>
		<g>
			<path class="st2" d="M32.6,9.8l11.7,6.8v13.5l-11.7,6.8l-11.7-6.8V16.6L32.6,9.8 M32.6,9.5l-12,6.9v13.9l12,6.9l12-6.9V16.4
				L32.6,9.5L32.6,9.5z"/>
		</g>
		<g class="st5">
			<path class="st2" d="M54.7,8.4l1.2,0.7v1.3l-1.2,0.7l-1.2-0.7V9.1L54.7,8.4 M54.7,8.4l-1.2,0.7v1.4l1.2,0.7l1.2-0.7V9.1L54.7,8.4
				L54.7,8.4z"/>
		</g>
		<g class="st5">
			<path class="st2" d="M57.3,26l4.2,2.4v4.9l-4.2,2.4L53,33.4v-4.9L57.3,26 M57.3,25.9l-4.4,2.5v5l4.4,2.5l4.4-2.5v-5L57.3,25.9
				L57.3,25.9z"/>
		</g>
		<g class="st5">
			<path class="st2" d="M116.2,12.9l0.7,0.4V14l-0.7,0.4l-0.7-0.4v-0.8L116.2,12.9 M116.2,12.9l-0.7,0.4v0.8l0.7,0.4l0.7-0.4v-0.8
				L116.2,12.9L116.2,12.9z"/>
		</g>
	</g>
	<g class="st5">
		<polygon class="st1" points="203.8,52 218.7,43.4 233.7,52 233.7,69.2 218.7,77.8 203.8,69.2 		"/>
		<polygon class="st1" points="163.1,56.6 172.8,51 182.4,56.6 182.4,67.7 172.8,73.3 163.1,67.7 		"/>
		<polygon class="st1" points="87.2,41.3 92.6,38.1 98.1,41.3 98.1,47.5 92.6,50.7 87.2,47.5 		"/>
		<g class="st0">
			<path class="st2" d="M213,31.1l3.4,1.9v4l-3.4,1.9l-3.4-1.9v-3.9L213,31.1 M213,30.6l-3.8,2.2v4.4l3.8,2.2l3.8-2.2v-4.4L213,30.6
				L213,30.6z"/>
		</g>
		<g class="st0">
			<path class="st2" d="M192.8,35.6l16.5,9.5v19.1l-16.5,9.5l-16.5-9.5V45.1L192.8,35.6 M192.8,33.3L174.3,44v21.4l18.5,10.7
				l18.5-10.7V44L192.8,33.3L192.8,33.3z"/>
		</g>
		<g class="st0">
			<path class="st2" d="M304.1,32.1l1.1,0.6V34l-1.1,0.6L303,34v-1.3L304.1,32.1 M304.1,31.9l-1.2,0.7V34l1.2,0.7l1.2-0.7v-1.4
				L304.1,31.9L304.1,31.9z"/>
		</g>
		<polygon class="st2" points="329.7,30.5 331.3,29.6 332.9,30.5 332.9,32.4 331.3,33.3 329.7,32.4 		"/>
		<polygon class="st2" points="126.7,35.8 137.3,29.7 147.9,35.8 147.9,48.1 137.3,54.2 126.7,48.1 		"/>
		<polygon class="st2" points="53.6,63.9 58.3,61.2 63.1,63.9 63.1,69.4 58.3,72.1 53.6,69.4 		"/>
		<polygon class="st2" points="142.5,29.5 145.2,27.9 147.8,29.5 147.8,32.5 145.2,34 142.5,32.5 		"/>
		<polygon class="st2" points="241,58.8 251.1,53 261.1,58.8 261.1,70.4 251.1,76.2 241,70.4 		"/>
		<polygon class="st2" points="295.1,63.8 295.9,63.3 296.8,63.8 296.8,64.8 295.9,65.3 295.1,64.8 		"/>
		<g>
			<path class="st2" d="M122.8,70l0.8,0.5v0.9l-0.8,0.5l-0.8-0.5v-0.9L122.8,70 M122.8,69.9l-0.9,0.5v1l0.9,0.5l0.9-0.5v-1
				L122.8,69.9L122.8,69.9z"/>
		</g>
		<g>
			<path class="st2" d="M39.1,58.4l8.7,5v10.1l-8.7,5l-8.7-5V63.4L39.1,58.4 M39.1,57.1l-9.8,5.6V74l9.8,5.6l9.8-5.6V62.8L39.1,57.1
				L39.1,57.1z"/>
		</g>
		<g>
			<path class="st2" d="M389.2,34.9l4,2.3v4.6l-4,2.3l-4-2.3v-4.6L389.2,34.9 M389.2,34.3l-4.5,2.6v5.2l4.5,2.6l4.5-2.6v-5.2
				L389.2,34.3L389.2,34.3z"/>
		</g>
		<polygon class="st2" points="140.1,56.2 149.9,50.5 159.8,56.2 159.8,67.5 149.9,73.2 140.1,67.5 		"/>
		<polygon class="st2" points="1.3,36.7 18.4,26.8 35.4,36.7 35.4,56.4 18.4,66.3 1.3,56.4 		"/>
		<polygon class="st2" points="41.3,32.9 44.3,31.1 47.4,32.9 47.4,36.4 44.3,38.2 41.3,36.4 		"/>
		<g>
			<path class="st2" d="M371.9,30.1l2.1,1.2v2.5l-2.1,1.2l-2.1-1.2v-2.5L371.9,30.1 M371.9,29.8l-2.4,1.4V34l2.4,1.4l2.4-1.4v-2.8
				L371.9,29.8L371.9,29.8z"/>
		</g>
		<g>
			<path class="st2" d="M309.3,43.2l9.3,5.4v10.8l-9.3,5.4l-9.3-5.4V48.6L309.3,43.2 M309.3,41.9l-10.4,6V60l10.4,6l10.4-6V47.9
				L309.3,41.9L309.3,41.9z"/>
		</g>
		<g>
			<path class="st2" d="M187,30.1l2.1,1.2v2.5L187,35l-2.1-1.2v-2.5L187,30.1 M187,29.8l-2.4,1.4v2.7l2.4,1.4l2.4-1.4v-2.7L187,29.8
				L187,29.8z"/>
		</g>
		<g>
			<path class="st2" d="M93.6,67.1l0.9,0.5v1.1l-0.9,0.5l-0.9-0.5v-1.1L93.6,67.1 M93.6,67l-1.1,0.6v1.2l1.1,0.6l1.1-0.6v-1.2
				L93.6,67L93.6,67z"/>
		</g>
		<g>
			<path class="st2" d="M238.1,30.9l0.8,0.4v0.9l-0.8,0.4l-0.8-0.4v-0.9L238.1,30.9 M238.1,30.8l-0.9,0.5v1l0.9,0.5l0.9-0.5v-1
				L238.1,30.8L238.1,30.8z"/>
		</g>
		<g>
			<path class="st2" d="M6.7,65.8l1,0.6v1.2l-1,0.6l-1-0.6v-1.2L6.7,65.8 M6.7,65.7l-1.2,0.7v1.3l1.2,0.7l1.2-0.7v-1.3L6.7,65.7
				L6.7,65.7z"/>
		</g>
		<polygon class="st4" points="49.4,37 66.8,26.9 84.1,37 84.1,57 66.8,67 49.4,57 		"/>
		<polygon class="st4" points="9,24.1 20.9,17.2 32.8,24.1 32.8,37.9 20.9,44.7 9,37.9 		"/>
		<polygon class="st4" points="115.7,50.3 127.5,43.5 139.2,50.3 139.2,63.9 127.5,70.7 115.7,63.9 		"/>
		<g class="st5">
			<path class="st2" d="M327.7,30.4l14.1,8.2v16.3l-14.1,8.2l-14.1-8.2V38.6L327.7,30.4 M327.7,28.4l-15.8,9.1v18.3l15.8,9.1
				l15.8-9.1V37.6L327.7,28.4L327.7,28.4z"/>
		</g>
		<g class="st5">
			<path class="st2" d="M19.8,63.6l0.8,0.4v0.9l-0.8,0.4L19,64.9V64L19.8,63.6 M19.8,63.5L18.9,64v1l0.9,0.5l0.9-0.5v-1L19.8,63.5
				L19.8,63.5z"/>
		</g>
		<g class="st5">
			<path class="st2" d="M6.5,37.1l1.1,0.6V39l-1.1,0.6L5.4,39v-1.3L6.5,37.1 M6.5,37l-1.2,0.7v1.4l1.2,0.7l1.2-0.7v-1.4L6.5,37
				L6.5,37z"/>
		</g>
		<g class="st0">
			<path class="st2" d="M108.6,47.8l10.3,5.9v11.8l-10.3,5.9l-10.3-5.9V53.8L108.6,47.8 M108.6,47.5L98,53.6v12.2l10.5,6.1l10.5-6.1
				V53.6L108.6,47.5L108.6,47.5z"/>
		</g>
		<g class="st0">
			<path class="st2" d="M112.9,24.1l10.3,6V42l-10.3,6l-10.3-6V30.1L112.9,24.1 M112.9,23.8l-10.6,6.1v12.3l10.6,6.1l10.6-6.1V29.9
				L112.9,23.8L112.9,23.8z"/>
		</g>
		<g class="st0">
			<path class="st2" d="M354.8,39.3l1.9,1.1v2.2l-1.9,1.1l-1.9-1.1v-2.2L354.8,39.3 M354.8,39.2l-2,1.1v2.3l2,1.1l2-1.1v-2.3
				L354.8,39.2L354.8,39.2z"/>
		</g>
		<g>
			<path class="st2" d="M274.5,59.3l2,1.2v2.3l-2,1.2l-2-1.2v-2.3L274.5,59.3 M274.5,59.3l-2.1,1.2v2.4l2.1,1.2l2.1-1.2v-2.4
				L274.5,59.3L274.5,59.3z"/>
		</g>
		<g>
			<path class="st2" d="M356.3,64.5l1.3,0.8v1.6l-1.3,0.8l-1.3-0.8v-1.6L356.3,64.5 M356.3,64.5l-1.4,0.8v1.6l1.4,0.8l1.4-0.8v-1.6
				L356.3,64.5L356.3,64.5z"/>
		</g>
		<g>
			<path class="st2" d="M280.4,26.4l11,6.4v12.7l-11,6.4l-11-6.4V32.8L280.4,26.4 M280.4,26.1l-11.3,6.5v13.1l11.3,6.5l11.3-6.5
				V32.6L280.4,26.1L280.4,26.1z"/>
		</g>
		<g>
			<path class="st2" d="M241.5,28.4l15.9,9.2v18.3L241.5,65l-15.9-9.2V37.5L241.5,28.4 M241.5,27.9l-16.3,9.4v18.8l16.3,9.4
				l16.3-9.4V37.3L241.5,27.9L241.5,27.9z"/>
		</g>
		<g>
			<path class="st2" d="M395,61.4l1,0.6v1.1l-1,0.6l-1-0.6V62L395,61.4 M395,61.4l-1,0.6v1.1l1,0.6l1-0.6V62L395,61.4L395,61.4z"/>
		</g>
		<g>
			<path class="st2" d="M377.1,47.6l12.1,7v14l-12.1,7l-12.2-7v-14L377.1,47.6 M377.1,47.2l-12.5,7.2v14.4l12.5,7.2l12.5-7.2V54.4
				L377.1,47.2L377.1,47.2z"/>
		</g>
		<g>
			<path class="st2" d="M334.5,51.6l10.5,6.1v12.2L334.5,76L324,69.9V57.7L334.5,51.6 M334.5,51.2l-10.8,6.3V70l10.8,6.3l10.8-6.3
				V57.5L334.5,51.2L334.5,51.2z"/>
		</g>
		<g>
			<path class="st2" d="M260.8,27.1l8.2,4.7v9.4l-8.2,4.7l-8.2-4.7v-9.4L260.8,27.1 M260.8,26.9l-8.4,4.8v9.7l8.4,4.8l8.4-4.8v-9.7
				L260.8,26.9L260.8,26.9z"/>
		</g>
		<g>
			<path class="st2" d="M39.9,31.8l17.5,10.1v20.2L39.9,72.2L22.4,62.1V41.9L39.9,31.8 M39.9,31.2L22,41.6v20.7l18,10.4l18-10.4
				V41.6L39.9,31.2L39.9,31.2z"/>
		</g>
		<g class="st5">
			<path class="st2" d="M72.9,29.7l1.7,1v2l-1.7,1l-1.7-1v-2L72.9,29.7 M72.9,29.6l-1.8,1v2.1l1.8,1l1.8-1v-2.1L72.9,29.6L72.9,29.6
				z"/>
		</g>
		<g class="st5">
			<path class="st2" d="M76.7,56l6.3,3.7V67l-6.3,3.7L70.4,67v-7.3L76.7,56 M76.7,55.8l-6.5,3.8v7.5l6.5,3.8l6.5-3.8v-7.5L76.7,55.8
				L76.7,55.8z"/>
		</g>
		<g class="st5">
			<path class="st2" d="M164.8,36.4l1,0.6v1.2l-1,0.6l-1-0.6V37L164.8,36.4 M164.8,36.3l-1,0.6v1.2l1,0.6l1-0.6v-1.2L164.8,36.3
				L164.8,36.3z"/>
		</g>
	</g>
</g>
</svg>
