<?xml version="1.0" encoding="utf-8"?>
<!-- Generator: Adobe Illustrator 26.0.0, SVG Export Plug-In . SVG Version: 6.00 Build 0)  -->
<svg version="1.1" id="Слой_1" xmlns="http://www.w3.org/2000/svg" xmlns:xlink="http://www.w3.org/1999/xlink" x="0px" y="0px"
	 viewBox="0 0 300 200" style="enable-background:new 0 0 300 200;" xml:space="preserve">
<style type="text/css">
	.st0{fill:none;stroke:#C7DDF3;stroke-width:4;stroke-miterlimit:10;}
	.st1{fill:#C7DDF3;}
	.st2{fill:#201E44;}
	.st3{fill:#FFFFFF;}
	.st4{fill:#739CD2;}
	.st5{fill:#252E5F;}
	.st6{fill:#2C437D;}
</style>
<g>
	<g>
		<g>
			<g>
				<path class="st0" d="M255.5,63.2c-7.6-20.6-28.3-35.4-50.3-30.4c-20.6,4.8-35.5,23.1-55.2,30.4c-20.6,7.7-38.5,2.2-57.1-6.9
					c-16-7.9-35.2-14.1-48.6,3.1c-14.5,18.7-12.6,47.2-5.4,68c7,20.5,20.9,37.3,38.9,48.3c35.8,21.8,86.2,23.6,124.2,3.3
					C241.2,158.1,272.1,108.3,255.5,63.2z"/>
			</g>
		</g>
		<g>
			<g>
				<path class="st1" d="M239.6,22.6c-14-17-38.4-24.2-57.4-12.2c-17.9,11.3-25.9,33.4-42.1,46.8c-17,14-35.7,14.8-56.2,12.3
					C66.2,67.3,46,67.7,39,88.3c-7.6,22.4,3.6,48.7,17.2,66c13.4,17,32,28.4,52.6,32.9c41,8.9,89.2-6,118.4-37.6
					C257.2,116.9,270.1,59.6,239.6,22.6z"/>
			</g>
		</g>
		<g>
			<g>
				<g>
					<g>
						<path class="st2" d="M149.7,47.8l-62.8,53.9l1.2,24.4c0,2.9,3.5,44.2,6.9,44.2l58.6-39.2l52.8,35.2c3.3,0,9.8-38.4,9.8-41.3
							l3.9-23.4l-62.9-53.9C155,46.3,151.9,46.3,149.7,47.8z"/>
					</g>
				</g>
			</g>
			<g>
				<g>
					<path class="st3" d="M171.9,180.1H98.8c-0.6,0-1-0.4-1-1V68.2c0-0.6,0.4-1,1-1h109c0.6,0,1,0.4,1,1v75
						C208.9,163.6,192.3,180.1,171.9,180.1z"/>
				</g>
			</g>
			<g>
				<g>
					<g>
						<g>
							<g>
								<g>
									<path class="st4" d="M202.5,126.5h-89.8c-1.4,0-2.5-0.7-2.5-1.7s1.1-1.7,2.5-1.7h89.8c1.4,0,2.5,0.7,2.5,1.7
										S203.9,126.5,202.5,126.5z"/>
								</g>
							</g>
						</g>
					</g>
					<g>
						<g>
							<path class="st1" d="M158.7,115.8h-46.9c-0.9,0-1.6-0.7-1.6-1.6l0,0c0-0.9,0.7-1.6,1.6-1.6h46.9c0.9,0,1.6,0.7,1.6,1.6l0,0
								C160.4,115.1,159.6,115.8,158.7,115.8z"/>
						</g>
					</g>
				</g>
				<g>
					<g>
						<g>
							<g>
								<g>
									<path class="st1" d="M181.1,85.3h-68.7c-1.2,0-2.2-0.7-2.2-1.7c0-0.9,1-1.7,2.2-1.7h68.7c1.2,0,2.2,0.7,2.2,1.7
										C183.3,84.5,182.3,85.3,181.1,85.3z"/>
								</g>
							</g>
						</g>
					</g>
					<g>
						<g>
							<g>
								<g>
									<path class="st4" d="M197.1,95.9h-84.6c-1.3,0-2.4-0.7-2.4-1.7c0-0.9,1.1-1.7,2.4-1.7h84.6c1.3,0,2.4,0.7,2.4,1.7
										C199.5,95.2,198.4,95.9,197.1,95.9z"/>
								</g>
							</g>
						</g>
					</g>
				</g>
			</g>
			<g>
				<g>
					<g>
						<path class="st5" d="M154.8,142.6l30.3-29.8c8-7.8,19.3-12.3,31.2-12.3l0,0c2.8,0,5.1,1.8,5.1,4v40.6v39.1
							c0,2.2-3.8,5.5-6.6,5.5h-17.2l-42.8-42.1C153.4,146.1,153.4,144,154.8,142.6z"/>
					</g>
				</g>
			</g>
			<g>
				<g>
					<g>
						<path class="st5" d="M152.3,142.5L122,112.7c-8-7.8-19.3-12.3-31.2-12.3l0,0c-2.8,0-5.1,1.8-5.1,4V145v39.5
							c0,2.2,3.2,5.1,6,5.1l17.8-0.1l42.8-42.1C153.7,146.1,153.7,143.9,152.3,142.5z"/>
					</g>
				</g>
			</g>
			<g>
				<g>
					<g>
						<path class="st6" d="M221.4,167.8V185c0,2.6-2.7,4.7-6,4.7H91.7c-3.3,0-6-2.1-6-4.7v-17.2l64.1-39.3c1-0.6,2.3-1,3.6-1
							c1.4,0,2.8,0.3,4,1L221.4,167.8z"/>
					</g>
				</g>
			</g>
			<g>
				<g>
					<polygon class="st2" points="165.5,132 221.4,160.5 221.4,167.8 164.5,133 					"/>
				</g>
			</g>
			<g>
				<g>
					<polygon class="st2" points="141.5,132 85.6,160.5 85.6,167.8 142.5,133 					"/>
				</g>
			</g>
		</g>
		<g>
			<g>
				<g>
					<g>
						<g>
							<polygon class="st6" points="121.6,36.9 108.5,79.5 106.4,86.3 100.4,81.2 84.8,68 							"/>
						</g>
					</g>
				</g>
				<g>
					<g>
						<g>
							<g>
								<g>
									<polygon class="st5" points="121.6,36.9 76.1,63.2 55.4,56.3 									"/>
								</g>
							</g>
						</g>
					</g>
				</g>
				<g>
					<g>
						<g>
							<polygon class="st2" points="121.6,36.9 84.8,68 77.7,82.2 76.1,63.2 							"/>
						</g>
					</g>
				</g>
			</g>
			<g>
				<g>
					<path class="st4" d="M135.4,181c-0.1,0-0.1,0-0.2,0c-1.5-0.5-3-1-4.5-1.5c-0.4-0.1-0.6-0.6-0.4-1c0.1-0.4,0.6-0.6,1-0.4
						c1.5,0.6,2.9,1.1,4.4,1.5c0.4,0.1,0.6,0.5,0.5,0.9C136,180.7,135.7,181,135.4,181z M125.1,176.9c-0.1,0-0.2,0-0.3-0.1
						c-1.4-0.7-2.8-1.5-4.2-2.3c-0.4-0.2-0.5-0.7-0.3-1c0.2-0.4,0.7-0.5,1-0.3c1.3,0.8,2.7,1.6,4.1,2.3c0.4,0.2,0.5,0.6,0.3,1
						C125.7,176.7,125.4,176.9,125.1,176.9z M115.7,171.1c-0.2,0-0.3,0-0.4-0.1c-1.3-1-2.5-2-3.7-3c-0.1-0.1-0.2-0.3-0.2-0.4
						c-0.7,0.2-1.4,0.5-2.1,0.6c-0.4,0.1-0.8-0.1-0.9-0.5s0.1-0.8,0.5-0.9c1.5-0.4,2.9-0.9,4.3-1.6c0.4-0.2,0.8,0,1,0.3
						c0.2,0.4,0,0.8-0.3,1s-0.7,0.3-1.1,0.5c1.1,1,2.3,1.9,3.5,2.8c0.3,0.2,0.4,0.7,0.2,1C116.2,171,116,171.1,115.7,171.1z
						 M102.7,168.7L102.7,168.7c-1.6-0.1-3.2-0.3-4.9-0.7c-0.4-0.1-0.7-0.5-0.6-0.9s0.5-0.7,0.9-0.6c1.5,0.4,3.1,0.6,4.6,0.6
						c0.4,0,0.7,0.4,0.7,0.8C103.5,168.4,103.1,168.7,102.7,168.7z M92.1,166c-0.1,0-0.2,0-0.3-0.1c-1.4-0.6-2.9-1.4-4.3-2.2
						c-0.4-0.2-0.5-0.7-0.3-1c0.2-0.4,0.7-0.5,1-0.3c1.4,0.8,2.8,1.5,4.1,2.1c0.4,0.2,0.5,0.6,0.4,1C92.7,165.9,92.4,166,92.1,166z
						 M107.5,163.7c-0.2,0-0.4-0.1-0.5-0.2c-1.1-1.2-2.1-2.5-3-3.8c-0.2-0.3-0.1-0.8,0.2-1c0.3-0.2,0.8-0.1,1,0.2
						c0.8,1.3,1.8,2.5,2.9,3.6c0.3,0.3,0.3,0.8,0,1.1C107.9,163.6,107.7,163.7,107.5,163.7z M118.5,162.8c-0.2,0-0.4-0.1-0.5-0.2
						c-0.3-0.3-0.3-0.8,0-1.1c0.5-0.5,0.9-1,1.3-1.6c0.5-0.7,0.9-1.4,1.2-2.1c0.2-0.4,0.6-0.5,1-0.4c0.4,0.2,0.5,0.6,0.4,1
						c-0.4,0.8-0.8,1.6-1.3,2.4c-0.4,0.6-0.9,1.2-1.4,1.8C118.9,162.7,118.7,162.8,118.5,162.8z M82.7,160.3c-0.2,0-0.3-0.1-0.5-0.2
						c-1.2-1-2.5-2-3.6-3.1c-0.3-0.3-0.3-0.8,0-1.1s0.8-0.3,1.1,0c1.1,1.1,2.3,2.1,3.5,3c0.3,0.3,0.4,0.7,0.1,1
						C83.1,160.2,82.9,160.3,82.7,160.3z M101.8,154.3c-0.3,0-0.6-0.2-0.7-0.5c-0.4-1.5-0.7-2.9-0.7-4.2c0-0.2,0-0.5,0-0.7
						c0-0.4,0.4-0.7,0.8-0.7s0.7,0.4,0.7,0.8c0,0.2,0,0.4,0,0.6c0,1.2,0.2,2.5,0.6,3.8c0.1,0.4-0.1,0.8-0.5,0.9
						C102,154.3,101.9,154.3,101.8,154.3z M122.4,152.7c-0.4,0-0.7-0.3-0.7-0.7c0-1.5-0.3-3-0.8-4.4c-0.1-0.4,0.1-0.8,0.4-1
						c0.4-0.1,0.8,0.1,1,0.4c0.6,1.5,0.8,3.2,0.8,4.9C123.1,152.4,122.8,152.7,122.4,152.7L122.4,152.7z M74.8,152.6
						c-0.2,0-0.4-0.1-0.6-0.3c-1-1.2-2-2.5-2.9-3.8c-0.2-0.3-0.1-0.8,0.2-1c0.3-0.2,0.8-0.1,1,0.2c0.9,1.3,1.8,2.5,2.8,3.7
						c0.3,0.3,0.2,0.8-0.1,1.1C75.1,152.5,75,152.6,74.8,152.6z M103.5,143.9c-0.2,0-0.4-0.1-0.5-0.2c-0.3-0.3-0.3-0.7-0.1-1.1
						c1.1-1.2,2.6-2.2,4.3-2.7c0.4-0.1,0.8,0.1,0.9,0.5s-0.1,0.8-0.5,0.9c-1.4,0.5-2.7,1.3-3.6,2.3
						C103.9,143.8,103.7,143.9,103.5,143.9z M68.7,143.4c-0.3,0-0.5-0.1-0.7-0.4c-0.7-1.4-1.4-2.9-2.1-4.3c-0.2-0.4,0-0.8,0.4-1
						s0.8,0,1,0.4c0.6,1.4,1.3,2.8,2,4.2c0.2,0.4,0.1,0.8-0.3,1C68.9,143.4,68.8,143.4,68.7,143.4z M118,143c-0.2,0-0.3-0.1-0.5-0.2
						c-1.1-0.9-2.5-1.5-4-1.8c-0.4-0.1-0.7-0.5-0.6-0.9s0.5-0.7,0.9-0.6c1.7,0.4,3.3,1.1,4.6,2.1c0.3,0.3,0.4,0.7,0.1,1
						C118.4,142.9,118.2,143,118,143z M64.5,133.2c-0.3,0-0.6-0.2-0.7-0.5c-0.4-1.5-0.8-3.1-1.1-4.7c-0.1-0.4,0.2-0.8,0.6-0.9
						c0.4-0.1,0.8,0.2,0.9,0.6c0.3,1.5,0.6,3,1.1,4.5c0.1,0.4-0.1,0.8-0.5,0.9C64.7,133.2,64.6,133.2,64.5,133.2z M62.7,122.3
						c-0.4,0-0.7-0.3-0.7-0.7c-0.1-1-0.1-2-0.1-3c0-0.6,0-1.2,0-1.8c0-0.4,0.4-0.7,0.8-0.7c0.4,0,0.7,0.4,0.7,0.8c0,0.6,0,1.1,0,1.7
						c0,1,0,2,0.1,3C63.5,121.9,63.2,122.3,62.7,122.3L62.7,122.3z M63.2,111.3L63.2,111.3c-0.5-0.1-0.8-0.4-0.7-0.9
						c0.2-1.6,0.6-3.2,0.9-4.7c0.1-0.4,0.5-0.6,0.9-0.5c0.4,0.1,0.6,0.5,0.5,0.9c-0.4,1.5-0.7,3-0.9,4.6
						C63.9,111,63.6,111.3,63.2,111.3z M66,100.6c-0.1,0-0.2,0-0.3,0c-0.4-0.1-0.6-0.6-0.4-1c0.6-1.5,1.2-3,1.9-4.4
						c0.2-0.4,0.6-0.5,1-0.3s0.5,0.6,0.3,1c-0.7,1.4-1.3,2.8-1.8,4.3C66.6,100.5,66.3,100.6,66,100.6z M70.9,90.8
						c-0.1,0-0.3,0-0.4-0.1c-0.3-0.2-0.4-0.7-0.2-1c0.9-1.3,1.8-2.7,2.8-3.9c0.3-0.3,0.7-0.4,1-0.1s0.4,0.7,0.1,1
						c-0.9,1.2-1.9,2.5-2.7,3.8C71.4,90.7,71.2,90.8,70.9,90.8z"/>
				</g>
			</g>
			<g>
				<g>
					<path class="st4" d="M174.1,180.2H174c-0.4-0.1-0.7-0.5-0.6-0.9c0.3-1.6,0.8-3.1,1.4-4.7c0.2-0.4,0.6-0.6,1-0.4
						c0.4,0.2,0.5,0.6,0.4,1c-0.6,1.4-1.1,2.9-1.3,4.3C174.8,179.9,174.4,180.2,174.1,180.2z M207,174.2L207,174.2
						c-1.7-0.1-3.4-0.8-4.8-1.8c-0.3-0.2-0.4-0.7-0.2-1s0.7-0.4,1-0.2c1.2,0.9,2.6,1.4,4,1.5c0.4,0,0.7,0.4,0.7,0.8
						C207.7,173.9,207.4,174.2,207,174.2z M212.6,171.9c-0.2,0-0.3,0-0.4-0.1c-0.3-0.2-0.4-0.7-0.1-1c0.8-1,1.2-2.3,1.2-3.8
						c0-0.1,0-0.1,0-0.2c0-0.4,0.3-0.8,0.7-0.8s0.8,0.3,0.8,0.7c0,0.1,0,0.2,0,0.2c0,1.8-0.5,3.4-1.5,4.7
						C213,171.8,212.8,171.9,212.6,171.9z M178.7,170.3c-0.2,0-0.3-0.1-0.5-0.2c-0.3-0.3-0.4-0.7-0.1-1c1-1.2,2.1-2.4,3.3-3.6
						c0.3-0.3,0.8-0.3,1.1,0s0.3,0.8,0,1.1c-1.1,1.1-2.2,2.2-3.1,3.4C179.2,170.2,178.9,170.3,178.7,170.3z M199.6,167.2
						c-0.4,0-0.7-0.3-0.7-0.7c0-0.3-0.1-0.7-0.1-1c0-1.3,0.3-2.7,0.8-4c0.2-0.4,0.6-0.6,1-0.4c0.4,0.2,0.6,0.6,0.4,1
						c-0.5,1.1-0.7,2.3-0.7,3.4c0,0.3,0,0.6,0,0.9C200.4,166.8,200.1,167.2,199.6,167.2C199.7,167.2,199.6,167.2,199.6,167.2z
						 M186.9,162.9c-0.2,0-0.5-0.1-0.6-0.3c-0.2-0.3-0.1-0.8,0.2-1c1.4-0.9,2.8-1.7,4.2-2.3c0.4-0.2,0.8,0,1,0.4s0,0.8-0.4,1
						c-1.4,0.6-2.7,1.4-4.1,2.2C187.2,162.9,187,162.9,186.9,162.9z M211.7,161.6c-0.2,0-0.4-0.1-0.6-0.3c-0.3-0.3-0.5-0.6-0.8-0.8
						c-0.8-0.7-1.7-1.2-2.7-1.6c-0.4-0.2-0.6-0.6-0.4-1c0.2-0.4,0.6-0.6,1-0.4c1.2,0.5,2.2,1.1,3.1,1.9c0.4,0.3,0.7,0.6,1,1
						c0.3,0.3,0.2,0.8-0.1,1.1C212,161.6,211.9,161.6,211.7,161.6z M197,158.5c-0.3,0-0.6-0.2-0.7-0.6c-0.1-0.4,0.2-0.8,0.6-0.9
						c0.3-0.1,0.6-0.1,0.8-0.2c1.3-0.3,2.7-0.4,4-0.5c0.4,0,0.8,0.3,0.8,0.7s-0.3,0.8-0.7,0.8c-1.2,0-2.5,0.2-3.7,0.4
						c-0.3,0.1-0.5,0.1-0.8,0.2C197.1,158.5,197,158.5,197,158.5z M204.1,157.6c-0.2,0-0.4-0.1-0.6-0.3c-0.2-0.3-0.2-0.8,0.1-1
						c0.6-0.5,1.3-0.9,2-1.2c0.8-0.4,1.6-0.7,2.5-1c0.4-0.1,0.8,0.1,0.9,0.5c0.1,0.4-0.1,0.8-0.5,0.9c-0.8,0.2-1.6,0.5-2.2,0.9
						c-0.6,0.3-1.2,0.7-1.7,1.1C204.4,157.6,204.3,157.6,204.1,157.6z M214.6,154.6c-0.4,0-0.7-0.3-0.7-0.7s0.3-0.8,0.7-0.8
						c0.9,0,1.8-0.1,2.6-0.1h0.4c0.7,0,1.2,0,1.8-0.1c0.4,0,0.8,0.3,0.8,0.7s-0.3,0.8-0.7,0.8c-0.5,0-1.1,0.1-1.8,0.1h-0.4
						C216.3,154.6,215.5,154.6,214.6,154.6L214.6,154.6z M225.5,153.5c-0.3,0-0.6-0.2-0.7-0.5c-0.1-0.4,0.1-0.8,0.5-0.9
						c1.2-0.3,2.3-0.8,3.2-1.4c0.2-0.1,0.5-0.3,0.7-0.5c0.3-0.3,0.8-0.2,1,0.1c0.3,0.3,0.2,0.8-0.1,1c-0.3,0.3-0.6,0.5-0.9,0.6
						C228.1,152.5,226.9,153,225.5,153.5C225.7,153.5,225.6,153.5,225.5,153.5z M233.7,146.6c-0.1,0-0.3,0-0.4-0.1
						c-0.4-0.2-0.5-0.7-0.3-1c0.8-1.3,1.4-2.7,1.8-4.2c0.1-0.4,0.5-0.6,0.9-0.5s0.6,0.5,0.5,0.9c-0.5,1.6-1.1,3.1-1.9,4.5
						C234.2,146.5,234,146.6,233.7,146.6z M236.4,136c-0.4,0-0.7-0.3-0.7-0.7c0-1.5-0.2-3-0.6-4.5c-0.1-0.4,0.1-0.8,0.5-0.9
						c0.4-0.1,0.8,0.1,0.9,0.5c0.4,1.6,0.6,3.2,0.7,4.9C237.2,135.7,236.9,136,236.4,136C236.5,136,236.5,136,236.4,136z"/>
				</g>
			</g>
			<g>
				<g>
					<g>
						
							<ellipse transform="matrix(0.1602 -0.9871 0.9871 0.1602 80.2586 316.4955)" class="st4" cx="226.1" cy="111.1" rx="15.6" ry="15.6"/>
					</g>
				</g>
				<g>
					<g>
						<g>
							<path class="st3" d="M232.1,113.1v-3.5c0-3.3-2.7-6-6-6l0,0l0,0l0,0l0,0c-3.3,0-6,2.7-6,6v3.5c0,1.9-0.5,2.7-1.5,4.3h15.1
								C232.6,115.7,232.1,115,232.1,113.1z"/>
						</g>
					</g>
					<g>
						<g>
							<path class="st3" d="M226.1,120.5L226.1,120.5c-1.3,0-2.3-1-2.3-2.3l0,0h4.5l0,0C228.4,119.4,227.4,120.5,226.1,120.5z"/>
						</g>
					</g>
					<g>
						<g>
							<path class="st3" d="M226.1,101.7c-1,0-1.8,0.8-1.8,1.8s0.8,1.8,1.8,1.8s1.8-0.8,1.8-1.8
								C227.9,102.5,227.1,101.7,226.1,101.7z M226.1,104.6c-0.6,0-1.1-0.5-1.1-1.1s0.5-1.1,1.1-1.1s1.1,0.5,1.1,1.1
								C227.2,104.2,226.7,104.6,226.1,104.6z"/>
						</g>
					</g>
				</g>
			</g>
			<g>
				<g>
					<path class="st4" d="M226.1,130.2c-5.1,0-9.9-2-13.5-5.6s-5.6-8.4-5.6-13.5s2-9.9,5.6-13.5S221,92,226.1,92s9.9,2,13.5,5.6
						s5.6,8.4,5.6,13.5s-2,9.9-5.6,13.5S231.2,130.2,226.1,130.2z M226.1,93.5c-4.7,0-9.1,1.8-12.5,5.2c-3.3,3.3-5.2,7.8-5.2,12.5
						s1.8,9.1,5.2,12.5c3.3,3.3,7.8,5.2,12.5,5.2s9.1-1.8,12.5-5.2c3.3-3.3,5.2-7.8,5.2-12.5s-1.8-9.1-5.2-12.5
						C235.2,95.3,230.8,93.5,226.1,93.5z"/>
				</g>
			</g>
		</g>
		<g>
			<g>
				<g>
					<path class="st5" d="M212,64.2c-0.2,0-0.4-0.1-0.5-0.2c-0.3-0.3-0.3-0.8,0-1.1l4.9-4.9c0.3-0.3,0.8-0.3,1.1,0s0.3,0.8,0,1.1
						l-4.9,4.9C212.4,64.1,212.2,64.2,212,64.2z"/>
					<path class="st5" d="M212,64.4c-0.2,0-0.5-0.1-0.7-0.3c-0.2-0.2-0.3-0.4-0.3-0.7c0-0.2,0.1-0.5,0.3-0.7l4.9-4.9
						c0.4-0.4,1-0.4,1.3,0c0.2,0.2,0.3,0.4,0.3,0.7s-0.1,0.5-0.3,0.7l-4.9,4.9C212.5,64.3,212.3,64.4,212,64.4z M216.9,58
						c-0.1,0-0.3,0.1-0.4,0.2l-4.9,4.9c-0.1,0.1-0.2,0.2-0.2,0.4c0,0.1,0.1,0.3,0.2,0.4c0.1,0.1,0.2,0.2,0.4,0.2
						c0.1,0,0.3-0.1,0.4-0.2l4.9-4.9c0.1-0.1,0.2-0.2,0.2-0.4s-0.1-0.3-0.2-0.4S217.1,58,216.9,58z"/>
				</g>
			</g>
			<g>
				<g>
					<path class="st5" d="M222.5,71.2h-0.1l-8.1-1.2c-0.4-0.1-0.7-0.4-0.6-0.8c0.1-0.4,0.4-0.7,0.8-0.6l8.1,1.2
						c0.4,0.1,0.7,0.4,0.6,0.8C223.2,70.9,222.8,71.2,222.5,71.2z"/>
					<path class="st5" d="M222.5,71.4h-0.1l-8.1-1.2c-0.5-0.1-0.9-0.6-0.8-1.1c0.1-0.5,0.6-0.9,1.1-0.8l8.1,1.2
						c0.5,0.1,0.9,0.6,0.8,1.1C223.3,71,222.9,71.4,222.5,71.4z M214.3,68.7c-0.3,0-0.5,0.2-0.6,0.5c0,0.3,0.2,0.6,0.5,0.6l8.1,1.2
						h0.1c0.3,0,0.5-0.2,0.6-0.5c0-0.3-0.2-0.6-0.5-0.6L214.3,68.7C214.4,68.7,214.4,68.7,214.3,68.7z"/>
				</g>
			</g>
			<g>
				<g>
					<path class="st5" d="M206.3,61.9c-0.4,0-0.7-0.3-0.7-0.6l-1.2-8.1c-0.1-0.4,0.2-0.8,0.6-0.8c0.4-0.1,0.8,0.2,0.8,0.6l1.2,8
						c0.1,0.4-0.2,0.8-0.6,0.8C206.3,61.9,206.3,61.9,206.3,61.9z"/>
					<path class="st5" d="M206.3,62.1c-0.5,0-0.9-0.3-0.9-0.8l-1.2-8.1c0-0.2,0-0.5,0.2-0.7c0.1-0.2,0.4-0.3,0.6-0.4
						c0.2,0,0.5,0,0.7,0.2c0.2,0.1,0.3,0.4,0.4,0.6l1.2,8.1c0,0.2,0,0.5-0.2,0.7c-0.1,0.2-0.4,0.3-0.6,0.4
						C206.3,62.1,206.3,62.1,206.3,62.1z M205,52.4L205,52.4c-0.2,0-0.4,0.1-0.5,0.2c-0.1,0.1-0.1,0.3-0.1,0.4l1.2,8.1
						c0,0.3,0.3,0.5,0.6,0.5h0.1c0.1,0,0.3-0.1,0.4-0.2c0.1-0.1,0.1-0.3,0.1-0.4l-1.2-8.1c0-0.1-0.1-0.3-0.2-0.4
						C205.3,52.5,205.2,52.4,205,52.4z"/>
				</g>
			</g>
		</g>
	</g>
</g>
</svg>
