<?xml version="1.0" encoding="utf-8"?>
<!-- Generator: Adobe Illustrator 26.0.0, SVG Export Plug-In . SVG Version: 6.00 Build 0)  -->
<svg version="1.1" id="鋋嶱1" xmlns="http://www.w3.org/2000/svg" xmlns:xlink="http://www.w3.org/1999/xlink" x="0px" y="0px"
	 viewBox="0 0 300 200" style="enable-background:new 0 0 300 200;" xml:space="preserve">
<style type="text/css">
	.st0{fill:#EDEEEF;}
	.st1{fill:#739CD2;}
	.st2{fill:#2C437D;}
	.st3{fill:#252E5F;}
	.st4{fill:#201E44;}
	.st5{fill:#C7DDF3;}
	.st6{fill:#191E3A;}
	.st7{fill:#354387;}
	.st8{opacity:0.5;fill:#252E5F;}
	.st9{opacity:0.3;fill:#252E5F;}
	.st10{opacity:0.25;fill:#FFFFFF;}
	.st11{fill:#FFFFFF;}
	.st12{fill:#9DBDE4;}
	.st13{opacity:0.5;}
	.st14{fill:#304982;}
</style>
<g>
	<g>
		<path class="st0" d="M22.7,59.7c8.2-20.9,30.8-38.6,54-40.4c47.9-3.7,63.5,23.1,133.4,33.9c51.5,8,45.1,59.2,34.7,78.9
			c-10.3,19.5-29.4,36-48,44.9c-44,21.1-106.2,9.8-137.3-10.9C21.9,141.2,4.9,105.1,22.7,59.7z"/>
	</g>
</g>
<g>
	<g>
		<path class="st1" d="M203.1,148.6c-0.1,0-0.2,0-0.3,0c-1.5-0.4-3.3-0.8-5.1-1.3c-0.3-0.1-0.5-0.4-0.4-0.7c0.1-0.3,0.4-0.5,0.7-0.4
			c1.7,0.5,3.5,0.9,5.1,1.3c0.3,0.1,0.5,0.4,0.4,0.7C203.5,148.4,203.3,148.6,203.1,148.6z M191.5,145c-0.1,0-0.2,0-0.4,0
			c-1.8-0.8-3.3-1.6-4.7-2.6c-0.3-0.2-0.3-0.5-0.1-0.8c0.2-0.3,0.5-0.3,0.8-0.1c1.3,0.9,2.8,1.8,4.5,2.5c0.3,0.1,0.4,0.5,0.3,0.8
			C191.8,144.9,191.6,145,191.5,145z M191.9,142c-0.3,0.1-0.5-0.1-0.7-0.3c-0.1-0.3,0-0.6,0.3-0.8c0.5-0.3,1.1-0.6,1.6-0.9
			c0.9-0.6,1.7-1.3,2.4-2.1c0.2-0.2,0.6-0.3,0.8-0.1c0.2,0.2,0.3,0.6,0.1,0.8c-0.8,0.9-1.7,1.7-2.6,2.3c-0.5,0.4-1.1,0.7-1.7,1
			C192,142,191.9,142,191.9,142z M185.1,143.5c0,0-0.1,0-0.1,0c-1.8,0-3.6-0.3-5.3-0.8c-0.3-0.1-0.5-0.4-0.4-0.7
			c0.1-0.3,0.4-0.5,0.7-0.4c1.6,0.5,3.3,0.8,5,0.8c0.3,0,0.6,0.3,0.6,0.6C185.6,143.2,185.4,143.4,185.1,143.5z M173.8,139.5
			c-0.2,0-0.3,0-0.5-0.1c-1.4-1.1-2.7-2.3-3.8-3.8c-0.2-0.2-0.2-0.6,0.1-0.8c0.2-0.2,0.6-0.2,0.8,0.1c1.1,1.4,2.3,2.6,3.6,3.6
			c0.3,0.2,0.3,0.6,0.1,0.8C174,139.4,173.9,139.5,173.8,139.5z M182.1,137.4c-0.2,0.1-0.5,0-0.6-0.3c-0.8-1.3-1.3-2.8-1.7-4.3
			c-0.1-0.3-0.1-0.5-0.2-0.8c-0.1-0.3,0.1-0.6,0.5-0.7c0.3-0.1,0.6,0.1,0.7,0.5c0,0.2,0.1,0.5,0.2,0.7c0.3,1.4,0.9,2.8,1.6,4
			c0.2,0.3,0.1,0.6-0.2,0.8C182.3,137.4,182.2,137.4,182.1,137.4z M199.1,132.7c-0.1,0-0.2,0-0.2,0c-0.3-0.1-0.5-0.4-0.4-0.7
			c0.3-1.6,0.3-3.2,0-4.8c0-0.1,0-0.1,0-0.2c-0.1-0.3,0.1-0.6,0.4-0.7c0,0,0,0,0,0c0.3-0.1,0.6,0.1,0.7,0.4c0,0.1,0,0.1,0,0.2
			c0.4,1.7,0.4,3.5,0,5.3C199.5,132.5,199.4,132.7,199.1,132.7z M166.4,129.9c-0.3,0.1-0.5-0.1-0.7-0.3c-0.7-1.6-1.3-3.3-1.8-5
			c-0.1-0.3,0.1-0.6,0.4-0.7c0.3-0.1,0.6,0.1,0.7,0.4c0.4,1.7,1,3.3,1.7,4.8c0.1,0.3,0,0.6-0.3,0.8
			C166.5,129.9,166.4,129.9,166.4,129.9z M180.8,125.7c-0.1,0-0.2,0-0.3,0c-0.3-0.1-0.5-0.4-0.3-0.7c0.7-1.9,1.7-3.4,3.2-4.5
			c0.3-0.2,0.6-0.1,0.8,0.1c0.2,0.3,0.1,0.6-0.1,0.8c-1.3,1-2.2,2.3-2.8,3.9C181.1,125.5,181,125.6,180.8,125.7z M195.2,121.9
			c-0.2,0-0.3,0-0.5-0.1c-1.4-1-2.9-1.7-4.5-1.9c-0.3,0-0.5-0.3-0.5-0.7c0-0.3,0.3-0.5,0.7-0.5c1.8,0.3,3.5,1,5,2.1
			c0.3,0.2,0.3,0.5,0.1,0.8C195.4,121.8,195.3,121.9,195.2,121.9z M163.5,118.1C163.5,118.1,163.5,118.1,163.5,118.1
			c-0.4,0-0.7-0.2-0.7-0.5c-0.1-1.7-0.2-3.5-0.1-5.3c0-0.3,0.3-0.6,0.6-0.6c0.3,0,0.6,0.3,0.6,0.6c-0.1,1.8,0,3.5,0.1,5.2
			C164,117.8,163.8,118,163.5,118.1z M164,105.9c-0.1,0-0.1,0-0.2,0c-0.3,0-0.5-0.3-0.5-0.7c0.2-1.6,0.5-3.3,0.8-5.2
			c0.1-0.3,0.4-0.5,0.7-0.5c0.3,0.1,0.5,0.4,0.5,0.7c-0.3,1.9-0.6,3.5-0.8,5.1C164.4,105.7,164.3,105.9,164,105.9z M166.3,93.9
			c-0.1,0-0.2,0-0.3,0c-0.3-0.1-0.5-0.4-0.4-0.7c0.3-1.3,0.6-2.7,0.9-3.9l0.3-1.2c0.1-0.3,0.4-0.5,0.7-0.4c0.3,0.1,0.5,0.4,0.4,0.7
			l-0.3,1.2c-0.3,1.3-0.6,2.6-0.9,3.9C166.7,93.7,166.5,93.8,166.3,93.9z M168.8,81.9c-0.1,0-0.2,0-0.2,0c-0.3-0.1-0.5-0.4-0.5-0.7
			c0.1-0.3,0.1-0.6,0.2-0.9c-0.6,0.2-1.3,0.4-1.9,0.6c-0.3,0.1-0.6-0.1-0.7-0.4s0.1-0.6,0.4-0.7c0.8-0.2,1.6-0.5,2.5-0.8
			c0.2-1,0.4-2,0.5-3c0.1-0.3,0.4-0.5,0.7-0.5c0.3,0.1,0.5,0.4,0.5,0.7c-0.1,0.8-0.3,1.5-0.4,2.3c0.4-0.1,0.8-0.3,1.2-0.5
			c0.3-0.1,0.6,0,0.8,0.3c0.1,0.3,0,0.6-0.3,0.8c-0.6,0.2-1.2,0.5-1.9,0.7c-0.1,0.5-0.2,1-0.3,1.5C169.2,81.7,169.1,81.9,168.8,81.9
			z M159.6,82.4C159.5,82.4,159.5,82.4,159.6,82.4c-1.8,0.2-3.6,0.3-5.4,0.3c-0.3,0-0.6-0.3-0.6-0.6c0-0.3,0.3-0.6,0.6-0.6
			c1.7,0,3.4-0.1,5.2-0.3c0.3,0,0.6,0.2,0.6,0.5C160,82,159.8,82.3,159.6,82.4z M177.7,76.3c-0.2,0.1-0.5-0.1-0.6-0.3
			c-0.2-0.3-0.1-0.6,0.2-0.8c1.5-0.8,3-1.8,4.4-2.7c0.3-0.2,0.6-0.1,0.8,0.1c0.2,0.3,0.1,0.6-0.1,0.8c-1.5,1-3,1.9-4.5,2.8
			C177.8,76.3,177.7,76.3,177.7,76.3z M147.4,82c-0.1,0-0.2,0-0.2,0c-1.7-0.3-3.4-0.8-5.1-1.4c-0.3-0.1-0.5-0.4-0.4-0.7
			c0.1-0.3,0.4-0.5,0.7-0.4c1.6,0.6,3.3,1,5,1.4c0.3,0.1,0.5,0.4,0.5,0.7C147.8,81.8,147.6,81.9,147.4,82z M187.6,69.2
			c-0.2,0-0.4,0-0.6-0.2c-0.2-0.2-0.2-0.6,0.1-0.8c1.2-1.1,2.5-2.3,3.8-3.6c0.2-0.2,0.6-0.2,0.8,0c0.2,0.2,0.2,0.6,0,0.8
			c-1.3,1.3-2.6,2.5-3.8,3.6C187.8,69.2,187.7,69.2,187.6,69.2z M170.7,69.9c-0.1,0-0.1,0-0.2,0c-0.3,0-0.5-0.3-0.5-0.6
			c0.2-1.8,0.3-3.5,0.3-5.2c0-0.3,0.3-0.6,0.6-0.6c0.3,0,0.6,0.3,0.6,0.6c0,1.7-0.2,3.5-0.3,5.3C171.2,69.6,171,69.8,170.7,69.9z
			 M136,77.6c-0.1,0-0.3,0-0.4-0.1c-1.5-0.9-3-1.9-4.4-3c-0.2-0.2-0.3-0.6-0.1-0.8c0.2-0.2,0.6-0.3,0.8-0.1c1.3,1.1,2.8,2.1,4.2,2.9
			c0.3,0.2,0.4,0.5,0.2,0.8C136.3,77.5,136.2,77.6,136,77.6z M196.2,60.6c-0.2,0-0.4,0-0.5-0.1c-0.2-0.2-0.3-0.6,0-0.8
			c1-1.1,2.1-2.3,3.1-3.5l0.4-0.5c0.2-0.2,0.6-0.3,0.8,0c0.2,0.2,0.3,0.6,0,0.8l-0.4,0.5c-1,1.1-2,2.3-3.1,3.5
			C196.4,60.5,196.3,60.5,196.2,60.6z M126.8,69.8c-0.2,0-0.4,0-0.6-0.2c-1.1-1.4-2.2-2.9-3-4.4c-0.2-0.3-0.1-0.6,0.2-0.8
			c0.3-0.2,0.6-0.1,0.8,0.2c0.8,1.5,1.8,2.9,2.9,4.2c0.2,0.2,0.2,0.6-0.1,0.8C126.9,69.7,126.8,69.7,126.8,69.8z M204.4,51.4
			c-0.2,0-0.4,0-0.5-0.1c-0.2-0.2-0.2-0.6,0-0.8c1.3-1.4,2.5-2.6,3.7-3.8c0.2-0.2,0.6-0.2,0.8,0c0.2,0.2,0.2,0.6,0,0.8
			c-1.1,1.1-2.3,2.3-3.6,3.7C204.6,51.4,204.5,51.4,204.4,51.4z M170.9,57.7C170.8,57.7,170.8,57.7,170.9,57.7
			c-0.4,0-0.7-0.2-0.7-0.5c0-0.4-0.1-0.7-0.1-1.1c-0.1-1.3-0.4-2.7-0.7-4c-0.1-0.3,0.1-0.6,0.4-0.7c0,0,0,0,0,0
			c0.3-0.1,0.6,0.1,0.7,0.4c0.3,1.4,0.5,2.8,0.7,4.2c0,0.4,0.1,0.7,0.1,1.1C171.3,57.3,171.2,57.6,170.9,57.7z M213.3,43.1
			c-0.2,0.1-0.4,0-0.6-0.2c-0.2-0.3-0.2-0.6,0.1-0.8c1.4-1.1,2.9-2.1,4.3-3c0.3-0.2,0.6-0.1,0.8,0.2c0.2,0.3,0.1,0.6-0.2,0.8
			c-1.4,0.9-2.9,1.9-4.2,3C213.4,43,213.3,43,213.3,43.1z M240.8,35.1c-0.1,0-0.2,0-0.3,0c-1.6-0.4-3.3-0.6-5.1-0.7
			c-0.3,0-0.6-0.3-0.6-0.6c0-0.3,0.3-0.6,0.6-0.6c1.8,0,3.6,0.3,5.3,0.7c0.3,0.1,0.5,0.4,0.4,0.7C241.2,34.9,241,35,240.8,35.1z
			 M223.7,36.8c-0.3,0.1-0.6-0.1-0.7-0.3c-0.1-0.3,0-0.6,0.3-0.8c1.7-0.7,3.4-1.3,5.1-1.7c0.3-0.1,0.6,0.1,0.7,0.4
			c0.1,0.3-0.1,0.6-0.4,0.7C227.1,35.6,225.5,36.1,223.7,36.8C223.8,36.8,223.8,36.8,223.7,36.8z M121,59.1
			c-0.3,0.1-0.6-0.1-0.7-0.4c-0.1-0.5-0.3-0.9-0.4-1.4c-0.2-0.8-0.4-1.7-0.5-2.6c-0.1-0.4-0.1-0.9-0.1-1.3c0-0.3,0.2-0.6,0.5-0.6
			c0.3,0,0.6,0.2,0.6,0.5c0,0.4,0.1,0.9,0.1,1.3c0.1,0.8,0.3,1.6,0.5,2.5c0.1,0.4,0.2,0.9,0.3,1.3C121.5,58.7,121.4,59,121,59.1
			C121,59.1,121,59.1,121,59.1z M168,45.8c-0.3,0.1-0.6-0.1-0.7-0.3c-0.7-1.6-1.4-3.2-2.3-4.6c-0.2-0.3-0.1-0.6,0.2-0.8
			c0.3-0.2,0.6-0.1,0.8,0.2c0.9,1.5,1.7,3.1,2.4,4.8C168.5,45.3,168.3,45.7,168,45.8C168,45.8,168,45.8,168,45.8z M120.5,47
			c-0.1,0-0.2,0-0.3,0c-0.3-0.1-0.5-0.4-0.4-0.7c0.4-1.7,0.9-3.4,1.6-5.1c0.1-0.3,0.5-0.4,0.8-0.3c0.3,0.1,0.4,0.5,0.3,0.8
			c-0.7,1.6-1.2,3.2-1.5,4.9C120.9,46.8,120.7,46.9,120.5,47z M161.6,35.5c-0.2,0-0.4,0-0.6-0.2c-1.2-1.3-2.4-2.5-3.7-3.6
			c-0.2-0.2-0.3-0.6-0.1-0.8c0.2-0.2,0.6-0.3,0.8-0.1c1.3,1.1,2.6,2.3,3.8,3.7c0.2,0.2,0.2,0.6-0.1,0.8
			C161.8,35.4,161.7,35.4,161.6,35.5z M125.6,36c-0.2,0-0.3,0-0.5-0.1c-0.3-0.2-0.3-0.6-0.1-0.8c1.1-1.4,2.3-2.8,3.6-3.9
			c0.2-0.2,0.6-0.2,0.8,0c0.2,0.2,0.2,0.6,0,0.8c-1.3,1.1-2.4,2.4-3.5,3.8C125.8,35.9,125.7,35.9,125.6,36z M151.9,28.2
			c-0.1,0-0.2,0-0.4,0c-1.6-0.7-3.2-1.2-4.9-1.4c-0.3-0.1-0.5-0.4-0.5-0.7c0.1-0.3,0.4-0.5,0.7-0.5c1.7,0.3,3.5,0.8,5.1,1.5
			c0.3,0.1,0.4,0.5,0.3,0.8C152.2,28,152,28.2,151.9,28.2z M134.9,28.3c-0.3,0.1-0.5-0.1-0.7-0.3c-0.1-0.3,0-0.6,0.3-0.8
			c1.3-0.6,2.7-1.1,4-1.4c0.4-0.1,0.7-0.2,1.1-0.2c0.3-0.1,0.6,0.2,0.7,0.5c0.1,0.3-0.2,0.6-0.5,0.7c-0.3,0.1-0.7,0.1-1,0.2
			c-1.3,0.3-2.6,0.7-3.8,1.3C135,28.3,135,28.3,134.9,28.3z"/>
	</g>
	<g>
		<g>
			<polygon class="st2" points="278.3,11.1 266.1,35.7 264.2,39.6 261.1,35.9 252.8,26.4 			"/>
		</g>
		<g>
			<g>
				<g>
					<polygon class="st3" points="278.3,11.1 248,22.6 236.1,16.4 					"/>
				</g>
			</g>
		</g>
		<g>
			<polygon class="st4" points="278.3,11.1 252.8,26.4 247.1,34.3 248,22.6 			"/>
		</g>
	</g>
</g>
<g>
	<g>
		<g>
			<g>
				<path class="st5" d="M244,166.1l-44-12.5c-0.5-0.2-0.9-0.6-1-1.2c-0.1-0.6,0.2-1.1,0.7-1.3l19.8-9.8c0.6-0.3,1.3-0.1,1.7,0.4
					l4.3,5.6l6.6-2.5c0.6-0.2,1.3,0,1.6,0.5l11.7,18.8c0.3,0.5,0.3,1.1-0.1,1.5C245.1,166.1,244.5,166.3,244,166.1z M204.1,152
					l37.2,10.6l-9.3-14.9l-6.5,2.4c-0.6,0.2-1.2,0-1.5-0.4l-4.2-5.5L204.1,152z"/>
			</g>
		</g>
		<g>
			<g>
				<path class="st5" d="M200,153.6c-0.2-0.1-0.3-0.1-0.5-0.3c-0.4-0.3-0.6-0.9-0.4-1.4l7.4-26c0.1-0.5,0.5-0.9,1-1
					c0.5-0.1,1,0.1,1.3,0.5l12.4,16.2c0.2,0.3,0.3,0.7,0.2,1.1c-0.1,0.4-0.4,0.7-0.7,0.9l-19.8,9.8
					C200.7,153.7,200.4,153.7,200,153.6z M208.4,129.3l-5.8,20.5l15.6-7.7L208.4,129.3z"/>
			</g>
		</g>
		<g>
			<g>
				<path class="st5" d="M244,166.1c-0.3-0.1-0.6-0.3-0.8-0.6l-11.7-18.8c-0.2-0.3-0.3-0.8-0.1-1.1c0.1-0.4,0.4-0.7,0.8-0.8
					l19.1-7.2c0.5-0.2,1-0.1,1.4,0.3c0.4,0.3,0.5,0.9,0.4,1.4l-7.4,26c-0.1,0.5-0.6,0.9-1.1,1C244.4,166.2,244.2,166.2,244,166.1z
					 M234.7,146.7l9.2,14.8l5.8-20.5L234.7,146.7z"/>
			</g>
		</g>
		<g>
			<g>
				<path class="st5" d="M224.8,150.2c-0.3-0.1-0.5-0.2-0.7-0.5l-17.3-22.6c-0.4-0.5-0.4-1.1,0-1.6c0.3-0.5,0.9-0.7,1.5-0.5l44,12.5
					c0.6,0.2,1,0.7,1,1.2c0,0.6-0.3,1.1-0.9,1.3l-26.6,10.1C225.3,150.2,225,150.3,224.8,150.2z M211.4,128.7l14.2,18.5l21.9-8.3
					L211.4,128.7z"/>
			</g>
		</g>
	</g>
	<g>
		<g>
			<g>
				<path class="st5" d="M72.8,102.9l-43.3,18.9c-0.5,0.2-1.1,0.1-1.5-0.3c-0.4-0.4-0.5-1-0.3-1.6L37,99c0.3-0.6,0.9-0.9,1.6-0.8
					l7.1,1.6l3.6-6.3c0.3-0.6,1-0.8,1.7-0.6l21.7,7.3c0.5,0.2,0.9,0.7,0.9,1.3C73.6,102.1,73.3,102.6,72.8,102.9z M31.6,117.7
					l36.7-16l-17.2-5.8l-3.6,6.2c-0.3,0.5-0.9,0.8-1.5,0.7l-7-1.6L31.6,117.7z"/>
			</g>
		</g>
		<g>
			<g>
				<path class="st5" d="M29.4,121.7c-0.2,0.1-0.4,0.1-0.6,0.1c-0.6,0-1-0.3-1.3-0.8L16.5,95.4c-0.2-0.5-0.1-1,0.2-1.4
					c0.3-0.4,0.9-0.6,1.4-0.5l20.6,4.8c0.4,0.1,0.7,0.4,0.9,0.7c0.2,0.4,0.2,0.8,0,1.2L30.2,121C30,121.3,29.8,121.6,29.4,121.7z
					 M20.1,96.8l8.8,20.2l7.4-16.4L20.1,96.8z"/>
			</g>
		</g>
		<g>
			<g>
				<path class="st5" d="M72.8,102.9c-0.3,0.1-0.7,0.2-1,0l-21.7-7.3c-0.4-0.1-0.7-0.4-0.9-0.8c-0.1-0.4-0.1-0.8,0.1-1.2l10.5-18.3
					c0.3-0.5,0.8-0.7,1.3-0.7c0.5,0,1,0.4,1.2,0.8L73.5,101c0.2,0.5,0.1,1.1-0.3,1.5C73.1,102.7,72.9,102.8,72.8,102.9z M52.6,93.5
					l17.1,5.8l-8.8-20.2L52.6,93.5z"/>
			</g>
		</g>
		<g>
			<g>
				<path class="st5" d="M46.9,102.7c-0.3,0.1-0.6,0.1-0.9,0.1l-28.7-6.6c-0.6-0.1-1-0.6-1.1-1.2c-0.1-0.6,0.3-1.2,0.8-1.4
					l43.3-18.9c0.6-0.2,1.2-0.1,1.6,0.3c0.4,0.4,0.5,1.1,0.2,1.6l-14.7,25.5C47.4,102.4,47.2,102.6,46.9,102.7z M22.2,94.4l23.5,5.5
					l12-21L22.2,94.4z"/>
			</g>
		</g>
	</g>
</g>
<g>
	<g>
		<g>
			<g>
				<g>
					<path class="st6" d="M140.1,183.8v5.3h12.2c9.8,0,17.8-8,17.8-17.8v-18.5h-30V183.8z"/>
					<path class="st3" d="M124,152.8v18c0,7.2-5.8,13-13,13h29.1h11.7c7.2,0,13-5.8,13-13v-18H124z"/>
					<rect x="92.6" y="183.8" class="st7" width="47.5" height="5.3"/>
				</g>
				<rect x="124" y="164" class="st8" width="46.1" height="5.6"/>
			</g>
			<g>
				<g>
					<path class="st3" d="M221.9,61.6v96.2c0,3.4-2.8,6.2-6.2,6.2h-156c-3.4,0-6.2-2.8-6.2-6.2V61.6c0-3.4,2.8-6.2,6.2-6.2h156
						C219.2,55.5,221.9,58.2,221.9,61.6z"/>
					<path class="st9" d="M221.9,61.6v96.2c0,3.4-2.8,6.2-6.2,6.2h-95.8c77.3-0.1,81.7-108.5,81.7-108.5h14.1
						C219.2,55.5,221.9,58.2,221.9,61.6z"/>
					<path class="st5" d="M216.7,64.9v77.4c0,2.2-1.8,4-4,4H62.8c-2.2,0-4-1.8-4-4V64.9c0-2.2,1.8-4,4-4h149.9
						C214.9,60.9,216.7,62.7,216.7,64.9z"/>
					<path class="st10" d="M216.7,71.7v70.6c0,2.2-1.8,4-4,4H62.8c-2.2,0-4-1.8-4-4v-1.9L216.7,71.7z"/>
					<rect x="59.7" y="135" class="st11" width="157.2" height="4.7"/>
				</g>
				<g>
					<path class="st12" d="M216.7,69.2H58.8v0c0-4.6,3.7-8.3,8.3-8.3h141.3C213,60.9,216.7,64.6,216.7,69.2L216.7,69.2z"/>
					<g>
						<circle class="st3" cx="63.8" cy="65.4" r="1.3"/>
						<circle class="st3" cx="68.3" cy="65.4" r="1.3"/>
						<circle class="st3" cx="72.7" cy="65.4" r="1.3"/>
						<path class="st11" d="M64.5,65.4c0,0.4-0.3,0.7-0.7,0.7c-0.4,0-0.7-0.3-0.7-0.7c0-0.4,0.3-0.7,0.7-0.7
							C64.2,64.8,64.5,65.1,64.5,65.4z"/>
					</g>
				</g>
				<path class="st6" d="M212.8,147.1H63c-2.6,0-4.7-2.1-4.7-4.7V64.9c0-2.6,2.1-4.7,4.7-4.7h149.9c2.6,0,4.7,2.1,4.7,4.7v77.4
					C217.6,144.9,215.4,147.1,212.8,147.1z M63,61.7c-1.8,0-3.2,1.5-3.2,3.2v77.4c0,1.8,1.5,3.2,3.2,3.2h149.9
					c1.8,0,3.2-1.5,3.2-3.2V64.9c0-1.8-1.5-3.2-3.2-3.2H63z"/>
				<g>
					<path class="st5" d="M147.7,157h-19.8c-1.2,0-2.1-0.9-2.1-2.1l0,0c0-1.2,0.9-2.1,2.1-2.1h19.8c1.2,0,2.1,0.9,2.1,2.1v0
						C149.8,156,148.8,157,147.7,157z"/>
					<path class="st6" d="M147.7,157.3h-19.8c-1.4,0-2.5-1.1-2.5-2.5s1.1-2.5,2.5-2.5h19.8c1.4,0,2.5,1.1,2.5,2.5
						C150.1,156.2,149,157.3,147.7,157.3z M127.9,153.2c-1,0-1.7,0.8-1.7,1.7c0,1,0.8,1.7,1.7,1.7h19.8c1,0,1.7-0.8,1.7-1.7
						c0-1-0.8-1.7-1.7-1.7H127.9z"/>
				</g>
			</g>
		</g>
		<g>
			<g>
				<g>
					<g>
						<path class="st11" d="M136.7,93.5H85.8c-2.4,0-4.3-1.9-4.3-4.3v0c0-2.4,1.9-4.3,4.3-4.3h50.9c2.4,0,4.3,1.9,4.3,4.3v0
							C141,91.6,139.1,93.5,136.7,93.5z"/>
						<circle class="st12" cx="85.8" cy="89.2" r="4.3"/>
						<path class="st11" d="M87.8,91l-1.4-1.4c0.4-0.5,0.3-1.3-0.1-1.8c-0.3-0.3-0.6-0.4-1-0.4c-0.4,0-0.7,0.1-1,0.4
							c-0.3,0.3-0.4,0.6-0.4,1c0,0.4,0.1,0.7,0.4,1c0.3,0.3,0.6,0.4,1,0.4c0.3,0,0.6-0.1,0.8-0.3l1.4,1.4c0,0,0.1,0.1,0.2,0.1
							c0.1,0,0.1,0,0.2-0.1c0,0,0.1-0.1,0.1-0.2S87.8,91.1,87.8,91z M85.9,89.4c-0.4,0.4-1,0.4-1.3,0c-0.4-0.4-0.4-1,0-1.3
							c0.2-0.2,0.4-0.3,0.7-0.3s0.5,0.1,0.7,0.3C86.3,88.5,86.3,89.1,85.9,89.4z"/>
					</g>
					<g>
						<path class="st12" d="M135.7,90L135.7,90c0.5,0,1-0.4,1-1v-1.2c0-0.5-0.4-1-1-1l0,0c-0.5,0-1,0.4-1,1V89
							C134.7,89.6,135.1,90,135.7,90z"/>
						<path class="st12" d="M137.3,89c0-0.1-0.1-0.2-0.2-0.2S137,88.9,137,89c0,0.7-0.6,1.3-1.3,1.3c-0.7,0-1.3-0.6-1.3-1.3
							c0-0.1-0.1-0.2-0.2-0.2S134,88.9,134,89c0,0.9,0.7,1.6,1.5,1.6v0.7H135c-0.1,0-0.2,0.1-0.2,0.2c0,0.1,0.1,0.2,0.2,0.2h1.4
							c0.1,0,0.2-0.1,0.2-0.2c0-0.1-0.1-0.2-0.2-0.2h-0.5v-0.7C136.7,90.5,137.3,89.8,137.3,89z"/>
					</g>
				</g>
				<g>
					<g>
						<path class="st11" d="M94,119.7v0.7c0,5.9-4.8,10.6-10.6,10.6h0c-5.9,0-10.6-4.8-10.6-10.6v-0.7c0-5.9,4.8-10.6,10.6-10.6h0
							C89.3,109.1,94,113.8,94,119.7z"/>
					</g>
					<g>
						<path class="st5" d="M103.5,111.5v0.7c0,5.8-4.7,10.6-10.6,10.6h0c-5.8,0-10.6-4.7-10.6-10.6v-0.7c0-5.8,4.7-10.6,10.6-10.6h0
							C98.7,100.9,103.5,105.7,103.5,111.5z"/>
						<path class="st11" d="M103.9,103v17.6c0,1.4-1.1,2.6-2.4,2.6H84.2c-1.3,0-2.4-1.2-2.4-2.6V103c0-1.4,1.1-2.6,2.4-2.6h17.3
							C102.9,100.4,103.9,101.6,103.9,103z M82.8,120.6c0,0.9,0.6,1.6,1.4,1.6h17.3c0.8,0,1.4-0.7,1.4-1.6V103
							c0-0.9-0.6-1.6-1.4-1.6H84.2c-0.8,0-1.4,0.7-1.4,1.6V120.6z"/>
					</g>
				</g>
			</g>
			<g>
				<g class="st13">
					<g>
						<rect x="104.8" y="49.9" class="st14" width="74.7" height="88.1"/>
					</g>
				</g>
				<g>
					<g>
						<rect x="99.6" y="44.5" class="st11" width="74.7" height="89"/>
					</g>
				</g>
				<g>
					<g>
						<path class="st14" d="M131.8,106c0,0-0.1,0-0.1,0c-2,0-3.8-0.8-4.7-2.1l-9.4-12.9c-1.4-1.9-0.3-4.2,2.3-5.1
							c2.7-1,5.9-0.2,7.3,1.6l4.9,6.7l19.3-23.5c1.5-1.8,4.8-2.4,7.4-1.4c2.6,1,3.5,3.4,2,5.2l-24.3,29.6
							C135.5,105.3,133.7,106,131.8,106z"/>
					</g>
				</g>
			</g>
		</g>
	</g>
</g>
</svg>
