<?xml version="1.0" encoding="utf-8"?>
<!-- Generator: Adobe Illustrator 25.4.1, SVG Export Plug-In . SVG Version: 6.00 Build 0)  -->
<svg version="1.1" id="Capa_1" xmlns="http://www.w3.org/2000/svg" xmlns:xlink="http://www.w3.org/1999/xlink" x="0px" y="0px"
	 viewBox="0 0 50 50" style="enable-background:new 0 0 50 50;" xml:space="preserve">
<style type="text/css">
	.st0{fill:#359B91;}
</style>
<g>
	<g>
		<path class="st0" d="M20.3,20.6c0.3-0.2,0.4-0.7,0.2-1c-0.2-0.3-0.7-0.4-1-0.2l-0.2,0.1c-0.9,0.6-2,0.6-2.9,0l-0.2-0.1
			c-0.3-0.2-0.8-0.1-1,0.2c-0.2,0.3-0.1,0.8,0.2,1l0.2,0.1c0.7,0.4,1.4,0.7,2.2,0.7c0.8,0,1.5-0.2,2.2-0.7L20.3,20.6z"/>
		<path class="st0" d="M31.2,20.6c0.3-0.2,0.4-0.7,0.2-1c-0.2-0.3-0.7-0.4-1-0.2l-0.2,0.1c-0.9,0.6-2,0.6-2.9,0l-0.2-0.1
			c-0.3-0.2-0.8-0.1-1,0.2c-0.2,0.3-0.1,0.8,0.2,1l0.2,0.1c0.7,0.4,1.4,0.7,2.2,0.7c0.8,0,1.5-0.2,2.2-0.7L31.2,20.6z"/>
		<path class="st0" d="M20.9,28.8l0.2,0.1c0.7,0.4,1.4,0.7,2.2,0.7c0.8,0,1.5-0.2,2.2-0.7l0.2-0.1c0.3-0.2,0.4-0.7,0.2-1
			c-0.2-0.3-0.7-0.4-1-0.2l-0.2,0.1c-0.9,0.6-2,0.6-2.9,0l-0.2-0.1c-0.3-0.2-0.8-0.1-1,0.2C20.5,28.2,20.6,28.6,20.9,28.8L20.9,28.8
			z"/>
		<path class="st0" d="M23.3,11.6c0.4,0,0.7-0.3,0.7-0.7v-0.8c0-0.4-0.3-0.7-0.7-0.7s-0.7,0.3-0.7,0.7v0.8
			C22.6,11.3,22.9,11.6,23.3,11.6z"/>
		<path class="st0" d="M22.6,14.5c0,0.4,0.3,0.7,0.7,0.7s0.7-0.3,0.7-0.7v-0.8c0-0.4-0.3-0.7-0.7-0.7s-0.7,0.3-0.7,0.7V14.5z"/>
		<path class="st0" d="M22.6,18.2c0,0.4,0.3,0.7,0.7,0.7s0.7-0.3,0.7-0.7v-0.8c0-0.4-0.3-0.7-0.7-0.7s-0.7,0.3-0.7,0.7V18.2z"/>
		<path class="st0" d="M22.6,21.9c0,0.4,0.3,0.7,0.7,0.7s0.7-0.3,0.7-0.7v-0.8c0-0.4-0.3-0.7-0.7-0.7s-0.7,0.3-0.7,0.7V21.9z"/>
		<path class="st0" d="M21,25.6c0.2,0,0.4-0.1,0.5-0.2l0.6-0.6c0.3-0.3,0.3-0.7,0-1c-0.3-0.3-0.7-0.3-1,0l-0.6,0.6
			c-0.3,0.3-0.3,0.7,0,1C20.6,25.5,20.8,25.6,21,25.6L21,25.6z"/>
		<path class="st0" d="M18.5,26.3L18,26.8c-0.3,0.3-0.3,0.7,0,1c0.1,0.1,0.3,0.2,0.5,0.2s0.4-0.1,0.5-0.2l0.6-0.6
			c0.3-0.3,0.3-0.7,0-1C19.3,26,18.8,26,18.5,26.3L18.5,26.3z"/>
		<path class="st0" d="M26.2,24.3l-0.6-0.6c-0.3-0.3-0.7-0.3-1,0c-0.3,0.3-0.3,0.7,0,1l0.6,0.6c0.1,0.1,0.3,0.2,0.5,0.2
			s0.4-0.1,0.5-0.2C26.5,25.1,26.5,24.6,26.2,24.3L26.2,24.3z"/>
		<path class="st0" d="M28.1,26.3c-0.3-0.3-0.7-0.3-1,0c-0.3,0.3-0.3,0.7,0,1l0.6,0.6c0.1,0.1,0.3,0.2,0.5,0.2
			c0.2,0,0.4-0.1,0.5-0.2c0.3-0.3,0.3-0.7,0-1L28.1,26.3z"/>
		<path class="st0" d="M44.9,35.6L34.6,25.4c0.2-0.7,0.4-1.4,0.6-2.2h1.1c1.6,0,2.9-1.3,2.9-2.9V19c0-1.1-0.6-2.1-1.6-2.6v-1.9
			c0-2.4-0.6-4.7-1.7-6.8c-0.2-0.4-0.6-0.5-1-0.3c-0.4,0.2-0.5,0.6-0.3,1c1,1.9,1.6,4,1.6,6.1v1.6h-0.9c-1.1-5.6-6-9.8-11.8-9.8
			c-0.1,0-0.2,0-0.3,0c2.3-1.1,4.9-1.8,7.4-1.9l0.7,0c0.7,0.5,1.3,1.1,1.9,1.8c0.3,0.3,0.7,0.3,1,0.1c0.3-0.3,0.3-0.7,0.1-1
			c-0.7-0.8-1.4-1.5-2.3-2.1c0,0,0,0-0.1-0.1c-2.4-1.8-5.4-2.8-8.5-2.8c-7.9,0-14.2,6.4-14.2,14.2v1.9c-0.9,0.5-1.6,1.4-1.6,2.6v1.4
			c0,1.6,1.3,2.9,2.9,2.9h1.1c0.7,3.9,3.1,7.4,6.7,9.4v2c0,1-0.7,1.8-1.6,2.1l-2.4,0.7c-0.4,0.1-0.6,0.5-0.5,0.9
			c0.1,0.4,0.5,0.6,0.9,0.5l2.4-0.7c1.5-0.5,2.6-1.9,2.6-3.5v-1.2c1.2,0.6,2.5,0.8,3.8,0.8c1.2,0,2.4-0.2,3.6-0.7v1.1
			c0,1.6,1.1,3.1,2.6,3.5l7.2,2.1c2.3,0.7,3.8,2.8,3.8,5.2v1.4c0,0.7-0.6,1.3-1.3,1.3h-4.7v-4.7c0-0.4-0.3-0.7-0.7-0.7
			s-0.7,0.3-0.7,0.7v0.6H14.4v-0.6c0-0.4-0.3-0.7-0.7-0.7s-0.7,0.3-0.7,0.7v4.7H7.3c-0.7,0-1.3-0.6-1.3-1.3v-1.4
			c0-2.4,1.6-4.5,3.8-5.2l1.4-0.4c0.4-0.1,0.6-0.5,0.5-0.9c-0.1-0.4-0.5-0.6-0.9-0.5L9.4,39c-1.4,0.4-2.6,1.3-3.5,2.5
			S4.6,44,4.6,45.5v1.4c0,1.5,1.3,2.8,2.8,2.8h8.5c0.4,0,0.7-0.3,0.7-0.7c0-0.4-0.3-0.7-0.7-0.7h-1.5v-2.6h18.8v2.6H18.9
			c-0.4,0-0.7,0.3-0.7,0.7c0,0.4,0.3,0.7,0.7,0.7h20.4c1.5,0,2.8-1.3,2.8-2.8v-1.4c0-1.5-0.5-2.9-1.4-4.1c-0.9-1.2-2.1-2-3.5-2.5
			l-7.2-2.1c-0.9-0.3-1.6-1.2-1.6-2.1v-1.9l0,0c0.6-0.4,1.3-0.8,1.8-1.3c0.3-0.3,0.4-0.7,0.1-1c-0.3-0.3-0.7-0.4-1-0.1
			c-0.5,0.4-1.1,0.8-1.6,1.1l-0.5,0.3c-2.3,1.4-5.3,1.4-7.6,0.1L19,31.5c-3.9-2.2-6.3-6.3-6.3-10.7v-2.3c0-5.9,4.8-10.6,10.6-10.6
			S34,12.6,34,18.4v2.4c0,1.2-0.2,2.3-0.5,3.4l-0.2-0.2c-0.5-0.5-1.2-0.6-1.8-0.5c-0.6,0.2-1.1,0.7-1.2,1.4l-0.1,0.3
			c-0.3,1.7,0.2,3.4,1.4,4.6l0.7,0.7c0.6,0.6,1.4,1.1,2.3,1.3l0.9,0.2c0.2,0.1,0.4,0.2,0.6,0.3l6,6c0.4,0.4,0.9,0.6,1.4,0.6
			c0.5,0,1-0.2,1.4-0.6C45.6,37.7,45.6,36.4,44.9,35.6L44.9,35.6z M10.4,21.8c-0.8,0-1.4-0.6-1.4-1.4V19c0-0.8,0.6-1.4,1.4-1.4h0.9
			c0,0.3,0,0.6,0,0.8V19h-0.7c-0.4,0-0.7,0.3-0.7,0.7c0,0.4,0.3,0.7,0.7,0.7h0.7v0.3c0,0.3,0,0.7,0,1H10.4z M11.5,16.2h-0.9v-1.6
			c0-7.1,5.7-12.8,12.8-12.8c2,0,4,0.5,5.8,1.4c-3,0.3-5.9,1.3-8.4,2.8c0,0-3.3,1.9-3.3,2C14.4,9.6,12.2,12.6,11.5,16.2L11.5,16.2z
			 M36.3,17.6c0.8,0,1.4,0.6,1.4,1.4v1.4c0,0.8-0.6,1.4-1.4,1.4h-0.9c0-0.3,0-0.6,0-0.9v-0.5h0.7c0.4,0,0.7-0.3,0.7-0.7
			c0-0.4-0.3-0.7-0.7-0.7h-0.7v-0.5c0-0.3,0-0.6,0-0.8H36.3z M35.8,30.7l-0.9-0.2c-0.6-0.1-1.2-0.5-1.6-0.9l-0.7-0.7
			c-0.9-0.9-1.2-2.1-1-3.3l0.1-0.3c0-0.2,0.2-0.3,0.3-0.3c0,0,0.1,0,0.1,0c0.1,0,0.2,0,0.3,0.1l6.2,6.2L37.7,32l-0.6-0.6
			C36.7,31,36.3,30.8,35.8,30.7L35.8,30.7z M43.9,37.4c-0.1,0.1-0.2,0.2-0.4,0.2c-0.1,0-0.3-0.1-0.4-0.2L38.8,33l0.7-0.7l4.4,4.4
			C44.1,36.9,44.1,37.2,43.9,37.4z"/>
	</g>
</g>
</svg>
