<?xml version="1.0" encoding="utf-8"?>
<!-- Generator: Adobe Illustrator 25.4.1, SVG Export Plug-In . SVG Version: 6.00 Build 0)  -->
<svg version="1.1" id="Capa_1" xmlns="http://www.w3.org/2000/svg" xmlns:xlink="http://www.w3.org/1999/xlink" x="0px" y="0px"
	 viewBox="0 0 50 50" style="enable-background:new 0 0 50 50;" xml:space="preserve">
<style type="text/css">
	.st0{fill:#359B91;}
</style>
<g>
	<g>
		<path class="st0" d="M49.9,27.9c-0.4-2.6-2.4-4.6-4.9-4.9v-1.5c0-4.2-3.2-7.6-7.1-7.6c-3.8,0-7,3.3-7.1,7.4h0l0,0v16.4
			c0,5.2-3.9,9.5-8.7,9.5s-8.7-4.3-8.7-9.5v-1.4c1.2,0,2.5-0.9,2.5-3.3v-2.1c5.3-1.4,9.2-6,9.2-11.2v-1.7h-1.7l0-10.8
			c0-2-1.5-3.7-3.4-4.1c-0.4-1.3-1.8-2-3.1-1.6c-1.3,0.4-2,1.8-1.6,3.1c0.4,1.3,1.8,2,3.1,1.6c0.7-0.2,1.3-0.8,1.5-1.4
			c1.1,0.3,1.8,1.3,1.8,2.4l0,10.8H20v1.8c-0.1,2.9-2,5.4-4.8,6.2c-1.5,0.5-3.1,0.5-4.6,0c-2.8-0.8-4.7-3.3-4.8-6.2v-1.8H3.3V7
			c0-1.1,0.8-2.1,1.8-2.4c0.5,1.3,2,1.9,3.3,1.4s1.9-2,1.4-3.3c-0.5-1.3-2-1.9-3.3-1.4C5.9,1.6,5.4,2.2,5.1,2.9C3.1,3.3,1.7,5,1.7,7
			v10.8H0v1.7c0,5.2,3.8,9.8,9.2,11.2v2.1c0,2.5,1.3,3.3,2.5,3.3v1.4c0,6.2,4.7,11.2,10.4,11.2s10.4-5,10.4-11.2V21.2
			c0.1-3.2,2.5-5.7,5.4-5.7c3,0,5.4,2.7,5.4,5.9v1.5c-3.2,0.5-5.4,3.4-4.9,6.6s3.4,5.4,6.6,4.9S50.4,31.1,49.9,27.9z M17.5,4.5
			c-0.5,0-0.8-0.4-0.8-0.8s0.4-0.8,0.8-0.8s0.8,0.4,0.8,0.8S18,4.5,17.5,4.5z M7.5,2.9c0.5,0,0.8,0.4,0.8,0.8S8,4.5,7.5,4.5
			C7,4.5,6.7,4.2,6.7,3.7S7,2.9,7.5,2.9z M1.7,19.6L1.7,19.6l2.5-0.1v0.1c0.1,3.6,2.5,6.8,5.9,7.8c1.8,0.6,3.8,0.6,5.6,0
			c3.5-1,5.9-4.2,6-7.8v-0.1h1.7v0.1c0,4.6-3.6,8.7-8.5,9.7c-1.2,0.2-2.3,0.3-3.5,0.2c-0.4,0-0.8-0.1-1.2-0.2
			C5.2,28.3,1.7,24.2,1.7,19.6z M11.7,34.5c-0.7,0-0.8-1.2-0.8-1.7v-1.8c0.1,0,0.1,0,0.2,0c0.1,0,0.2,0,0.2,0c0.4,0,0.8,0.1,1.2,0.1
			h0c0.4,0,0.8,0,1.2-0.1c0.1,0,0.2,0,0.3,0c0.1,0,0.1,0,0.2,0v1.8c0,0.5-0.1,1.7-0.8,1.7H11.7z M44.2,32.9c-2.3,0-4.2-1.9-4.2-4.2
			s1.9-4.2,4.2-4.2c2.3,0,4.2,1.9,4.2,4.2C48.3,31,46.5,32.9,44.2,32.9z"/>
	</g>
</g>
<g>
	<g>
		<path class="st0" d="M44.2,26.2c-1.4,0-2.5,1.1-2.5,2.5s1.1,2.5,2.5,2.5c1.4,0,2.5-1.1,2.5-2.5S45.5,26.2,44.2,26.2z M44.2,29.5
			c-0.5,0-0.8-0.4-0.8-0.8s0.4-0.8,0.8-0.8c0.5,0,0.8,0.4,0.8,0.8S44.6,29.5,44.2,29.5z"/>
	</g>
</g>
</svg>
