<?xml version="1.0" encoding="utf-8"?>
<!-- Generator: Adobe Illustrator 26.0.0, SVG Export Plug-In . SVG Version: 6.00 Build 0)  -->
<svg version="1.1" id="圖層_1" xmlns="http://www.w3.org/2000/svg" xmlns:xlink="http://www.w3.org/1999/xlink" x="0px" y="0px"
	 viewBox="0 0 64 64" style="enable-background:new 0 0 64 64;" xml:space="preserve">
<style type="text/css">
	.st0{fill-rule:evenodd;clip-rule:evenodd;fill:#FFFFFF;}
</style>
<g>
	<path class="st0" d="M47.2,18.2c0,8.4-6.8,15.2-15.2,15.2s-15.2-6.8-15.2-15.2S23.6,3,32,3S47.2,9.8,47.2,18.2z M43.6,18.2
		c0,6.4-5.2,11.6-11.6,11.6c-6.4,0-11.6-5.2-11.6-11.6c0-6.4,5.2-11.6,11.6-11.6C38.4,6.6,43.6,11.8,43.6,18.2z"/>
	<path class="st0" d="M32,36C18.9,36,8.1,45.8,6.5,58.4c-0.1,0.7,0.1,1.3,0.6,1.8C7.5,60.8,8.2,61,8.8,61h46.3
		c0.7,0,1.3-0.3,1.7-0.8c0.4-0.5,0.6-1.2,0.6-1.8C55.9,45.8,45.1,36,32,36z M32,39.7c11,0,19.7,8,21.3,17.7H10.7
		C12.3,48.5,20.4,39.7,32,39.7z"/>
</g>
</svg>
