<?xml version="1.0" encoding="utf-8"?>
<!-- Generator: Adobe Illustrator 25.4.1, SVG Export Plug-In . SVG Version: 6.00 Build 0)  -->
<svg version="1.1" id="圖層_1" xmlns="http://www.w3.org/2000/svg" xmlns:xlink="http://www.w3.org/1999/xlink" x="0px" y="0px"
	 viewBox="0 0 50 50" style="enable-background:new 0 0 50 50;" xml:space="preserve">
<style type="text/css">
	.st0{fill:#FFFFFF;}
</style>
<g>
	<g>
		<path class="st0" d="M48.8,36.8c0-1.9-1.3-3.1-3.1-3.2c-0.6,0-1.2,0-1.8,0c0-2.1,0-4,0-6c0-0.6,0-1.3-0.2-1.9c-0.7-2.5-3-4-5.9-4
			c-3.6,0-7.1,0-10.7,0h-1v-6c0.8,0,1.5,0,2.3,0c2.4,0,3.6-1.2,3.6-3.6c0-1.9,0-3.9,0-5.8c0-2.3-1.2-3.5-3.5-3.6c-2.3,0-4.6,0-6.9,0
			c-2.2,0-3.5,1.3-3.5,3.5c0,2,0,3.9,0,5.9c0,2.3,1.2,3.6,3.6,3.6c0.8,0,1.5,0,2.3,0v6c-0.5,0-0.8,0-1.2,0c-3.5,0-7.1,0-10.6,0
			c-2.9,0-6.2,2.2-6,6.1c0.1,1.6,0,3.3,0,4.9c0,0.3,0,0.6-0.1,1c-2.9,0-4.9,0.2-4.9,3v5.8c0,1.9,1.1,3,3.3,3c1.8,0,3.5,0,5.3,0
			c2-0.1,3.3-1.4,3.3-3.4c0-1.7,0-3.4,0-5.1c0-2.1-1.3-3.3-3.4-3.4c-0.5,0-1,0-1.5,0c-0.1-0.2-0.1-0.3-0.1-0.3c0-1.8,0-3.6,0-5.4
			c0-2.6,1.5-4.2,4.1-4.2c3.8,0,7.5,0,11.3,0c0.1,0,0.3,0,0.5,0.1v9.9c-0.7,0-1.3,0-1.9,0c-1.7,0.1-3,1.3-3,3.1c0,1.9,0,3.9,0,5.8
			c0,1.6,1.1,2.9,2.7,3c2.2,0.1,4.3,0.1,6.5,0c1.6-0.1,2.6-1.4,2.7-3c0.1-1.9,0.1-3.9,0-5.8c0-1.7-1.3-3-3-3.1c-0.6,0-1.2,0-1.9,0
			v-10c4.1,0,8.1,0,12.1,0c0.3,0,0.6,0,0.8,0.1c1.4,0.4,2.6,1.1,2.7,2.6c0.2,2.4,0.1,4.7,0.1,7.2c-0.6,0-1.1,0-1.7,0
			c-1.9,0.1-3.2,1.4-3.2,3.3c0,1.8,0,3.5,0,5.3c0,1.9,1.2,3.2,3,3.3c2,0.1,4,0.1,6,0c1.8-0.1,2.9-1.4,3-3.2
			C48.9,40.4,48.9,38.6,48.8,36.8z M9.7,35.5c1,0,1.4,0.4,1.4,1.5c0,0.1,0,0.1,0,0.2c0,0.8,0,1.6,0,2.3l0,0c0,0.9,0,1.7,0,2.6
			c0,0.9-0.4,1.3-1.3,1.4c-1.8,0-3.5,0-5.3,0c-0.9,0-1.3-0.5-1.3-1.4c0-1.7,0-3.5,0-5.2c0-0.9,0.4-1.4,1.4-1.4
			C6.2,35.5,8,35.4,9.7,35.5z M21.5,13.6c-1,0-1.4-0.4-1.5-1.4c0-2,0-4,0-6.1c0-1,0.5-1.4,1.5-1.5c0.3,0,2.6,0,3.4,0
			c0.9,0,3.2,0,3.5,0c1,0,1.4,0.4,1.5,1.4c0,2,0,4.1,0,6.1c0,0.9-0.5,1.4-1.4,1.4C26.2,13.6,23.8,13.6,21.5,13.6z M27.7,35.5
			c0.8,0,1.2,0.5,1.2,1.3c0,1.8,0,3.5,0,5.3c0,0.9-0.5,1.3-1.4,1.3c-0.2,0-0.4,0-0.7,0c-0.7,0-1.3,0-2,0s-1.3,0-2,0
			c-0.2,0-0.4,0-0.7,0c-0.9,0-1.3-0.4-1.3-1.3c0-1.8,0-3.5,0-5.3c0-0.8,0.5-1.3,1.3-1.3C24.1,35.5,25.9,35.5,27.7,35.5z M46.8,42.1
			c0,0.9-0.4,1.3-1.4,1.3c-1.7,0-3.4,0-5.1,0c-0.9,0-1.3-0.4-1.4-1.4c0-0.9,0-1.8,0-2.7c0-0.8,0-1.7,0-2.5c0-0.9,0.5-1.3,1.3-1.4
			c1.8,0,3.5,0,5.3,0c0.8,0,1.3,0.5,1.3,1.4C46.8,38.6,46.9,40.3,46.8,42.1z"/>
	</g>
	<g>
		<path class="st0" d="M48.8,36.8c0-1.9-1.3-3.1-3.1-3.2c-0.6,0-1.2,0-1.8,0c0-2.1,0-4,0-6c0-0.6,0-1.3-0.2-1.9c-0.7-2.5-3-4-5.9-4
			c-3.6,0-7.1,0-10.7,0h-1v-6c0.8,0,1.5,0,2.3,0c2.4,0,3.6-1.2,3.6-3.6c0-1.9,0-3.9,0-5.8c0-2.3-1.2-3.5-3.5-3.6c-2.3,0-4.6,0-6.9,0
			c-2.2,0-3.5,1.3-3.5,3.5c0,2,0,3.9,0,5.9c0,2.3,1.2,3.6,3.6,3.6c0.8,0,1.5,0,2.3,0v6c-0.5,0-0.8,0-1.2,0c-3.5,0-7.1,0-10.6,0
			c-2.9,0-6.2,2.2-6,6.1c0.1,1.6,0,3.3,0,4.9c0,0.3,0,0.6-0.1,1c-2.9,0-4.9,0.2-4.9,3v5.8c0,1.9,1.1,3,3.3,3c1.8,0,3.5,0,5.3,0
			c2-0.1,3.3-1.4,3.3-3.4c0-1.7,0-3.4,0-5.1c0-2.1-1.3-3.3-3.4-3.4c-0.5,0-1,0-1.5,0c-0.1-0.2-0.1-0.3-0.1-0.3c0-1.8,0-3.6,0-5.4
			c0-2.6,1.5-4.2,4.1-4.2c3.8,0,7.5,0,11.3,0c0.1,0,0.3,0,0.5,0.1v9.9c-0.7,0-1.3,0-1.9,0c-1.7,0.1-3,1.3-3,3.1c0,1.9,0,3.9,0,5.8
			c0,1.6,1.1,2.9,2.7,3c2.2,0.1,4.3,0.1,6.5,0c1.6-0.1,2.6-1.4,2.7-3c0.1-1.9,0.1-3.9,0-5.8c0-1.7-1.3-3-3-3.1c-0.6,0-1.2,0-1.9,0
			v-10c4.1,0,8.1,0,12.1,0c0.3,0,0.6,0,0.8,0.1c1.4,0.4,2.6,1.1,2.7,2.6c0.2,2.4,0.1,4.7,0.1,7.2c-0.6,0-1.1,0-1.7,0
			c-1.9,0.1-3.2,1.4-3.2,3.3c0,1.8,0,3.5,0,5.3c0,1.9,1.2,3.2,3,3.3c2,0.1,4,0.1,6,0c1.8-0.1,2.9-1.4,3-3.2
			C48.9,40.4,48.9,38.6,48.8,36.8z M9.7,35.5c1,0,1.4,0.4,1.4,1.5c0,0.1,0,0.1,0,0.2c0,0.8,0,1.6,0,2.3l0,0c0,0.9,0,1.7,0,2.6
			c0,0.9-0.4,1.3-1.3,1.4c-1.8,0-3.5,0-5.3,0c-0.9,0-1.3-0.5-1.3-1.4c0-1.7,0-3.5,0-5.2c0-0.9,0.4-1.4,1.4-1.4
			C6.2,35.5,8,35.4,9.7,35.5z M21.5,13.6c-1,0-1.4-0.4-1.5-1.4c0-2,0-4,0-6.1c0-1,0.5-1.4,1.5-1.5c0.3,0,2.6,0,3.4,0
			c0.9,0,3.2,0,3.5,0c1,0,1.4,0.4,1.5,1.4c0,2,0,4.1,0,6.1c0,0.9-0.5,1.4-1.4,1.4C26.2,13.6,23.8,13.6,21.5,13.6z M27.7,35.5
			c0.8,0,1.2,0.5,1.2,1.3c0,1.8,0,3.5,0,5.3c0,0.9-0.5,1.3-1.4,1.3c-0.2,0-0.4,0-0.7,0c-0.7,0-1.3,0-2,0s-1.3,0-2,0
			c-0.2,0-0.4,0-0.7,0c-0.9,0-1.3-0.4-1.3-1.3c0-1.8,0-3.5,0-5.3c0-0.8,0.5-1.3,1.3-1.3C24.1,35.5,25.9,35.5,27.7,35.5z M46.8,42.1
			c0,0.9-0.4,1.3-1.4,1.3c-1.7,0-3.4,0-5.1,0c-0.9,0-1.3-0.4-1.4-1.4c0-0.9,0-1.8,0-2.7c0-0.8,0-1.7,0-2.5c0-0.9,0.5-1.3,1.3-1.4
			c1.8,0,3.5,0,5.3,0c0.8,0,1.3,0.5,1.3,1.4C46.8,38.6,46.9,40.3,46.8,42.1z"/>
	</g>
</g>
</svg>
