<?xml version="1.0" encoding="utf-8"?>
<!-- Generator: Adobe Illustrator 25.4.1, SVG Export Plug-In . SVG Version: 6.00 Build 0)  -->
<svg version="1.1" id="Layer_1" xmlns="http://www.w3.org/2000/svg" xmlns:xlink="http://www.w3.org/1999/xlink" x="0px" y="0px"
	 viewBox="0 0 50 50" style="enable-background:new 0 0 50 50;" xml:space="preserve">
<style type="text/css">
	.st0{fill:#359B91;}
</style>
<g>
	<path class="st0" d="M23.5,26c-0.4,0.1-0.7,0.5-0.6,0.9c0.1,0.6,0.1,1.2-0.2,1.9c-0.4,1.4-1.5,2.3-2.8,2.7c-3.1,0.8-5.9,3-7.6,5.9
		L5.7,48.8c-0.2,0.4-0.1,0.9,0.3,1.1c0.2,0.1,0.7,0.2,1.1-0.3l6.6-11.5c1.5-2.5,3.9-4.4,6.6-5.1c1.9-0.5,3.4-1.9,4-3.8
		c0.2-0.8,0.3-1.7,0.2-2.6C24.4,26.2,24,25.9,23.5,26L23.5,26z"/>
	<path class="st0" d="M8,24.6c-0.4-1.4,0-2.7,0.9-3.8c1-1.1,2.7-1.6,4.2-1.1c1.6,0.6,2.7,1.9,2.8,3.6c0.1,0.5,0.5,1,1.1,0.6
		c1.5-0.8,3.3-0.5,4.5,0.6c0.3,0.3,0.8,0.2,1.1-0.1c0.3-0.3,0.2-0.8-0.1-1.1C21,21.9,19,21.5,17.2,22c-0.5-1.9-1.9-3.4-3.8-4
		c-2.1-0.6-4.4,0-5.9,1.5C6.2,21,5.7,23,6.2,24.8c0.7,2.7,0.3,5.7-1.1,8.3l-5.2,9c-0.2,0.4-0.1,0.9,0.3,1.1c0.2,0.1,0.8,0.2,1.1-0.3
		L6.8,34C8.4,31.2,8.8,27.7,8,24.6z"/>
	<path class="st0" d="M9.8,22.3c-0.2,0.4-0.1,0.9,0.3,1.1c0.5,0.2,1,0,1.1-0.3c0.1-0.2,0.6-0.6,1.1-0.3c0.4,0.2,0.9,0.1,1.1-0.3
		s0.1-0.9-0.3-1.1C12.6,21.1,10.8,20.9,9.8,22.3L9.8,22.3z"/>
	<path class="st0" d="M7.6,40.6c-0.4-0.2-0.9-0.1-1.1,0.3l-2.4,4.2C3.8,45.5,4,46,4.4,46.2c0.2,0.1,0.8,0.2,1.1-0.3L8,41.7
		C8.1,41.3,8,40.8,7.6,40.6z"/>
	<path class="st0" d="M50,5.9c-0.2-0.3-0.7-0.5-1.1-0.2l-8.1,4.8c-0.4,0.2-0.6,0.7-0.3,1.1c0.4,0.6,1,0.4,1.1,0.3l8.1-4.8
		C50.1,6.8,50.1,6.3,50,5.9z"/>
	<path class="st0" d="M37.4,12.3c-2.9,1.7-5,4.4-5.9,7.6c-0.3,1.4-1.4,2.4-2.7,2.8c-1.5,0.5-3.1,0-4.2-1.1c-1.1-1.3-1.4-3-0.6-4.5
		c0.3-0.7-0.4-1.1-0.6-1.1c-1.7-0.1-3.1-1.2-3.6-2.8c-0.5-1.5,0-3.1,1.1-4.2c1-1,2.5-1.3,3.8-0.9c3.1,0.9,6.6,0.4,9.5-1.3l9-5.2
		c0.4-0.2,0.6-0.7,0.3-1.1S42.8,0,42.4,0.2l-8.9,5.2c-2.6,1.5-5.6,1.9-8.3,1.1c-1.9-0.5-3.9,0-5.3,1.3c-1.6,1.5-2.3,3.8-1.5,5.9
		c0.6,1.9,2.1,3.3,4,3.8c-0.5,1.9-0.1,3.9,1.3,5.3c1,1.2,3.1,2.3,5.9,1.5c1.9-0.6,3.3-2.1,3.8-4c0.7-2.7,2.6-5.2,5.1-6.6
		c0.4-0.2,0.5-0.7,0.3-1.1C38.3,12.2,37.7,12,37.4,12.3L37.4,12.3z"/>
	<path class="st0" d="M23.1,11.1c0.4-0.2,0.5-0.7,0.3-1.1c-0.2-0.4-0.7-0.6-1.1-0.3c-1.6,1.1-1.2,2.7-0.9,3.3
		c0.2,0.2,0.6,0.6,1.1,0.3c0.4-0.2,0.5-0.7,0.3-1.1C22.8,12,22.6,11.5,23.1,11.1L23.1,11.1z"/>
	<path class="st0" d="M10.1,11.6c0.2,0.2,0.7,0.5,1.1,0c0.3-0.3,0.3-0.8,0-1.1L7.8,7.1C7.5,6.8,7,6.8,6.7,7.1s-0.3,0.8,0,1.1
		L10.1,11.6z"/>
	<path class="st0" d="M15.2,9.6c0.5,0,0.8-0.3,0.8-0.8V4.2c0-0.5-0.3-0.8-0.8-0.8s-0.8,0.3-0.8,0.8v4.6C14.4,9.2,14.8,9.6,15.2,9.6z
		"/>
	<path class="st0" d="M3.8,16.4h4.6c0.5,0,0.8-0.3,0.8-0.8s-0.3-0.8-0.8-0.8H3.8c-0.5,0-0.8,0.3-0.8,0.8C3,16,3.4,16.4,3.8,16.4z"/>
	<path class="st0" d="M30.6,29.8c-0.3-0.3-0.8-0.3-1.1,0c-0.3,0.3-0.3,0.8,0,1.1l3.4,3.4c0.2,0.2,0.7,0.4,1.1,0
		c0.3-0.3,0.3-0.8,0-1.1L30.6,29.8z"/>
	<path class="st0" d="M25.5,31.9c-0.5,0-0.8,0.3-0.8,0.8v4.6c0,0.5,0.3,0.8,0.8,0.8s0.8-0.3,0.8-0.8v-4.6
		C26.3,32.3,25.9,31.9,25.5,31.9z"/>
	<path class="st0" d="M36.9,25.1h-4.6c-0.5,0-0.8,0.3-0.8,0.8s0.3,0.8,0.8,0.8h4.6c0.5,0,0.8-0.3,0.8-0.8S37.3,25.1,36.9,25.1z"/>
</g>
</svg>
