<?xml version="1.0" encoding="utf-8"?>
<!-- Generator: Adobe Illustrator 25.4.1, SVG Export Plug-In . SVG Version: 6.00 Build 0)  -->
<svg version="1.1" id="圖層_1" xmlns="http://www.w3.org/2000/svg" xmlns:xlink="http://www.w3.org/1999/xlink" x="0px" y="0px"
	 viewBox="0 0 50 50" style="enable-background:new 0 0 50 50;" xml:space="preserve">
<style type="text/css">
	.st0{fill:#359B91;}
</style>
<g id="_x30_2_Robotic_Surgery">
	<g>
		<path class="st0" d="M47.7,41.4h-1.6V32c0.9-0.7,1.6-1.8,1.6-3.1c0-2.2-1.8-3.9-3.9-3.9c-0.2,0-0.4,0-0.5,0.1l-5-5
			c0-0.8-0.4-1.5-0.9-2c-1.2-1.2-3.2-1.2-4.4,0l-3.1,3.1c-0.6,0.6-0.9,1.4-0.9,2.2c0,0.6,0.2,1.1,0.4,1.6l-1,1
			c-0.3,0.3-0.3,0.8,0,1.1c0.2,0.2,0.4,0.2,0.6,0.2c0.2,0,0.4-0.1,0.6-0.2l1-1c0.5,0.3,1,0.4,1.6,0.4c0.8,0,1.6-0.3,2.2-0.9l1.5-1.5
			l4.2,4.2c0,0.2-0.1,0.4-0.1,0.5c0,1.3,0.6,2.4,1.6,3.1v9.4h-1.6c-1.3,0-2.3,1.1-2.3,2.3v5.5c0,0.4,0.4,0.8,0.8,0.8h10.9
			c0.4,0,0.8-0.4,0.8-0.8v-5.5C50,42.5,48.9,41.4,47.7,41.4L47.7,41.4z M46.1,28.9c0,1.3-1.1,2.3-2.3,2.3s-2.3-1.1-2.3-2.3
			s1.1-2.3,2.3-2.3S46.1,27.6,46.1,28.9z M33.1,24.5c-0.6,0.6-1.6,0.6-2.2,0c-0.3-0.3-0.5-0.7-0.5-1.1c0-0.4,0.2-0.8,0.5-1.1
			l3.1-3.1c0.3-0.3,0.7-0.5,1.1-0.5c0.4,0,0.8,0.2,1.1,0.5s0.5,0.7,0.5,1.1c0,0.4-0.2,0.8-0.5,1.1L33.1,24.5z M36.8,23.1l0.6-0.6
			c0.2-0.2,0.3-0.4,0.5-0.6l3.8,3.8c-0.4,0.3-0.8,0.7-1.1,1.1L36.8,23.1z M43,32.7c0.3,0.1,0.5,0.1,0.8,0.1c0.3,0,0.5,0,0.8-0.1v8.7
			H43V32.7z M48.4,48.4h-9.4v-4.7c0-0.4,0.4-0.8,0.8-0.8h7.8c0.4,0,0.8,0.4,0.8,0.8V48.4z"/>
		<path class="st0" d="M10.2,41.4H8.6V32c0.9-0.7,1.6-1.8,1.6-3.1c0-0.2,0-0.4-0.1-0.5l4.2-4.2l1.5,1.5c0.6,0.6,1.4,0.9,2.2,0.9
			c0.6,0,1.1-0.2,1.6-0.4l1,1c0.2,0.2,0.4,0.2,0.6,0.2c0.2,0,0.4-0.1,0.6-0.2c0.3-0.3,0.3-0.8,0-1.1l-1-1c0.3-0.5,0.4-1,0.4-1.6
			c0-0.8-0.3-1.6-0.9-2.2l-3.1-3.1c-1.2-1.2-3.2-1.2-4.4,0c-0.5,0.5-0.8,1.2-0.9,2l-5,5C6.6,25,6.4,25,6.2,25
			c-2.2,0-3.9,1.8-3.9,3.9c0,1.3,0.6,2.4,1.6,3.1v9.4H2.3c-1.3,0-2.3,1.1-2.3,2.3v5.5C0,49.6,0.3,50,0.8,50h10.9
			c0.4,0,0.8-0.4,0.8-0.8v-5.5C12.5,42.5,11.4,41.4,10.2,41.4z M13.7,19.2c0.3-0.3,0.7-0.5,1.1-0.5s0.8,0.2,1.1,0.5l3.1,3.1
			c0.3,0.3,0.5,0.7,0.5,1.1c0,0.4-0.2,0.8-0.5,1.1c-0.6,0.6-1.6,0.6-2.2,0l-3.1-3.1c-0.3-0.3-0.5-0.7-0.5-1.1
			C13.3,19.9,13.4,19.5,13.7,19.2L13.7,19.2z M12.2,21.9c0.1,0.2,0.3,0.4,0.5,0.6l0.6,0.6l-3.7,3.7c-0.3-0.4-0.7-0.8-1.1-1.1
			L12.2,21.9z M6.2,26.6c1.3,0,2.3,1.1,2.3,2.3s-1.1,2.3-2.3,2.3s-2.3-1.1-2.3-2.3S5,26.6,6.2,26.6z M7,32.7v8.7H5.5v-8.7
			c0.3,0.1,0.5,0.1,0.8,0.1S6.8,32.8,7,32.7z M10.9,48.4H1.6v-4.7c0-0.4,0.4-0.8,0.8-0.8h7.8c0.4,0,0.8,0.4,0.8,0.8V48.4z"/>
		<path class="st0" d="M33.6,37.5c0-1.7-1.4-3.1-3.1-3.1H19.5c-1.7,0-3.1,1.4-3.1,3.1c-1.3,0-2.3,1.1-2.3,2.3v1.6
			c0,1.3,1.1,2.3,2.3,2.3h4.7v4.7h-2.4c-0.4,0-0.8,0.4-0.8,0.8s0.3,0.8,0.8,0.8h12.6c0.4,0,0.8-0.4,0.8-0.8s-0.4-0.8-0.8-0.8h-2.3
			v-4.7h4.7c1.3,0,2.3-1.1,2.3-2.3v-1.6C35.9,38.6,34.9,37.5,33.6,37.5z M19.5,35.9h10.9c0.9,0,1.6,0.7,1.6,1.6H18
			C18,36.6,18.7,35.9,19.5,35.9z M27.3,48.4h-4.7v-4.7h4.7V48.4z M34.4,41.4c0,0.4-0.4,0.8-0.8,0.8H16.4c-0.4,0-0.8-0.4-0.8-0.8
			v-1.6c0-0.4,0.4-0.8,0.8-0.8h17.2c0.4,0,0.8,0.4,0.8,0.8V41.4z"/>
		<path class="st0" d="M25,16.4c5.7,0,11.7-1.6,11.7-4.7V7.8c0-2.6-4.5-4.2-9.4-4.6V0.8C27.3,0.3,27,0,26.6,0h-3.1
			c-0.4,0-0.8,0.4-0.8,0.8v2.4c-4.9,0.4-9.4,2-9.4,4.6v3.9C13.3,14.8,19.3,16.4,25,16.4z M24.2,1.6h1.6v1.6c-0.3,0-0.5,0-0.8,0
			s-0.5,0-0.8,0V1.6z M14.8,7.8c0-1.3,4-3.1,10.2-3.1s10.2,1.9,10.2,3.1v1.5C33,7.8,28.9,7,25,7s-8,0.8-10.2,2.3V7.8z M25,8.6
			c6.2,0,10.2,1.9,10.2,3.1s-4,3.1-10.2,3.1S14.8,13,14.8,11.7S18.8,8.6,25,8.6z"/>
	</g>
</g>
</svg>
