<?xml version="1.0" encoding="utf-8"?>
<!-- Generator: Adobe Illustrator 25.4.1, SVG Export Plug-In . SVG Version: 6.00 Build 0)  -->
<svg version="1.1" id="圖層_1" xmlns="http://www.w3.org/2000/svg" xmlns:xlink="http://www.w3.org/1999/xlink" x="0px" y="0px"
	 viewBox="0 0 50 50" style="enable-background:new 0 0 50 50;" xml:space="preserve">
<style type="text/css">
	.st0{fill:#359B91;}
</style>
<path class="st0" d="M4.2,50C4.1,50,4.1,50,4.2,50c-1.3,0-2.4-1.6-2.5-3.8C1.5,45,1.3,43.8,1,42.5c-0.2-1.1-0.5-2.3-0.6-3.5
	c-0.5-5.3-0.8-11.5,1.1-17.7c0.1-0.4,0.2-0.7,0.3-1.1c0.8-2.3,1.7-4,2.7-5.4c2.8-3.7,7.7-5.3,14.9-4.9c2.5,0.1,6.6,0.7,9,1.2
	c2.2,0.5,4.6,0.7,6.9,0.5c3.4-0.2,7.4-1.2,9.5-2.4c1.3-0.7,2.8-0.5,3.9,0.5c1.1,1,1.4,2.4,0.8,3.7c-0.8,1.7-2.4,3.8-4.8,6.3
	c-0.7,0.7-1.6,1.6-2.4,2.5c-2.2,2.5-10.4,11.1-21,16.5c-2.1,1.1-4.3,1.8-6.4,2.2c-2.2,0.4-5.1,1.6-6.8,5.2c-0.1,0.1-0.1,0.3-0.1,0.4
	C7.7,47.6,7.1,50,4.2,50L4.2,50z M3.2,21.8c-1.8,6-1.5,12-1,17.1c0.1,1.1,0.3,2.2,0.6,3.3c0.3,1.3,0.5,2.6,0.6,3.9
	c0.1,1.4,0.6,2.2,0.8,2.2c1.5,0,1.9-0.9,2.3-2.2c0.1-0.3,0.1-0.5,0.2-0.7c2.1-4.4,5.9-5.7,8-6.1c1.9-0.4,3.9-1.1,5.9-2.1
	C31,32,38.9,23.6,41.1,21.1c0.9-1,1.8-1.9,2.5-2.6c2.3-2.3,3.8-4.2,4.5-5.8c0.3-0.8,0-1.5-0.4-1.8c-0.4-0.4-1.2-0.7-1.9-0.2
	c-2.8,1.5-7.1,2.4-10.2,2.6c-2.5,0.2-5,0-7.4-0.6c-2.3-0.5-6.3-1.1-8.7-1.2c-6.7-0.4-11,1-13.5,4.3c-1,1.3-1.8,2.9-2.5,4.9
	C3.4,21.1,3.3,21.4,3.2,21.8L3.2,21.8z"/>
<path class="st0" d="M5.8,41.7c-0.1,0-0.1,0-0.2,0C5.2,41.6,5,41.3,4.9,41c0-0.1,0-0.2-0.1-0.4c-0.4-1.7-1.5-6.9-0.8-10.8
	c0.1-0.5,0.5-0.7,1-0.7c0.5,0.1,0.7,0.5,0.7,1c-0.4,2.2-0.3,5.2,0.5,9c2.9-2.7,6.3-3.6,7.7-3.9c1.7-0.3,3.4-1.1,4.8-1.8
	c0.4-0.2,0.9,0,1.1,0.4c0.2,0.4,0,0.9-0.4,1.1c-1.5,0.7-3.4,1.6-5.2,2c-1.4,0.3-5,1.2-7.8,4.5C6.2,41.6,6,41.7,5.8,41.7L5.8,41.7z"
	/>
<path class="st0" d="M5.8,24.2c-0.1,0-0.2,0-0.3,0C5.1,24,4.8,23.5,5,23.1c0.6-1.8,2.2-4.6,3-5.7c1.7-2.2,4.6-3.2,9.5-3.2
	c0.5,0,0.8,0.4,0.8,0.8s-0.4,0.8-0.8,0.8c-4.3,0-6.8,0.8-8.1,2.5c-0.7,1-2.2,3.6-2.7,5.3C6.4,24,6.1,24.2,5.8,24.2z"/>
<path class="st0" d="M26.6,9.2c-0.5,0-0.8-0.4-0.8-0.8c0-2.3-1.9-4.2-4.2-4.2c-0.5,0-0.8-0.4-0.8-0.8s0.4-0.8,0.8-0.8
	c3.2,0,5.8,2.6,5.8,5.8C27.4,8.8,27.1,9.2,26.6,9.2L26.6,9.2z"/>
<path class="st0" d="M29.9,9.2c-0.5,0-0.8-0.4-0.8-0.8s0.4-0.8,0.8-0.8c2.3,0,4.2-1.9,4.2-4.2c0-0.5,0.4-0.8,0.8-0.8
	s0.8,0.4,0.8,0.8C35.8,6.5,33.1,9.2,29.9,9.2z"/>
<path class="st0" d="M29.9,33.3c-0.2,0-0.4-0.1-0.6-0.2c-0.3-0.3-0.4-0.8-0.1-1.2c6.1-6.9,1.8-12.9,1.6-13.1
	c-0.3-0.4-0.2-0.9,0.2-1.2c0.4-0.3,0.9-0.2,1.2,0.2c0.1,0.1,5.3,7.3-1.7,15.2C30.4,33.2,30.2,33.3,29.9,33.3L29.9,33.3z"/>
<path class="st0" d="M29.9,13c0,0-0.1,0-0.1,0c-0.5-0.1-1.1-0.2-1.6-0.3c-0.5-0.1-1.1-0.2-1.7-0.3c-0.4-0.1-0.7-0.4-0.7-0.8V2.5
	c0-1.4,1.1-2.5,2.5-2.5s2.5,1.1,2.5,2.5v9.7c0,0.2-0.1,0.5-0.3,0.6C30.3,13,30.1,13,29.9,13z M28.5,11.1c0.2,0,0.4,0.1,0.6,0.1V2.5
	c0-0.5-0.4-0.8-0.8-0.8S27.4,2,27.4,2.5v8.4C27.8,10.9,28.2,11,28.5,11.1z"/>
<path class="st0" d="M24.1,50c-1.4,0-2.5-1.1-2.5-2.5V37.3c0-0.3,0.2-0.6,0.4-0.7c1.1-0.6,2.2-1.2,3.3-1.9c0.3-0.2,0.6-0.2,0.8,0
	c0.3,0.1,0.4,0.4,0.4,0.7v12.2C26.6,48.9,25.5,50,24.1,50L24.1,50z M23.3,37.7v9.8c0,0.5,0.4,0.8,0.8,0.8c0.5,0,0.8-0.4,0.8-0.8
	V36.8C24.4,37.1,23.8,37.4,23.3,37.7z"/>
<path class="st0" d="M11.5,12.2c-0.3,0-0.5-0.1-0.7-0.4C10.1,10.7,8.8,10,7.4,10H6.6c-1.4,0-2.5-1.1-2.5-2.5S5.2,5,6.6,5h0.8
	c3.6,0,6.9,2.1,8.3,5.4c0.1,0.2,0.1,0.5,0,0.8c-0.1,0.2-0.4,0.4-0.6,0.4c-1.2,0.1-2.3,0.3-3.3,0.6C11.7,12.2,11.6,12.2,11.5,12.2z
	 M6.6,6.7C6.1,6.7,5.8,7,5.8,7.5c0,0.5,0.4,0.8,0.8,0.8h0.8c1.7,0,3.3,0.8,4.4,2.1c0.6-0.1,1.2-0.3,1.8-0.3C12.3,8,10,6.7,7.4,6.7
	H6.6z"/>
<path class="st0" d="M39.1,39.2h-1.7c-3.9,0-7.4-2.5-8.7-6.2c-0.1-0.3,0-0.7,0.3-0.9c0.9-0.7,1.9-1.4,2.9-2.2
	c0.2-0.2,0.6-0.2,0.8-0.1c0.3,0.1,0.5,0.4,0.5,0.7c0.2,2.2,2,3.8,4.1,3.8h1.7c1.4,0,2.5,1.1,2.5,2.5S40.5,39.2,39.1,39.2L39.1,39.2z
	 M30.6,33c1.2,2.7,3.9,4.5,6.9,4.5h1.7c0.5,0,0.8-0.4,0.8-0.8c0-0.5-0.4-0.8-0.8-0.8h-1.7c-2.5,0-4.7-1.6-5.5-3.9
	C31.5,32.3,31,32.7,30.6,33z"/>
</svg>
