<?xml version="1.0" encoding="utf-8"?>
<!-- Generator: Adobe Illustrator 25.4.1, SVG Export Plug-In . SVG Version: 6.00 Build 0)  -->
<svg version="1.1" id="nervous" xmlns="http://www.w3.org/2000/svg" xmlns:xlink="http://www.w3.org/1999/xlink" x="0px" y="0px"
	 viewBox="0 0 50 50" style="enable-background:new 0 0 50 50;" xml:space="preserve">
<style type="text/css">
	.st0{fill:#359B91;}
</style>
<g>
	<circle class="st0" cx="43.3" cy="9.2" r="0.8"/>
	<path class="st0" d="M34.7,17.8c0.4,0.2,0.8,0.3,1.2,0.3c0.2,0,0.5,0,0.7-0.1c0.7-0.2,1.2-0.6,1.5-1.2c0.3-0.6,0.4-1.3,0.2-2
		c-0.2-0.7-0.6-1.2-1.2-1.5c-0.6-0.3-1.3-0.4-2-0.2c-0.7,0.2-1.2,0.6-1.5,1.2c-0.3,0.6-0.4,1.3-0.2,2C33.7,16.9,34.1,17.4,34.7,17.8
		L34.7,17.8z M35.2,15.1c0.1-0.2,0.3-0.4,0.5-0.4c0.1,0,0.2,0,0.3,0c0.1,0,0.3,0,0.4,0.1c0.2,0.1,0.4,0.3,0.4,0.5s0,0.5-0.1,0.7
		c-0.1,0.2-0.3,0.4-0.5,0.4c-0.2,0.1-0.5,0-0.7-0.1c-0.2-0.1-0.4-0.3-0.4-0.5S35,15.3,35.2,15.1L35.2,15.1z"/>
	<path class="st0" d="M34.4,8.2c0.2,0.2,0.4,0.2,0.6,0.2c0.2,0,0.4-0.1,0.6-0.2l0.6-0.6l0.6,0.6c0.2,0.2,0.4,0.2,0.6,0.2
		c0.2,0,0.4-0.1,0.6-0.2c0.3-0.3,0.3-0.9,0-1.2l-0.6-0.6l0.6-0.6c0.3-0.3,0.3-0.9,0-1.2s-0.9-0.3-1.2,0l-0.6,0.6l-0.6-0.6
		c-0.3-0.3-0.9-0.3-1.2,0s-0.3,0.9,0,1.2l0.6,0.6L34.4,7C34.1,7.3,34.1,7.9,34.4,8.2z"/>
	<path class="st0" d="M46.7,33.3c-0.6,0-1.1,0.3-1.4,0.8h-1.1c-2.9,0-5.4,2.2-5.8,5h-2.6v-5c0-0.9,0.7-1.7,1.7-1.7
		c1.8,0,3.3-1.5,3.3-3.3v-2.7c0.5-0.3,0.8-0.8,0.8-1.4c0-0.9-0.7-1.7-1.7-1.7c-0.9,0-1.7,0.7-1.7,1.7c0,0.6,0.3,1.1,0.8,1.4v2.7
		c0,0.9-0.7,1.7-1.7,1.7c-1.8,0-3.3,1.5-3.3,3.3v5h-1.8c-0.3-1-1.3-1.7-2.3-1.7H10.8c-0.5,0-0.8-0.4-0.8-0.8s0.4-0.8,0.8-0.8h8.6
		c2.1,0,4-1.1,5-2.9c1.1-1.8,1.1-3.9,0.1-5.8L22.2,23c-0.5-0.9-1.5-1.4-2.5-1.3c-0.2-1.4-0.3-3.9,1.1-5.4c0.7-0.8,1.8-1.2,3.2-1.4
		c0.3,0.5,1,1.6,1,2.6c0,0.5,0.4,0.8,0.8,0.8s0.8-0.4,0.8-0.8c0-1-0.4-1.9-0.7-2.6c0.5,0,0.9,0.1,1.4,0.1c0.5,0.1,0.9-0.3,0.9-0.7
		c0.1-0.5-0.3-0.9-0.7-0.9c-1.1-0.2-2-0.2-2.9-0.2c0.6-1.2,1.8-2.8,3.5-2.4c0.4,0.1,0.9-0.2,1-0.6c0.1-0.4-0.2-0.9-0.6-1
		c-3.4-0.9-5.3,2.9-5.8,4.3c-1,0.3-1.9,0.7-2.6,1.3c-0.5-0.5-1-1.1-1-1.6c0-0.1,0-0.4,0.5-0.7c1.2-0.8,2.4-2,3.3-3.3l3.3-1.7
		c0.4-0.2,0.6-0.7,0.4-1.1c-0.2-0.4-0.7-0.6-1.1-0.4L24,6.6c0.3-1.1,0.4-2.3,0.1-3.5c-0.1-0.4-0.6-0.7-1-0.6c-0.4,0.1-0.7,0.6-0.6,1
		c0.1,0.3,0.1,0.6,0.1,0.8c-1.2-1.2-3-1.7-4.2-1.9c-0.5-0.1-0.9,0.3-0.9,0.7c-0.1,0.5,0.3,0.9,0.7,0.9c0.2,0,4,0.5,3.8,3
		c-0.7,1.5-2,2.9-3.4,3.8c-0.3,0.2-0.5,0.4-0.7,0.6l-3.9-0.7c-0.1-0.6-0.3-1.1-0.6-1.7c0.7-1.1,0.7-2.4,0.7-2.6
		c0-0.5-0.4-0.8-0.8-0.8c0,0,0,0,0,0c-0.5,0-0.8,0.4-0.8,0.8c0,0.2,0,0.7-0.2,1.1c0,0,0,0-0.1-0.1c-1.1-1.1-1.9-2.1-2.5-3.1
		c1.1-1.4,1.8-3.5,1.8-3.6c0.1-0.4-0.1-0.9-0.5-1c-0.4-0.1-0.9,0.1-1,0.5c0,0-0.4,1.3-1.1,2.4C8.4,1.7,8.3,0.8,8.3,0.8
		C8.3,0.4,8,0,7.5,0C7,0,6.7,0.4,6.7,0.8c0,0.1,0,2,1.7,4.6c-1.4,0.1-3,0-3.8-0.4C4.1,4.9,3.6,5,3.4,5.5c-0.2,0.4,0,0.9,0.4,1.1
		C4.7,7,6.1,7.2,7.4,7.2c0.8,0,1.6-0.1,2.1-0.1c0.5,0.6,1,1.2,1.7,1.9c1,1,1.5,2.1,1.4,3.1c-0.1,1.5-1.4,2.6-1.9,3
		c-1-0.7-2.2-1-3.8-1.1l-1-2.5c-0.2-0.4-0.7-0.6-1.1-0.5c-0.4,0.2-0.6,0.7-0.5,1.1l0.8,2c-0.6,0-1.2,0.1-1.8,0.2
		c-0.5,0.1-0.8,0.5-0.7,1c0.1,0.5,0.5,0.8,1,0.7c3.1-0.6,5.3-0.3,6.6,0.8c0.8,0.7,1,1.6,1,2.1c-0.6,0.3-1.1,0.7-1.5,1.1
		c-0.2,0.2-0.4,0.3-0.6,0.5c0-0.1,0-0.1-0.1-0.2c-0.3-0.8-1-1.4-2.1-1.7c-0.4-0.1-0.9,0.1-1.1,0.5C5.7,19.3,6,19.8,6.4,20
		c0.6,0.2,1,0.5,1.1,0.7c0.1,0.1,0.1,0.3,0,0.4c-0.6,0.2-1.4,0.3-2.4,0.4c-0.7-0.1-1.5-1.6-1.8-2.6c-0.1-0.4-0.6-0.7-1-0.5
		c-0.4,0.1-0.7,0.6-0.5,1c0.1,0.3,0.4,1.3,1.1,2.2c-0.1,0-0.2,0-0.3,0c-0.5,0-0.8,0.4-0.8,0.8s0.4,0.8,0.8,0.8
		c1.5,0,2.6-0.1,3.6-0.2c-0.4,0.6-1,1.4-1.7,2.1c-0.3,0.3-0.3,0.9,0,1.2c0.2,0.2,0.4,0.2,0.6,0.2c0.2,0,0.4-0.1,0.6-0.3
		c0.5-0.6,2.1-2.4,2.6-3.8c1.3-0.4,1.9-1,2.5-1.6c0.6-0.5,1-0.9,1.9-1.1c2-0.5,4.2,1.9,5.1,3c-0.1,0.2-0.2,0.3-0.2,0.5
		c-0.2,0.6-0.1,1.3,0.2,1.9l2.3,4.2c0.2,0.3,0.1,0.6,0,0.8c-0.1,0.2-0.3,0.4-0.7,0.4h-8.6c-3.2,0-5.8,2.6-5.8,5.8s2.6,5.8,5.8,5.8
		H30c1.1,0,2-0.7,2.3-1.7h3.5v2.4c0,2.4-1.9,4.3-4.3,4.3h-1.7c-0.3-0.5-0.8-0.8-1.4-0.8c-0.9,0-1.7,0.7-1.7,1.7s0.7,1.7,1.7,1.7
		c0.6,0,1.1-0.3,1.4-0.8h1.7c3.3,0,6-2.7,6-6v-2.4h4.2c0.9,0,1.7,0.7,1.7,1.7c0,0.9-0.7,1.7-1.7,1.7h-0.2c-0.3-0.5-0.8-0.8-1.4-0.8
		c-0.9,0-1.7,0.7-1.7,1.7c0,0.9,0.7,1.7,1.7,1.7c0.6,0,1.1-0.3,1.4-0.8h0.2c1.8,0,3.3-1.5,3.3-3.3c0-1.8-1.5-3.3-3.3-3.3h-1.6
		c0.4-1.9,2.1-3.3,4.1-3.3h1.1c0.3,0.5,0.8,0.8,1.4,0.8c0.9,0,1.7-0.7,1.7-1.7S47.6,33.3,46.7,33.3L46.7,33.3z M12.7,18.3
		c-0.1-0.6-0.4-1.4-0.9-2.2c0.7-0.6,1.9-1.8,2.3-3.5l3.4,0.6c0,1.1,0.9,2.2,1.6,2.8c-0.9,1.4-1.1,3.1-1.1,4.6
		C16.5,19.2,14.7,18,12.7,18.3L12.7,18.3z M30,40.8H10.8c-2.3,0-4.2-1.9-4.2-4.2s1.9-4.2,4.2-4.2h8.6c0.9,0,1.7-0.5,2.1-1.2
		c0.5-0.8,0.5-1.7,0-2.5l-2.3-4.2c-0.1-0.2-0.1-0.4-0.1-0.6c0.1-0.2,0.2-0.4,0.4-0.5c0.4-0.2,0.9-0.1,1.1,0.3L23,28
		c0.7,1.3,0.7,2.8-0.1,4.1c-0.8,1.3-2.1,2-3.6,2h-8.6c-1.4,0-2.5,1.1-2.5,2.5s1.1,2.5,2.5,2.5H30c0.5,0,0.8,0.4,0.8,0.8
		C30.8,40.5,30.5,40.8,30,40.8L30,40.8z"/>
</g>
</svg>
