<?xml version="1.0" encoding="utf-8"?>
<!-- Generator: Adobe Illustrator 25.4.1, SVG Export Plug-In . SVG Version: 6.00 Build 0)  -->
<svg version="1.1" id="圖層_1" xmlns="http://www.w3.org/2000/svg" xmlns:xlink="http://www.w3.org/1999/xlink" x="0px" y="0px"
	 viewBox="0 0 50 50" style="enable-background:new 0 0 50 50;" xml:space="preserve">
<style type="text/css">
	.st0{fill:#FFFFFF;}
</style>
<path class="st0" d="M47.4,21.6c-6.6-6.4-13-12.9-18.9-18.7c-0.1-0.1-0.2-0.2-0.2-0.2C27.5,1.9,26.7,1,25.1,1c-2,0-2.9,0.9-3.4,1.4
	L2.2,21.8c-0.9,0.9-1.3,1.8-1.2,2.9V25c0,0.3,0,0.5,0.1,0.8c0.5,2.4,2.2,3.8,4.4,3.8c0.3,0,0.5,0,0.6,0.1v13.6
	c0,3.6,2.2,5.7,5.8,5.7h6.7c1.6,0,2.1-0.5,2.1-2.1v-7.4c0-2.9-0.1-4.3,0.6-4.9c0.7-0.7,2.3-0.7,5.2-0.6c0.1,0,0.1,0,0.2,0h0.1
	c2,0,2.8,0.8,2.8,2.8v10.2c0,1.4,0.5,2,1.9,2h7c3.4-0.1,5.6-2.3,5.6-5.6V30.2c0-0.3,0-0.5,0.1-0.7c0.1-0.1,0.3-0.1,0.6-0.1
	c1.2,0,2.3-0.5,3.2-1.4c0.8-0.9,1.3-2.1,1.3-3.2C48.9,23.8,48.4,22.6,47.4,21.6z M45.9,25.7c-0.4,0.9-1.2,1-2,1c-2.9,0-3,0.1-3,3
	v13.7c0,1.9-0.9,2.8-2.8,2.8h-5c-0.7,0-0.9-0.1-0.9-0.9v-8.6c0-3.4-2.2-5.4-5.5-5.4h-4.1c-3,0-5.2,2.3-5.2,5.2v8.9
	c0,0.6-0.1,0.9-0.8,0.9c-1.7-0.1-3.4,0-5.1,0c-1.9,0-2.8-0.9-2.8-2.8V28.7c0-1.4-0.5-1.8-1.9-1.9H5.4c-0.7,0-1.2-0.4-1.5-1
	c-0.2-0.6-0.2-1.2,0.3-1.7c0.1-0.1,0.3-0.3,0.4-0.4C10.9,17.4,17.2,11.2,23.4,5c1.2-1.2,1.9-1.2,3.2,0c6.3,6.2,12.4,12.4,18.7,18.6
	C45.8,24.3,46.3,24.9,45.9,25.7z"/>
</svg>
