<?xml version="1.0" encoding="utf-8"?>
<!-- Generator: Adobe Illustrator 25.4.1, SVG Export Plug-In . SVG Version: 6.00 Build 0)  -->
<svg version="1.1" id="圖層_1" xmlns="http://www.w3.org/2000/svg" xmlns:xlink="http://www.w3.org/1999/xlink" x="0px" y="0px"
	 viewBox="0 0 50 50" style="enable-background:new 0 0 50 50;" xml:space="preserve">
<style type="text/css">
	.st0{fill:#359B91;}
</style>
<g id="outline">
	<path class="st0" d="M34.6,30.8c0-4-2.3-6.7-5.8-6.7c-0.3,0-0.7,0-1,0.1c-0.2-0.7-0.5-1.4-1-2c0,0,0.1-0.1,0.1-0.1
		c0.4-0.2,0.7-0.5,0.9-0.9c1.5-2.2-0.5-5.6-1.7-7.4c1.1-0.2,1.8-1.2,1.8-2.3c0-2.5-2.4-2.5-5-2.5c-1-0.1-1.9,0.4-2.5,1.2
		c-0.6,1-0.5,2.4-0.2,3.7c-0.8-0.4-1.8-0.4-2.6-0.1c-2.3,0.8-3.9,4.3-3.9,8.5c0,5.5,6.5,8.9,8.4,9.7c0.2,1.5,1.3,5.3,6.6,5.3
		C32.3,37.5,34.6,34.8,34.6,30.8z M28.8,35.8c-4.8,0-5-3.7-5-4.2c0-0.3-0.2-0.6-0.5-0.8c-0.1,0-7.8-3.2-7.8-8.4c0-3.4,1.2-6.4,2.8-7
		c0.2-0.1,0.4-0.1,0.5-0.1c1,0,2,0.9,2.7,1.7c0.3,0.4,0.8,0.4,1.2,0.1c0.3-0.2,0.4-0.7,0.2-1c-0.8-1.5-1.6-4.1-1-5
		c0.1-0.1,0.3-0.4,1.1-0.4c2.8,0,3.3,0.1,3.3,0.8c0,0.8-1.7,0.8-1.7,0.8c-0.5,0-0.8,0.4-0.8,0.8c0,0.2,0.1,0.4,0.2,0.5
		c1,1.2,3.5,4.9,2.4,6.5c-0.1,0.2-0.3,0.3-0.5,0.5c-0.1,0.1-0.3,0.1-0.4,0.2c-0.1,0-0.2,0.1-0.4,0.1c-1.5,0-3-0.3-4.3-1l-0.7,1.5
		c0.8,0.4,1.5,0.7,2.4,0.9c-0.8,0.9-1.4,1.9-1.9,3l1.5,0.7c1.3-2.5,2.1-3.2,2.5-3.4c0,0,0.1,0,0.1,0c0.1,0,0.2,0,0.3,0
		c0.6,0.2,1.1,1.4,1.3,2.3v0.1c0,0.5,0.4,0.8,0.8,0.8c0.1,0,0.2,0,0.2,0c0.5-0.1,0.9-0.2,1.4-0.2c3.1,0,4.2,2.7,4.2,5
		S31.9,35.8,28.8,35.8z"/>
	<path class="st0" d="M36.3,0H17.1c-0.3,0-0.6,0.2-0.7,0.4C15.4,2,14.3,3.6,13,5c-3.3,4-7,8.4-7.5,16.7c-1.6,0.1-2.8,1.6-2.6,3.2
		C3,26.5,4.4,27.6,6,27.5c1.9,6.9,8.3,11.1,12.2,13.7c1.3,0.9,3,2,3.1,2.4c0.5,1.8,0.8,3.7,0.8,5.6c0,0.5,0.4,0.8,0.8,0.8h15.8
		c0.5,0,0.8-0.4,0.8-0.8v-4.2c3.7-0.5,7.5-4.2,7.5-9.1c0-4.6-3.4-9.4-5.7-12.5l-0.3-0.5c-4-5.6-4-13-4-17v-5C37.1,0.4,36.8,0,36.3,0
		z M29.8,48.3h-1.6l1.5-7.3c0.1-0.5-0.2-0.9-0.6-1c0,0-0.1,0-0.1,0c-1.6-0.2-3.2-0.7-4.6-1.6c-1.3-0.7-2.4-1.7-3.2-3
		c-0.7-1.1-1.5-2-2.6-2.8c-2.4-1.6-5.6-5.6-6.3-8.7c-0.8-3.1,0.8-7.8,4-11.8c3.2-4,5.6-4.5,7.8-4.7c1.5-0.2,3.1,0.2,4.2,1.2
		c1.9,1.9,1.6,5.3,1.6,5.4c0,0.8,0.1,8.1,3.8,9.9c1.4,0.7,2.6,2.8,3.1,5.3c0.6,3,0,5.8-1.6,7.5c-0.8,1-1.8,1.8-3,2.3
		c-0.3,0.1-0.5,0.3-0.5,0.6L29.8,48.3z M39.8,23.8l0.3,0.5c2.1,3,5.3,7.4,5.3,11.5c0,4.2-3.6,7.5-6.7,7.5h-4.2V45H38v3.3h-6.5
		l1.4-7.7c1.2-0.6,2.3-1.5,3.2-2.5c2-2.2,2.7-5.4,2-9c-0.6-3-2.1-5.6-4-6.5c-2.4-1.2-2.9-6.5-2.9-8.3c0-0.2,0.4-4.2-2-6.7
		c-1.5-1.4-3.5-2-5.5-1.7c-2.4,0.2-5.3,0.8-8.9,5.3c-3.5,4.4-5.2,9.6-4.3,13.2c0.9,3.6,4.3,7.9,7,9.7c0.9,0.6,1.6,1.4,2.1,2.3
		c0.9,1.5,2.2,2.8,3.8,3.6c1.4,0.8,2.8,1.3,4.4,1.6l-1.4,6.8h-2.7c-0.1-1.8-0.3-3.6-0.9-5.3c-0.3-1-1.6-1.8-3.8-3.3
		C15.1,37.1,8.9,33,7.5,26.3c-0.1-0.4-0.5-0.7-1-0.6c0,0-0.1,0-0.1,0C5.7,26,5,25.7,4.7,25c-0.1-0.1-0.1-0.3-0.1-0.5
		c0-0.7,0.5-1.2,1.2-1.3c0.1,0,0.2,0,0.3,0c0.5,0.1,0.9-0.2,1-0.6c0,0,0-0.1,0-0.2C7.4,14.3,11,9.9,14.3,6.1
		c1.2-1.4,2.3-2.8,3.3-4.4h17.9v4.2C35.5,10,35.5,17.8,39.8,23.8z"/>
</g>
</svg>
