<?xml version="1.0" encoding="utf-8"?>
<!-- Generator: Adobe Illustrator 25.4.1, SVG Export Plug-In . SVG Version: 6.00 Build 0)  -->
<svg version="1.1" id="圖層_1" xmlns="http://www.w3.org/2000/svg" xmlns:xlink="http://www.w3.org/1999/xlink" x="0px" y="0px"
	 viewBox="0 0 50 50" style="enable-background:new 0 0 50 50;" xml:space="preserve">
<style type="text/css">
	.st0{fill:#359B91;}
</style>
<path class="st0" d="M4.5,18.3C4.6,22,5.3,25.6,6.6,29c0.6,1.6,1.3,3.2,2.1,4.7c0.4,1,5.9,16.3,20,16.3c4.5,0,8.3-3,10.8-8.6
	c2.1-4.6,3.3-10.9,3.3-17.2v-6.7c0-4.1-3.4-7.5-7.5-7.5h-0.2c2.6-1.2,5.5-1.8,8.4-1.7c0.1,0,0.1,0,0.1,0h0.1c1.4,0,2.5-1.5,2.5-3.3
	s-1.1-3.3-2.5-3.3c-0.1,0-0.2,0-0.3,0c0,0,0,0,0,0C39.5,2.1,35.8,2.8,32.2,4c-1.9-1.6-4.9-2.5-6.9-2.9c-0.1-0.2-0.2-0.4-0.3-0.5
	C24.6,0.2,24.2,0,23.7,0h-2.7c-0.6,0-1.2,0.2-1.8,0.5c-1.6,1-2.7,3-3.5,5c-0.2-1.1-0.3-2.2-0.3-3.1C15.3,1,14.2,0,12.9,0h-1.6
	C10.6,0,10,0.3,9.5,0.8C9,1.3,8.8,2,8.8,2.7c0.2,3.1,0,6.2-0.6,9.2C5.9,13.3,4.5,15.7,4.5,18.3z M41.2,17.5v5.8
	c-4.7-0.2-5.7-2.3-6.7-4.5c-0.3-0.6-0.6-1.2-1-1.8c-0.8-1.2-1.7-2.2-2.8-3.1c0.5-0.9,1.2-1.6,1.9-2.3h2.7
	C38.6,11.7,41.2,14.3,41.2,17.5z M43.6,6.7c-0.3,0-0.8-0.7-0.8-1.7c0-1,0.5-1.6,0.8-1.7C44,3.3,44.5,4,44.5,5
	C44.5,6,44,6.7,43.6,6.7z M20.1,1.9c0.3-0.2,0.6-0.2,0.9-0.2l2.7,0c-0.9,0.9-1.7,2-2.1,3.2l0,0c-0.8,2.4-0.9,5-0.2,7.4
	c0.1,0.2,0.1,0.4,0.2,0.6l0,0c0.2,0.5,0.3,1.1,0.6,1.6c0.1,0.3,0.4,0.5,0.8,0.5c0.1,0,0.2,0,0.3-0.1c0.4-0.2,0.6-0.7,0.4-1.1
	c-0.2-0.4-0.3-0.8-0.4-1.2c0.7-1.6,1.8-2.9,3.3-3.9c0.5-0.3,0.7-0.8,0.7-1.4c0-0.5-0.2-1-0.7-1.4c-0.9-0.7-2-1.2-3-1.5
	c0.4-0.6,0.8-1.2,1.3-1.7c0,0,0,0,0.1-0.1c0,0,0,0,0,0c1.8,0.4,4.5,1.2,6.1,2.5c0.3,0.3,0.7,0.4,1.1,0.4c0.2,0,0.4,0,0.6-0.1
	c2.8-0.9,5.7-1.6,8.6-1.9c-0.1,0.4-0.2,0.9-0.2,1.4c0,0.6,0.1,1.2,0.3,1.7c-2.5,0.2-6.6,0.9-9.8,3.5c0,0,0,0-0.1,0.1
	c-1.2,1-2.1,2.2-2.8,3.6l0,0v0l0,0c-0.4,0.8-0.8,1.7-1,2.6c-0.1,0.4,0.2,0.9,0.6,1c0.4,0.1,0.9-0.2,1-0.6c0.1-0.5,0.3-0.9,0.5-1.4
	c0.9,0.7,1.6,1.6,2.2,2.5c0.3,0.5,0.6,1,0.8,1.6c1.1,2.3,2.4,5.2,8.2,5.4C41,36.7,36.7,48.3,28.7,48.3c-5.5,0-10.3-2.5-14.2-7.5
	c-1.8-2.3-3.2-4.8-4.2-7.6c0-5.1,1.3-18,6.7-20.4c0.1,0.1,0.2,0.2,0.3,0.3c0.2,0.2,0.5,0.3,0.8,0.2s0.5-0.3,0.6-0.6
	c0.1-0.3,0-0.6-0.2-0.8c-0.2-0.2-0.3-0.4-0.5-0.6c0,0,0-0.1-0.1-0.1c-0.5-0.8-1-1.6-1.3-2.4C17,6.7,18,3.2,20.1,1.9z M22.6,10.2
	c-0.2-1.4-0.1-2.8,0.2-4.1c1,0.3,1.9,0.7,2.7,1.3C24.4,8.1,23.4,9.1,22.6,10.2z M10.7,1.9c0.2-0.2,0.4-0.3,0.6-0.3h1.6
	c0.4,0,0.8,0.3,0.8,0.8c0.1,2.2,0.5,4.5,1.1,6.6c0,0,0,0,0,0.1c0,0,0,0,0,0.1l0,0c0.3,0.8,0.7,1.5,1.1,2.2c-5.4,2.8-6.8,13-7.2,18.5
	c-0.2-0.5-0.4-1-0.6-1.5c-1.2-3.2-1.9-6.6-2-10.1c0-2.2,1.2-4.2,3.1-5.2c0,0,0,0,0,0c0.4-0.2,0.8-0.4,1.2-0.5
	c0.3-0.1,0.5-0.3,0.6-0.6c0.1-0.3,0-0.6-0.2-0.8c-0.2-0.2-0.5-0.3-0.8-0.2c0,0-0.1,0-0.1,0c0.5-2.8,0.6-5.7,0.4-8.5
	C10.5,2.3,10.6,2.1,10.7,1.9L10.7,1.9z"/>
<path class="st0" d="M37.6,34.1c0.1,0,0.1,0,0.2,0c0.4,0,0.7-0.3,0.8-0.7c0.1-0.3,0.1-0.6,0.2-0.9c0.1-0.4-0.2-0.9-0.7-1
	c-0.4-0.1-0.9,0.2-1,0.7c-0.1,0.3-0.1,0.5-0.2,0.8c0,0.2,0,0.4,0.1,0.6S37.4,34.1,37.6,34.1z"/>
<path class="st0" d="M28.7,46.7c3.8,0,7-3.5,9-9.7c0.1-0.4-0.1-0.9-0.5-1s-0.9,0.1-1,0.5c-1.7,5.5-4.4,8.6-7.4,8.6
	c-0.5,0-0.8,0.4-0.8,0.8C27.9,46.3,28.2,46.7,28.7,46.7z"/>
</svg>
