<?xml version="1.0" encoding="utf-8"?>
<!-- Generator: Adobe Illustrator 26.0.0, SVG Export Plug-In . SVG Version: 6.00 Build 0)  -->
<svg version="1.1" id="Hospital" xmlns="http://www.w3.org/2000/svg" xmlns:xlink="http://www.w3.org/1999/xlink" x="0px" y="0px"
	 viewBox="0 0 23 24" style="enable-background:new 0 0 23 24;" xml:space="preserve">
<path id="路径_12140" d="M12.4,9.2h0.9c0.5,0,0.9-0.5,0.9-1c0-0.5-0.4-0.8-0.9-0.9h-0.9V6.4c0-0.5-0.3-0.9-0.8-0.9
	c-0.5,0-0.9,0.3-0.9,0.8c0,0,0,0.1,0,0.1v0.9H9.7c-0.5,0-0.9,0.5-0.9,1c0,0.5,0.4,0.8,0.9,0.9h0.9v0.9c0,0.5,0.3,0.9,0.8,0.9
	c0.5,0,0.9-0.3,0.9-0.8c0,0,0-0.1,0-0.1V9.2z"/>
<path id="路径_12141" d="M22.1,22.2h-1.8V0.9C20.4,0.4,20,0,19.5,0H3.5C3,0,2.6,0.4,2.7,0.9v21.2H0.9c-0.5,0-0.9,0.5-0.9,1
	C0,23.6,0.4,24,0.9,24h21.2c0.5,0,0.9-0.5,0.9-1C23,22.6,22.6,22.2,22.1,22.2z M14.2,17.5H8.9v-0.9h5.3L14.2,17.5z M8.9,19.3h1.8
	v2.8H8.9L8.9,19.3z M12.4,22.2v-2.8h1.8v2.8H12.4z M15.9,22.2v-6.6c0-0.5-0.4-0.9-0.9-0.9H8c-0.5,0-0.9,0.4-0.9,0.9v6.6H4.4V1.9
	h14.2v20.3H15.9z"/>
</svg>
