<?xml version="1.0" encoding="utf-8"?>
<!-- Generator: Adobe Illustrator 25.4.1, SVG Export Plug-In . SVG Version: 6.00 Build 0)  -->
<svg version="1.1" id="圖層_1" xmlns="http://www.w3.org/2000/svg" xmlns:xlink="http://www.w3.org/1999/xlink" x="0px" y="0px"
	 viewBox="0 0 131.5 44.8" style="enable-background:new 0 0 131.5 44.8;" xml:space="preserve">
<style type="text/css">
	.st0{fill:url(#SVGID_1_);}
	.st1{fill:#176CA5;}
</style>
<g>
	<linearGradient id="SVGID_1_" gradientUnits="userSpaceOnUse" x1="65.7707" y1="2.0903" x2="65.7707" y2="26.5093">
		<stop  offset="0" style="stop-color:#187FC3"/>
		<stop  offset="0.2756" style="stop-color:#1B85C8"/>
		<stop  offset="0.6271" style="stop-color:#2394D8"/>
		<stop  offset="1" style="stop-color:#30ADF0"/>
	</linearGradient>
	<path class="st0" d="M20.3,2.5H5.2c-1.1,0-1.8,0.7-1.8,1.9c0,1.1,0.7,1.8,1.8,1.8h5V24c0,1.6,0.9,2.5,2.5,2.5
		c1.6,0,2.5-0.9,2.5-2.5V6.2h5c1.1,0,1.8-0.7,1.8-1.8C22.1,3.2,21.4,2.5,20.3,2.5z M35.7,4.8C35.1,3,33.8,2.1,32,2.1
		c-1.8,0-3.1,0.9-3.7,2.7l-6.4,18.6c-0.2,0.7-0.2,1.3,0,1.8c0.3,0.5,0.8,0.9,1.4,1.1c0.3,0.1,0.6,0.1,0.9,0.1c1,0,1.7-0.6,2-1.7
		l1.9-5.9h7.3l1.8,5.7c0.2,0.7,0.6,1.3,1.2,1.6c0.6,0.3,1.3,0.3,2.1,0.1c0.7-0.2,1.1-0.6,1.4-1.1c0.3-0.6,0.3-1.3,0-2.1
		C40.3,17.9,38,11.2,35.7,4.8z M29.4,15.3L32,7.4l2.5,7.9H29.4z M48.4,2.1c-1.6,0-2.5,0.9-2.5,2.5V24c0,1.6,0.9,2.5,2.5,2.5
		c1.6,0,2.5-0.9,2.5-2.5V4.5C50.9,3,49.9,2.1,48.4,2.1z M82.1,2.3c-1.6-0.3-2.6,0.4-2.9,1.8c-0.2,0.8-0.7,3.4-1.3,6.4
		c-0.6,3.1-1.3,6.6-1.8,9.1c0,0.1,0,0.2-0.1,0.3c-1.2-5.4-2.4-10.6-3.7-15.6c-0.4-1.5-1.4-2.3-3-2.3c-1.5,0-2.6,0.8-2.9,2.3
		c-1.3,5.6-2.6,11.6-3.4,15.6c0-0.1,0-0.1,0-0.2c-0.4-1.9-1-4.5-1.6-7.2c-0.7-3-1.4-6.1-1.8-8.3c-0.1-0.7-0.5-1.2-1-1.6
		c-0.5-0.4-1.3-0.4-2.1-0.3c-1.5,0.4-2.2,1.5-1.8,3c0.4,1.6,1.3,5.3,2.1,8.9c0.9,4,1.9,8.2,2.3,9.6c0.5,1.8,1.7,2.7,3.5,2.7
		c1.8,0,2.9-0.9,3.3-2.7c1-3.9,2.6-11.2,3.4-14.9c0.8,3.6,2.4,10.9,3.5,14.9c0.5,1.8,1.7,2.7,3.5,2.7c1.7,0,2.7-0.8,3.3-2.7
		c0.9-3.1,3.6-15.1,4.3-18.6c0.2-0.8,0.1-1.5-0.3-2C83.3,2.7,82.8,2.4,82.1,2.3z M99.2,4.8c-0.6-1.8-1.9-2.7-3.8-2.7
		c-1.8,0-3.1,0.9-3.7,2.7l-6.4,18.6c-0.2,0.7-0.2,1.3,0,1.8c0.3,0.5,0.8,0.9,1.4,1.1c0.3,0.1,0.6,0.1,0.9,0.1c1,0,1.7-0.6,2-1.7
		l1.9-5.9H99l1.8,5.7c0.2,0.7,0.6,1.3,1.2,1.6c0.6,0.3,1.3,0.3,2.1,0.1c0.7-0.2,1.1-0.6,1.4-1.1c0.3-0.6,0.3-1.3,0-2.1
		C103.8,17.9,101.5,11.2,99.2,4.8z M92.8,15.3l2.6-7.9l2.5,7.9H92.8z M125.9,2.1c-1.4,0-2.2,0.9-2.2,2.4v12.7c0,0.7,0,1.5,0.1,2.2
		c-2.6-4.8-5.9-10.9-7.7-14.5c-0.9-1.7-1.8-2.9-3.8-2.9c-1.8,0-3,1.2-3,3.2v18.8c0,1.5,0.9,2.4,2.3,2.4c1.4,0,2.1-0.9,2.1-2.4V11.5
		c0-0.7,0-1.5,0-2.2c2.4,4.8,6.1,11.7,7.8,14.7l0,0c0.7,1.2,1.7,2.4,3.7,2.4c2,0,2.9-1.1,2.9-3.2V4.5C128.2,3,127.3,2.1,125.9,2.1z"
		/>
	<g>
		<path class="st1" d="M10,34.2l-1,0.9c-0.7-0.7-1.4-1.1-2.3-1.1c-0.7,0-1.3,0.2-1.8,0.7c-0.5,0.5-0.7,1.1-0.7,1.8
			c0,0.5,0.1,0.9,0.3,1.3s0.5,0.7,0.9,0.9c0.4,0.2,0.8,0.3,1.3,0.3c0.4,0,0.8-0.1,1.1-0.2c0.3-0.2,0.7-0.4,1.1-0.8l1,1
			c-0.5,0.5-1.1,0.9-1.6,1.1c-0.5,0.2-1,0.3-1.7,0.3c-1.2,0-2.1-0.4-2.8-1.1c-0.7-0.7-1.1-1.7-1.1-2.8c0-0.7,0.2-1.4,0.5-2
			c0.3-0.6,0.8-1,1.4-1.4c0.6-0.4,1.3-0.5,2-0.5c0.6,0,1.2,0.1,1.8,0.4C9.1,33.3,9.6,33.7,10,34.2z"/>
		<path class="st1" d="M11,32.7h1.4v7.6H11V32.7z"/>
		<path class="st1" d="M14.3,32.6c0.2,0,0.4,0.1,0.6,0.3c0.2,0.2,0.3,0.4,0.3,0.6c0,0.2-0.1,0.5-0.3,0.6c-0.2,0.2-0.4,0.3-0.6,0.3
			c-0.2,0-0.5-0.1-0.6-0.3c-0.2-0.2-0.3-0.4-0.3-0.6c0-0.2,0.1-0.5,0.3-0.6C13.8,32.6,14,32.6,14.3,32.6z M13.6,34.8H15v5.5h-1.4
			V34.8z"/>
		<path class="st1" d="M16.3,34.8h1.4v0.6c0.3-0.3,0.6-0.4,0.9-0.6s0.5-0.2,0.8-0.2c0.5,0,1,0.2,1.4,0.6c0.3,0.3,0.5,0.8,0.5,1.4
			v3.6h-1.4v-2.4c0-0.7,0-1.1-0.1-1.3c-0.1-0.2-0.2-0.4-0.3-0.5c-0.1-0.1-0.3-0.2-0.5-0.2c-0.3,0-0.5,0.1-0.7,0.3
			c-0.2,0.2-0.3,0.4-0.4,0.8c0,0.2-0.1,0.5-0.1,1.1v2.2h-1.4V34.8z"/>
		<path class="st1" d="M23.2,32.6c0.2,0,0.4,0.1,0.6,0.3c0.2,0.2,0.3,0.4,0.3,0.6c0,0.2-0.1,0.5-0.3,0.6c-0.2,0.2-0.4,0.3-0.6,0.3
			c-0.2,0-0.5-0.1-0.6-0.3c-0.2-0.2-0.3-0.4-0.3-0.6c0-0.2,0.1-0.5,0.3-0.6C22.7,32.6,22.9,32.6,23.2,32.6z M22.5,34.8h1.4v5.5h-1.4
			V34.8z"/>
		<path class="st1" d="M30.6,35.9l-1.1,0.6c-0.2-0.2-0.4-0.4-0.6-0.5C28.6,36,28.4,36,28.1,36c-0.5,0-0.9,0.2-1.3,0.5
			c-0.3,0.3-0.5,0.7-0.5,1.2c0,0.5,0.2,0.8,0.5,1.1c0.3,0.3,0.7,0.4,1.2,0.4c0.6,0,1.1-0.2,1.4-0.6l1.1,0.7
			c-0.6,0.8-1.4,1.2-2.5,1.2c-1,0-1.7-0.3-2.3-0.9s-0.8-1.2-0.8-2c0-0.5,0.1-1,0.4-1.5c0.3-0.4,0.6-0.8,1.1-1.1
			c0.5-0.3,1-0.4,1.6-0.4c0.5,0,1,0.1,1.5,0.3S30.3,35.5,30.6,35.9z"/>
		<path class="st1" d="M36,34.8h1.4v5.5H36v-0.6c-0.3,0.3-0.5,0.4-0.8,0.6s-0.6,0.2-0.9,0.2c-0.7,0-1.3-0.3-1.8-0.8
			c-0.5-0.6-0.8-1.2-0.8-2.1c0-0.8,0.3-1.5,0.8-2.1c0.5-0.5,1.1-0.8,1.8-0.8c0.3,0,0.6,0.1,0.9,0.2c0.3,0.1,0.6,0.3,0.8,0.6V34.8z
			 M34.6,36c-0.4,0-0.8,0.2-1.1,0.5c-0.3,0.3-0.4,0.7-0.4,1.2c0,0.5,0.1,0.9,0.4,1.2c0.3,0.3,0.6,0.5,1.1,0.5c0.4,0,0.8-0.2,1.1-0.5
			c0.3-0.3,0.4-0.7,0.4-1.2c0-0.5-0.1-0.9-0.4-1.2C35.4,36.1,35,36,34.6,36z"/>
		<path class="st1" d="M38.7,32.7h1.4v7.6h-1.4V32.7z"/>
		<path class="st1" d="M43.9,32.9H48v1.4h-1.4v6h-1.4v-6h-1.3V32.9z"/>
		<path class="st1" d="M48.6,34.8h1.2v0.7c0.1-0.3,0.3-0.5,0.5-0.6c0.2-0.1,0.4-0.2,0.7-0.2c0.2,0,0.4,0,0.6,0.1L51.1,36
			c-0.2-0.1-0.3-0.1-0.4-0.1c-0.2,0-0.4,0.1-0.5,0.4C50,36.5,50,37.1,50,37.8l0,0.3v2.2h-1.4V34.8z"/>
		<path class="st1" d="M56.4,34.8h1.4v5.5h-1.4v-0.6c-0.3,0.3-0.5,0.4-0.8,0.6s-0.6,0.2-0.9,0.2c-0.7,0-1.3-0.3-1.8-0.8
			c-0.5-0.6-0.8-1.2-0.8-2.1c0-0.8,0.3-1.5,0.8-2.1c0.5-0.5,1.1-0.8,1.8-0.8c0.3,0,0.6,0.1,0.9,0.2c0.3,0.1,0.6,0.3,0.8,0.6V34.8z
			 M55,36c-0.4,0-0.8,0.2-1.1,0.5c-0.3,0.3-0.4,0.7-0.4,1.2c0,0.5,0.1,0.9,0.4,1.2c0.3,0.3,0.6,0.5,1.1,0.5c0.4,0,0.8-0.2,1.1-0.5
			c0.3-0.3,0.4-0.7,0.4-1.2c0-0.5-0.1-0.9-0.4-1.2C55.8,36.1,55.4,36,55,36z"/>
		<path class="st1" d="M59.8,32.6c0.2,0,0.4,0.1,0.6,0.3c0.2,0.2,0.3,0.4,0.3,0.6c0,0.2-0.1,0.5-0.3,0.6c-0.2,0.2-0.4,0.3-0.6,0.3
			c-0.2,0-0.5-0.1-0.6-0.3c-0.2-0.2-0.3-0.4-0.3-0.6c0-0.2,0.1-0.5,0.3-0.6C59.4,32.6,59.6,32.6,59.8,32.6z M59.1,34.8h1.4v5.5h-1.4
			V34.8z"/>
		<path class="st1" d="M61.9,34.8h1.4v0.6c0.3-0.3,0.6-0.4,0.9-0.6c0.3-0.1,0.5-0.2,0.8-0.2c0.5,0,1,0.2,1.4,0.6
			c0.3,0.3,0.5,0.8,0.5,1.4v3.6h-1.4v-2.4c0-0.7,0-1.1-0.1-1.3c-0.1-0.2-0.2-0.4-0.3-0.5c-0.1-0.1-0.3-0.2-0.5-0.2
			c-0.3,0-0.5,0.1-0.7,0.3c-0.2,0.2-0.3,0.4-0.4,0.8c0,0.2-0.1,0.5-0.1,1.1v2.2h-1.4V34.8z"/>
		<path class="st1" d="M68.7,32.6c0.2,0,0.4,0.1,0.6,0.3c0.2,0.2,0.3,0.4,0.3,0.6c0,0.2-0.1,0.5-0.3,0.6c-0.2,0.2-0.4,0.3-0.6,0.3
			c-0.2,0-0.5-0.1-0.6-0.3c-0.2-0.2-0.3-0.4-0.3-0.6c0-0.2,0.1-0.5,0.3-0.6C68.3,32.6,68.5,32.6,68.7,32.6z M68,34.8h1.4v5.5H68
			V34.8z"/>
		<path class="st1" d="M70.8,34.8h1.4v0.6c0.3-0.3,0.6-0.4,0.9-0.6s0.5-0.2,0.8-0.2c0.5,0,1,0.2,1.4,0.6c0.3,0.3,0.5,0.8,0.5,1.4
			v3.6h-1.4v-2.4c0-0.7,0-1.1-0.1-1.3c-0.1-0.2-0.2-0.4-0.3-0.5c-0.1-0.1-0.3-0.2-0.5-0.2c-0.3,0-0.5,0.1-0.7,0.3
			c-0.2,0.2-0.3,0.4-0.4,0.8c0,0.2-0.1,0.5-0.1,1.1v2.2h-1.4V34.8z"/>
		<path class="st1" d="M81.2,34.8h1.4v4.7c0,0.9-0.2,1.6-0.6,2.1c-0.5,0.6-1.3,0.9-2.3,0.9c-0.5,0-1-0.1-1.4-0.2
			c-0.4-0.1-0.7-0.3-0.9-0.6c-0.3-0.3-0.4-0.6-0.6-1h1.5c0.1,0.2,0.3,0.3,0.5,0.4c0.2,0.1,0.5,0.1,0.8,0.1c0.4,0,0.7-0.1,0.9-0.2
			c0.2-0.1,0.4-0.3,0.5-0.4c0.1-0.2,0.1-0.5,0.1-0.9c-0.2,0.2-0.5,0.4-0.8,0.5c-0.3,0.1-0.6,0.2-0.9,0.2c-0.7,0-1.4-0.3-1.9-0.8
			c-0.5-0.5-0.8-1.2-0.8-2c0-0.9,0.3-1.6,0.8-2.1c0.5-0.5,1.1-0.7,1.7-0.7c0.3,0,0.6,0.1,0.9,0.2s0.6,0.3,0.8,0.6V34.8z M79.7,36
			c-0.4,0-0.8,0.1-1.1,0.4c-0.3,0.3-0.4,0.7-0.4,1.1c0,0.5,0.1,0.8,0.4,1.1c0.3,0.3,0.7,0.4,1.1,0.4c0.4,0,0.8-0.1,1.1-0.4
			c0.3-0.3,0.4-0.7,0.4-1.1c0-0.5-0.1-0.8-0.4-1.1C80.5,36.1,80.2,36,79.7,36z"/>
		<path class="st1" d="M87.2,32.9h1.5c0.8,0,1.4,0.1,1.8,0.2c0.4,0.1,0.6,0.4,0.8,0.7c0.2,0.3,0.3,0.7,0.3,1.2c0,0.5-0.1,1-0.4,1.3
			c-0.3,0.3-0.6,0.6-1.1,0.7c-0.3,0.1-0.8,0.1-1.5,0.1v3.1h-1.4V32.9z M88.6,35.8H89c0.4,0,0.6,0,0.7-0.1c0.1-0.1,0.2-0.1,0.3-0.3
			c0.1-0.1,0.1-0.3,0.1-0.4c0-0.3-0.1-0.5-0.3-0.6c-0.2-0.1-0.5-0.1-0.9-0.1h-0.4V35.8z"/>
		<path class="st1" d="M92.6,34.8h1.2v0.7c0.1-0.3,0.3-0.5,0.5-0.6c0.2-0.1,0.4-0.2,0.7-0.2c0.2,0,0.4,0,0.6,0.1L95.1,36
			c-0.2-0.1-0.3-0.1-0.4-0.1c-0.2,0-0.4,0.1-0.5,0.4C94,36.5,94,37.1,94,37.8l0,0.3v2.2h-1.4V34.8z"/>
		<path class="st1" d="M98.9,34.7c0.5,0,1,0.1,1.5,0.4c0.5,0.3,0.8,0.6,1.1,1.1c0.3,0.4,0.4,0.9,0.4,1.4c0,0.5-0.1,1-0.4,1.5
			c-0.3,0.5-0.6,0.8-1.1,1.1c-0.4,0.3-0.9,0.4-1.5,0.4c-0.8,0-1.5-0.3-2-0.8c-0.6-0.6-0.8-1.2-0.8-2c0-0.9,0.3-1.6,0.9-2.1
			C97.6,34.9,98.2,34.7,98.9,34.7z M98.9,36c-0.4,0-0.8,0.1-1.1,0.4c-0.3,0.3-0.4,0.7-0.4,1.1c0,0.5,0.1,0.9,0.4,1.2
			c0.3,0.3,0.6,0.4,1.1,0.4c0.4,0,0.8-0.2,1.1-0.5c0.3-0.3,0.4-0.7,0.4-1.2s-0.1-0.9-0.4-1.1C99.7,36.1,99.4,36,98.9,36z"/>
		<path class="st1" d="M107.1,34.8h1.4v4.7c0,0.9-0.2,1.6-0.6,2.1c-0.5,0.6-1.3,0.9-2.3,0.9c-0.5,0-1-0.1-1.4-0.2
			c-0.4-0.1-0.7-0.3-0.9-0.6c-0.3-0.3-0.4-0.6-0.6-1h1.5c0.1,0.2,0.3,0.3,0.5,0.4c0.2,0.1,0.5,0.1,0.8,0.1c0.4,0,0.7-0.1,0.9-0.2
			c0.2-0.1,0.4-0.3,0.5-0.4c0.1-0.2,0.1-0.5,0.1-0.9c-0.2,0.2-0.5,0.4-0.8,0.5c-0.3,0.1-0.6,0.2-0.9,0.2c-0.7,0-1.4-0.3-1.9-0.8
			c-0.5-0.5-0.8-1.2-0.8-2c0-0.9,0.3-1.6,0.8-2.1c0.5-0.5,1.1-0.7,1.7-0.7c0.3,0,0.6,0.1,0.9,0.2s0.6,0.3,0.8,0.6V34.8z M105.7,36
			c-0.4,0-0.8,0.1-1.1,0.4c-0.3,0.3-0.4,0.7-0.4,1.1c0,0.5,0.1,0.8,0.4,1.1c0.3,0.3,0.7,0.4,1.1,0.4c0.4,0,0.8-0.1,1.1-0.4
			c0.3-0.3,0.4-0.7,0.4-1.1c0-0.5-0.1-0.8-0.4-1.1C106.5,36.1,106.1,36,105.7,36z"/>
		<path class="st1" d="M109.7,34.8h1.2v0.7c0.1-0.3,0.3-0.5,0.5-0.6c0.2-0.1,0.4-0.2,0.7-0.2c0.2,0,0.4,0,0.6,0.1l-0.4,1.2
			c-0.2-0.1-0.3-0.1-0.4-0.1c-0.2,0-0.4,0.1-0.5,0.4c-0.1,0.3-0.2,0.8-0.2,1.5l0,0.3v2.2h-1.4V34.8z"/>
		<path class="st1" d="M117.5,34.8h1.4v5.5h-1.4v-0.6c-0.3,0.3-0.5,0.4-0.8,0.6c-0.3,0.1-0.6,0.2-0.9,0.2c-0.7,0-1.3-0.3-1.8-0.8
			c-0.5-0.6-0.8-1.2-0.8-2.1c0-0.8,0.3-1.5,0.8-2.1c0.5-0.5,1.1-0.8,1.8-0.8c0.3,0,0.6,0.1,0.9,0.2c0.3,0.1,0.6,0.3,0.8,0.6V34.8z
			 M116,36c-0.4,0-0.8,0.2-1.1,0.5c-0.3,0.3-0.4,0.7-0.4,1.2c0,0.5,0.1,0.9,0.4,1.2c0.3,0.3,0.6,0.5,1.1,0.5c0.4,0,0.8-0.2,1.1-0.5
			c0.3-0.3,0.4-0.7,0.4-1.2c0-0.5-0.1-0.9-0.4-1.2C116.8,36.1,116.5,36,116,36z"/>
		<path class="st1" d="M120.3,34.8h1.4v0.6c0.2-0.3,0.5-0.5,0.8-0.6c0.3-0.1,0.6-0.2,0.9-0.2c0.3,0,0.7,0.1,0.9,0.3
			c0.3,0.2,0.5,0.4,0.7,0.7c0.2-0.3,0.5-0.6,0.8-0.7c0.3-0.2,0.7-0.3,1-0.3c0.4,0,0.7,0.1,1,0.3c0.3,0.2,0.5,0.4,0.6,0.7
			c0.1,0.3,0.2,0.8,0.2,1.4v3.2h-1.4v-2.8c0-0.6-0.1-1-0.2-1.3c-0.2-0.2-0.4-0.3-0.7-0.3c-0.2,0-0.4,0.1-0.6,0.2
			c-0.2,0.1-0.3,0.3-0.4,0.6c-0.1,0.2-0.1,0.6-0.1,1.1v2.5h-1.4v-2.7c0-0.5,0-0.8-0.1-1.1c-0.1-0.2-0.2-0.4-0.3-0.5
			c-0.1-0.1-0.3-0.2-0.5-0.2c-0.2,0-0.4,0.1-0.6,0.2c-0.2,0.1-0.3,0.3-0.4,0.6c-0.1,0.2-0.1,0.6-0.1,1.2v2.4h-1.4V34.8z"/>
	</g>
</g>
</svg>
