<?xml version="1.0" encoding="utf-8"?>
<!-- Generator: Adobe Illustrator 25.4.1, SVG Export Plug-In . SVG Version: 6.00 Build 0)  -->
<svg version="1.1" id="Layer_1" xmlns="http://www.w3.org/2000/svg" xmlns:xlink="http://www.w3.org/1999/xlink" x="0px" y="0px"
	 viewBox="0 0 224.3 159.4" style="enable-background:new 0 0 224.3 159.4;" xml:space="preserve">
<style type="text/css">
	.st0{opacity:8.000000e-02;fill:#0C6CB7;}
	.st1{opacity:5.000000e-02;fill:#0C6CB7;}
	.st2{opacity:4.000000e-02;fill:#0C6CB7;}
	.st3{opacity:3.000000e-02;fill:#0C6CB7;}
	.st4{opacity:6.000000e-02;fill:#0C6CB7;}
	.st5{opacity:7.000000e-02;fill:#0C6CB7;}
	.st6{opacity:2.000000e-02;fill:#0C6CB7;}
</style>
<polygon class="st0" points="21.4,89.2 21.4,86.5 18.6,86.5 18.6,83.8 21.4,83.8 21.4,81 24,81 24,83.8 26.8,83.8 26.8,86.5 
	24,86.5 24,89.2 "/>
<polygon class="st0" points="52.6,87.7 52.6,84.9 49.8,84.9 49.8,82.2 52.6,82.2 52.6,79.4 55.3,79.4 55.3,82.2 58.1,82.2 
	58.1,84.9 55.3,84.9 55.3,87.7 "/>
<polygon class="st1" points="58,111.7 58,106 52.3,106 52.3,100.5 58,100.5 58,94.7 63.5,94.7 63.5,100.5 69.3,100.5 69.3,106 
	63.5,106 63.5,111.7 "/>
<polygon class="st0" points="88.3,54 88.3,51.3 85.6,51.3 85.6,48.7 88.3,48.7 88.3,46 90.9,46 90.9,48.7 93.7,48.7 93.7,51.3 
	90.9,51.3 90.9,54 "/>
<polygon class="st2" points="72,104.4 72,101.2 68.8,101.2 68.8,98.1 72,98.1 72,94.9 75.1,94.9 75.1,98.1 78.3,98.1 78.3,101.2 
	75.1,101.2 75.1,104.4 "/>
<polygon class="st0" points="97.7,115.5 97.7,112.4 94.7,112.4 94.7,109.5 97.7,109.5 97.7,106.4 100.7,106.4 100.7,109.5 
	103.8,109.5 103.8,112.4 100.7,112.4 100.7,115.5 "/>
<polygon class="st1" points="97.6,75.8 97.6,72.8 94.6,72.8 94.6,70 97.6,70 97.6,67 100.4,67 100.4,70 103.4,70 103.4,72.8 
	100.4,72.8 100.4,75.8 "/>
<polygon class="st0" points="16.8,111.5 16.8,107.7 12.9,107.7 12.9,103.9 16.8,103.9 16.8,100.1 20.5,100.1 20.5,103.9 24.4,103.9 
	24.4,107.7 20.5,107.7 20.5,111.5 "/>
<polygon class="st0" points="56.1,129.8 56.1,126.1 52.4,126.1 52.4,122.5 56.1,122.5 56.1,118.8 59.7,118.8 59.7,122.5 63.4,122.5 
	63.4,126.1 59.7,126.1 59.7,129.8 "/>
<polygon class="st0" points="80.1,77.3 80.1,74.1 76.9,74.1 76.9,71 80.1,71 80.1,67.7 83.3,67.7 83.3,71 86.5,71 86.5,74.1 
	83.3,74.1 83.3,77.3 "/>
<polygon class="st0" points="102.5,40.1 102.5,37 99.4,37 99.4,34 102.5,34 102.5,30.9 105.5,30.9 105.5,34 108.6,34 108.6,37 
	105.5,37 105.5,40.1 "/>
<polygon class="st0" points="110.8,104.6 110.8,101 107.3,101 107.3,97.6 110.8,97.6 110.8,94 114.3,94 114.3,97.6 117.9,97.6 
	117.9,101 114.3,101 114.3,104.6 "/>
<polygon class="st3" points="111.2,55.3 111.2,51.8 107.8,51.8 107.8,48.5 111.2,48.5 111.2,45.1 114.5,45.1 114.5,48.5 118,48.5 
	118,51.8 114.5,51.8 114.5,55.3 "/>
<polygon class="st0" points="122.9,38.9 122.9,35.6 119.6,35.6 119.6,32.5 122.9,32.5 122.9,29.2 126.1,29.2 126.1,32.5 129.4,32.5 
	129.4,35.6 126.1,35.6 126.1,38.9 "/>
<polygon class="st0" points="151.9,70.8 151.9,67.7 148.7,67.7 148.7,64.6 151.9,64.6 151.9,61.5 154.9,61.5 154.9,64.6 158.1,64.6 
	158.1,67.7 154.9,67.7 154.9,70.8 "/>
<polygon class="st0" points="31.2,103.6 31.2,98.9 26.5,98.9 26.5,94.4 31.2,94.4 31.2,89.6 35.7,89.6 35.7,94.4 40.5,94.4 
	40.5,98.9 35.7,98.9 35.7,103.6 "/>
<polygon class="st0" points="123.1,125.7 123.1,121.4 118.8,121.4 118.8,117.4 123.1,117.4 123.1,113.2 127.1,113.2 127.1,117.4 
	131.3,117.4 131.3,121.4 127.1,121.4 127.1,125.7 "/>
<polygon class="st0" points="142.8,30.1 142.8,26.6 139.3,26.6 139.3,23.3 142.8,23.3 142.8,19.8 146.2,19.8 146.2,23.3 149.6,23.3 
	149.6,26.6 146.2,26.6 146.2,30.1 "/>
<polygon class="st1" points="161.2,34.8 161.2,31.5 157.8,31.5 157.8,28.3 161.2,28.3 161.2,24.9 164.4,24.9 164.4,28.3 167.7,28.3 
	167.7,31.5 164.4,31.5 164.4,34.8 "/>
<polygon class="st4" points="39.9,63.9 39.9,58.8 34.8,58.8 34.8,53.9 39.9,53.9 39.9,48.7 44.8,48.7 44.8,53.9 49.9,53.9 
	49.9,58.8 44.8,58.8 44.8,63.9 "/>
<polygon class="st0" points="154.8,90.6 154.8,86.5 150.7,86.5 150.7,82.5 154.8,82.5 154.8,78.5 158.7,78.5 158.7,82.5 162.8,82.5 
	162.8,86.5 158.7,86.5 158.7,90.6 "/>
<polygon class="st0" points="188.9,39.2 188.9,35.6 185.4,35.6 185.4,32.2 188.9,32.2 188.9,28.7 192.3,28.7 192.3,32.2 195.9,32.2 
	195.9,35.6 192.3,35.6 192.3,39.2 "/>
<polygon class="st0" points="26.1,48.3 26.1,42.3 20.1,42.3 20.1,36.5 26.1,36.5 26.1,30.4 31.9,30.4 31.9,36.5 37.9,36.5 
	37.9,42.3 31.9,42.3 31.9,48.3 "/>
<polygon class="st0" points="62.7,53.4 62.7,49.7 58.9,49.7 58.9,46.1 62.7,46.1 62.7,42.4 66.2,42.4 66.2,46.1 70,46.1 70,49.7 
	66.2,49.7 66.2,53.4 "/>
<polygon class="st0" points="108.8,85.5 108.8,80.2 103.5,80.2 103.5,75.2 108.8,75.2 108.8,69.9 113.8,69.9 113.8,75.2 119,75.2 
	119,80.2 113.8,80.2 113.8,85.5 "/>
<polygon class="st0" points="144.4,105.8 144.4,100.9 139.5,100.9 139.5,96.2 144.4,96.2 144.4,91.2 149.2,91.2 149.2,96.2 
	154.1,96.2 154.1,100.9 149.2,100.9 149.2,105.8 "/>
<polygon class="st1" points="173.1,116.4 173.1,111.7 168.5,111.7 168.5,107.3 173.1,107.3 173.1,102.7 177.5,102.7 177.5,107.3 
	182.2,107.3 182.2,111.7 177.5,111.7 177.5,116.4 "/>
<polygon class="st4" points="184.2,76.7 184.2,73.8 181.3,73.8 181.3,71 184.2,71 184.2,68.1 187,68.1 187,71 189.9,71 189.9,73.8 
	187,73.8 187,76.7 "/>
<polygon class="st3" points="196.5,69.9 196.5,65.8 192.3,65.8 192.3,61.8 196.5,61.8 196.5,57.6 200.5,57.6 200.5,61.8 204.7,61.8 
	204.7,65.8 200.5,65.8 200.5,69.9 "/>
<polygon class="st2" points="21.2,63.9 21.2,56.6 13.9,56.6 13.9,49.5 21.2,49.5 21.2,42.2 28.3,42.2 28.3,49.5 35.6,49.5 
	35.6,56.6 28.3,56.6 28.3,63.9 "/>
<polygon class="st2" points="61.6,35.2 61.6,30.7 57.2,30.7 57.2,26.4 61.6,26.4 61.6,22 65.9,22 65.9,26.4 70.4,26.4 70.4,30.7 
	65.9,30.7 65.9,35.2 "/>
<polygon class="st3" points="121.5,110.2 121.5,104 115.3,104 115.3,98 121.5,98 121.5,91.8 127.4,91.8 127.4,98 133.6,98 
	133.6,104 127.4,104 127.4,110.2 "/>
<polygon class="st0" points="125.3,62.6 125.3,56.8 119.6,56.8 119.6,51.3 125.3,51.3 125.3,45.5 130.9,45.5 130.9,51.3 136.6,51.3 
	136.6,56.8 130.9,56.8 130.9,62.6 "/>
<polygon class="st0" points="171.7,91.5 171.7,85.1 165.3,85.1 165.3,78.9 171.7,78.9 171.7,72.5 177.8,72.5 177.8,78.9 184.2,78.9 
	184.2,85.1 177.8,85.1 177.8,91.5 "/>
<polygon class="st0" points="199.8,94.4 199.8,89.3 194.8,89.3 194.8,84.5 199.8,84.5 199.8,79.5 204.7,79.5 204.7,84.5 209.7,84.5 
	209.7,89.3 204.7,89.3 204.7,94.4 "/>
<polygon class="st0" points="206.8,61 206.8,56.3 202.1,56.3 202.1,51.8 206.8,51.8 206.8,47 211.3,47 211.3,51.8 216.1,51.8 
	216.1,56.3 211.3,56.3 211.3,61 "/>
<polygon class="st2" points="29.6,128.5 29.6,119.2 20.3,119.2 20.3,110.2 29.6,110.2 29.6,100.9 38.5,100.9 38.5,110.2 47.9,110.2 
	47.9,119.2 38.5,119.2 38.5,128.5 "/>
<polygon class="st0" points="70.3,72.5 70.3,64.6 63,64.6 63,57 70.3,57 70.3,49.1 77.3,49.1 77.3,57 84.6,57 84.6,64.6 77.3,64.6 
	77.3,72.5 "/>
<polygon class="st0" points="91,28.7 91,21.1 83.4,21.1 83.4,13.8 91,13.8 91,6.2 98.3,6.2 98.3,13.8 105.8,13.8 105.8,21.1 
	98.3,21.1 98.3,28.7 "/>
<polygon class="st4" points="171.7,46.1 171.7,39.7 165.3,39.7 165.3,33.6 171.7,33.6 171.7,27.2 177.8,27.2 177.8,33.6 184.2,33.6 
	184.2,39.7 177.8,39.7 177.8,46.1 "/>
<polygon class="st1" points="211.1,76.7 211.1,70.8 205.2,70.8 205.2,65.1 211.1,65.1 211.1,59.2 216.7,59.2 216.7,65.1 222.6,65.1 
	222.6,70.8 216.7,70.8 216.7,76.7 "/>
<polygon class="st3" points="10.6,161.2 10.6,151.8 1.3,151.8 1.3,142.8 10.6,142.8 10.6,133.4 19.6,133.4 19.6,142.8 29,142.8 
	29,151.8 19.6,151.8 19.6,161.2 "/>
<polygon class="st0" points="80.4,137.3 80.4,128.5 71.6,128.5 71.6,120.1 80.4,120.1 80.4,111.3 88.8,111.3 88.8,120.1 97.6,120.1 
	97.6,128.5 88.8,128.5 88.8,137.3 "/>
<polygon class="st5" points="131.5,88.9 131.5,79.2 121.7,79.2 121.7,69.8 131.5,69.8 131.5,60.1 140.8,60.1 140.8,69.8 150.5,69.8 
	150.5,79.2 140.8,79.2 140.8,88.9 "/>
<polygon class="st6" points="156.8,58.9 156.8,50.3 148.2,50.3 148.2,41.9 156.8,41.9 156.8,33.2 165.2,33.2 165.2,41.9 173.9,41.9 
	173.9,50.3 165.2,50.3 165.2,58.9 "/>
<polygon class="st0" points="195.1,23.3 195.1,16.2 187.9,16.2 187.9,9.3 195.1,9.3 195.1,2.2 201.9,2.2 201.9,9.3 209.1,9.3 
	209.1,16.2 201.9,16.2 201.9,23.3 "/>
<polygon class="st0" points="45.2,96.7 45.2,85.9 34.4,85.9 34.4,75.4 45.2,75.4 45.2,64.6 55.7,64.6 55.7,75.4 66.5,75.4 
	66.5,85.9 55.7,85.9 55.7,96.7 "/>
<polygon class="st3" points="162.5,134.6 162.5,123.6 151.5,123.6 151.5,113.1 162.5,113.1 162.5,102.1 173,102.1 173,113.1 
	184,113.1 184,123.6 173,123.6 173,134.6 "/>
<polygon class="st3" points="197.1,159.4 197.1,147.8 185.5,147.8 185.5,136.6 197.1,136.6 197.1,125 208.3,125 208.3,136.6 
	219.9,136.6 219.9,147.8 208.3,147.8 208.3,159.4 "/>
</svg>
