<?xml version="1.0" encoding="utf-8"?>
<!-- Generator: Adobe Illustrator 25.4.1, SVG Export Plug-In . SVG Version: 6.00 Build 0)  -->
<svg version="1.1" id="Layer_1" xmlns="http://www.w3.org/2000/svg" xmlns:xlink="http://www.w3.org/1999/xlink" x="0px" y="0px"
	 viewBox="0 0 288 123.9" style="enable-background:new 0 0 288 123.9;" xml:space="preserve">
<style type="text/css">
	.st0{fill-rule:evenodd;clip-rule:evenodd;fill:url(#SVGID_1_);}
	.st1{opacity:7.000000e-02;fill:#FFFFFF;enable-background:new    ;}
	.st2{opacity:5.000000e-02;fill:#FFFFFF;enable-background:new    ;}
	.st3{opacity:3.000000e-02;fill:#FFFFFF;enable-background:new    ;}
	.st4{opacity:4.000000e-02;fill:#FFFFFF;enable-background:new    ;}
</style>
<g>
	<radialGradient id="SVGID_1_" cx="157.6492" cy="53.7652" r="76.3234" gradientUnits="userSpaceOnUse">
		<stop  offset="0.3427" style="stop-color:#3F72B1"/>
		<stop  offset="1" style="stop-color:#2B65AD"/>
	</radialGradient>
	<path class="st0" d="M0.9,0.2c0,0,31.1,29.6,48.2,61c41.3,75.8,154.2,64.8,189,57.4c32.9-7,49.6-19.7,49.6-19.7L288,0L0.9,0.2z"/>
	<polygon class="st1" points="31.1,19.1 31.1,17.8 29.7,17.8 29.7,16.5 31.1,16.5 31.1,15.1 32.3,15.1 32.3,16.5 33.7,16.5 
		33.7,17.8 32.3,17.8 32.3,19.1 	"/>
	<polygon class="st1" points="34.6,12.2 34.6,11.2 33.7,11.2 33.7,10.3 34.6,10.3 34.6,9.3 35.5,9.3 35.5,10.3 36.5,10.3 36.5,11.2 
		35.5,11.2 35.5,12.2 	"/>
	<polygon class="st1" points="44.2,7.2 44.2,5.4 42.5,5.4 42.5,3.8 44.2,3.8 44.2,2.1 45.8,2.1 45.8,3.8 47.6,3.8 47.6,5.4 
		45.8,5.4 45.8,7.2 	"/>
	<polygon class="st2" points="62,27.7 62,25.8 60.1,25.8 60.1,24.1 62,24.1 62,22.1 63.8,22.1 63.8,24.1 65.7,24.1 65.7,25.8 
		63.8,25.8 63.8,27.7 	"/>
	<polygon class="st3" points="64.9,38.2 64.9,34.5 61.2,34.5 61.2,30.9 64.9,30.9 64.9,27.3 68.4,27.3 68.4,30.9 72.1,30.9 
		72.1,34.5 68.4,34.5 68.4,38.2 	"/>
	<path class="st1" d="M25.6,20.5v-3.4h-3.3v3.4H20c1.8,2.1,3.7,4.3,5.6,6.7v-3.4H29v-3.3C29,20.5,25.6,20.5,25.6,20.5z"/>
	<polygon class="st2" points="41.1,28.3 41.1,25.1 37.8,25.1 37.8,22 41.1,22 41.1,18.8 44.1,18.8 44.1,22 47.4,22 47.4,25.1 
		44.1,25.1 44.1,28.3 	"/>
	<polygon class="st1" points="45.5,17.1 45.5,15.9 44.3,15.9 44.3,14.6 45.5,14.6 45.5,13.4 46.8,13.4 46.8,14.6 48,14.6 48,15.9 
		46.8,15.9 46.8,17.1 	"/>
	<polygon class="st1" points="47.9,43.7 47.9,40.9 45.1,40.9 45.1,38.4 47.9,38.4 47.9,35.6 50.4,35.6 50.4,38.4 53.2,38.4 
		53.2,40.9 50.4,40.9 50.4,43.7 	"/>
	<polygon class="st2" points="70.4,22.7 70.4,20.3 68,20.3 68,18 70.4,18 70.4,15.6 72.7,15.6 72.7,18 75.1,18 75.1,20.3 72.7,20.3 
		72.7,22.7 	"/>
	<polygon class="st1" points="27.4,12.7 27.4,10.4 25.1,10.4 25.1,8.2 27.4,8.2 27.4,6 29.6,6 29.6,8.2 31.9,8.2 31.9,10.4 
		29.6,10.4 29.6,12.7 	"/>
	<path class="st4" d="M67.7,0.2v2.2h3v3h2.8v-3h3V0.1L67.7,0.2z M2.9,2.1h0.4v0.4c0.9,0.9,2,2.1,3.4,3.4H7V2.1h3.8V0.2H0.9
		C0.9,0.2,1.7,0.9,2.9,2.1z M16.6,1.5h1.8v1.8h1.7V1.5h1.8V0.2h-5.3C16.6,0.2,16.6,1.5,16.6,1.5z M32.3,1.4h2.6V4h2.5V1.4H40V0.2
		h-7.7V1.4z M51.7,2.3h3V0.2h-3V2.3z"/>
	<polygon class="st1" points="14.4,10.4 14.4,8.8 12.9,8.8 12.9,7.3 14.4,7.3 14.4,5.7 16,5.7 16,7.3 17.5,7.3 17.5,8.8 16,8.8 
		16,10.4 	"/>
	<polygon class="st3" points="57,16.4 57,14 54.7,14 54.7,11.7 57,11.7 57,9.3 59.3,9.3 59.3,11.7 61.7,11.7 61.7,14 59.3,14 
		59.3,16.4 	"/>
</g>
</svg>
