<?xml version="1.0" encoding="utf-8"?>
<!-- Generator: Adobe Illustrator 25.4.1, SVG Export Plug-In . SVG Version: 6.00 Build 0)  -->
<svg version="1.1" id="Layer_1" xmlns="http://www.w3.org/2000/svg" xmlns:xlink="http://www.w3.org/1999/xlink" x="0px" y="0px"
	 viewBox="0 0 240.5 152" style="enable-background:new 0 0 240.5 152;" xml:space="preserve">
<style type="text/css">
	.st0{opacity:8.000000e-02;fill:#0C6CB7;enable-background:new    ;}
	.st1{opacity:5.000000e-02;fill:#0C6CB7;enable-background:new    ;}
	.st2{opacity:4.000000e-02;fill:#0C6CB7;enable-background:new    ;}
	.st3{opacity:3.000000e-02;fill:#0C6CB7;enable-background:new    ;}
	.st4{opacity:6.000000e-02;fill:#0C6CB7;enable-background:new    ;}
	.st5{opacity:2.000000e-02;fill:#0C6CB7;enable-background:new    ;}
</style>
<polygon class="st0" points="21.4,89.2 21.4,86.5 18.6,86.5 18.6,83.8 21.4,83.8 21.4,81 24,81 24,83.8 26.8,83.8 26.8,86.5 
	24,86.5 24,89.2 "/>
<polygon class="st0" points="52.6,87.7 52.6,84.9 49.8,84.9 49.8,82.2 52.6,82.2 52.6,79.4 55.3,79.4 55.3,82.2 58.1,82.2 
	58.1,84.9 55.3,84.9 55.3,87.7 "/>
<polygon class="st1" points="73.1,84.7 73.1,79 67.3,79 67.3,73.5 73.1,73.5 73.1,67.7 78.6,67.7 78.6,73.5 84.4,73.5 84.4,79 
	78.6,79 78.6,84.7 "/>
<polygon class="st1" points="88.3,54 88.3,51.3 85.6,51.3 85.6,48.7 88.3,48.7 88.3,46 90.9,46 90.9,48.7 93.7,48.7 93.7,51.3 
	90.9,51.3 90.9,54 "/>
<polygon class="st2" points="81.8,92.4 81.8,89.2 78.7,89.2 78.7,86.1 81.8,86.1 81.8,82.9 84.9,82.9 84.9,86.1 88.2,86.1 
	88.2,89.2 84.9,89.2 84.9,92.4 "/>
<polygon class="st0" points="93.8,121.2 93.8,116.7 89.3,116.7 89.3,112.4 93.8,112.4 93.8,107.9 98.2,107.9 98.2,112.4 
	102.7,112.4 102.7,116.7 98.2,116.7 98.2,121.2 "/>
<polygon class="st1" points="93.3,65.4 93.3,62.4 90.3,62.4 90.3,59.6 93.3,59.6 93.3,56.6 96.1,56.6 96.1,59.6 99.1,59.6 
	99.1,62.4 96.1,62.4 96.1,65.4 "/>
<polygon class="st0" points="24.3,115.2 24.3,111.4 20.4,111.4 20.4,107.6 24.3,107.6 24.3,103.8 28,103.8 28,107.6 31.9,107.6 
	31.9,111.4 28,111.4 28,115.2 "/>
<polygon class="st0" points="56.1,129.8 56.1,126.1 52.4,126.1 52.4,122.5 56.1,122.5 56.1,118.8 59.7,118.8 59.7,122.5 63.4,122.5 
	63.4,126.1 59.7,126.1 59.7,129.8 "/>
<polygon class="st0" points="102.5,34 102.5,30.9 99.4,30.9 99.4,27.9 102.5,27.9 102.5,24.8 105.5,24.8 105.5,27.9 108.6,27.9 
	108.6,30.9 105.5,30.9 105.5,34 "/>
<polygon class="st0" points="113.5,99.3 113.5,95.7 110,95.7 110,92.3 113.5,92.3 113.5,88.7 117,88.7 117,92.3 120.6,92.3 
	120.6,95.7 117,95.7 117,99.3 "/>
<polygon class="st3" points="111.2,55.3 111.2,51.8 107.8,51.8 107.8,48.5 111.2,48.5 111.2,45.1 114.5,45.1 114.5,48.5 118,48.5 
	118,51.8 114.5,51.8 114.5,55.3 "/>
<polygon class="st0" points="38.2,41.8 38.2,37.1 33.5,37.1 33.5,32.6 38.2,32.6 38.2,27.8 42.7,27.8 42.7,32.6 47.5,32.6 
	47.5,37.1 42.7,37.1 42.7,41.8 "/>
<polygon class="st0" points="123.1,125.7 123.1,121.4 118.8,121.4 118.8,117.4 123.1,117.4 123.1,113.2 127.1,113.2 127.1,117.4 
	131.3,117.4 131.3,121.4 127.1,121.4 127.1,125.7 "/>
<polygon class="st0" points="142.8,30.1 142.8,26.6 139.3,26.6 139.3,23.3 142.8,23.3 142.8,19.8 146.2,19.8 146.2,23.3 149.6,23.3 
	149.6,26.6 146.2,26.6 146.2,30.1 "/>
<polygon class="st1" points="161.2,34.8 161.2,31.5 157.8,31.5 157.8,28.3 161.2,28.3 161.2,24.9 164.4,24.9 164.4,28.3 167.7,28.3 
	167.7,31.5 164.4,31.5 164.4,34.8 "/>
<polygon class="st4" points="39.9,63.9 39.9,58.8 34.8,58.8 34.8,53.9 39.9,53.9 39.9,48.7 44.8,48.7 44.8,53.9 49.9,53.9 
	49.9,58.8 44.8,58.8 44.8,63.9 "/>
<polygon class="st3" points="154.8,90.6 154.8,86.5 150.7,86.5 150.7,82.5 154.8,82.5 154.8,78.5 158.7,78.5 158.7,82.5 162.8,82.5 
	162.8,86.5 158.7,86.5 158.7,90.6 "/>
<polygon class="st0" points="194.1,28.5 194.1,24.9 190.6,24.9 190.6,21.5 194.1,21.5 194.1,18 197.6,18 197.6,21.5 201.1,21.5 
	201.1,24.9 197.6,24.9 197.6,28.5 "/>
<polygon class="st1" points="30.1,48.3 30.1,44.3 26.2,44.3 26.2,40.5 30.1,40.5 30.1,36.5 33.9,36.5 33.9,40.5 37.9,40.5 
	37.9,44.3 33.9,44.3 33.9,48.3 "/>
<polygon class="st0" points="67.1,44.7 67.1,41 63.3,41 63.3,37.4 67.1,37.4 67.1,33.7 70.6,33.7 70.6,37.4 74.4,37.4 74.4,41 
	70.6,41 70.6,44.7 "/>
<polygon class="st0" points="144.4,105.8 144.4,100.9 139.5,100.9 139.5,96.2 144.4,96.2 144.4,91.2 149.2,91.2 149.2,96.2 
	154.1,96.2 154.1,100.9 149.2,100.9 149.2,105.8 "/>
<polygon class="st1" points="173.1,116.4 173.1,111.7 168.5,111.7 168.5,107.3 173.1,107.3 173.1,102.7 177.5,102.7 177.5,107.3 
	182.2,107.3 182.2,111.7 177.5,111.7 177.5,116.4 "/>
<polygon class="st4" points="184.2,76.7 184.2,73.8 181.3,73.8 181.3,71 184.2,71 184.2,68.1 187,68.1 187,71 189.9,71 189.9,73.8 
	187,73.8 187,76.7 "/>
<polygon class="st3" points="196.5,69.9 196.5,65.8 192.3,65.8 192.3,61.8 196.5,61.8 196.5,57.6 200.5,57.6 200.5,61.8 204.7,61.8 
	204.7,65.8 200.5,65.8 200.5,69.9 "/>
<polygon class="st2" points="14.7,43.8 14.7,38.2 9.1,38.2 9.1,32.7 14.7,32.7 14.7,27.1 20.2,27.1 20.2,32.7 25.8,32.7 25.8,38.2 
	20.2,38.2 20.2,43.8 "/>
<polygon class="st2" points="61.6,35.2 61.6,30.7 57.2,30.7 57.2,26.4 61.6,26.4 61.6,22 65.9,22 65.9,26.4 70.4,26.4 70.4,30.7 
	65.9,30.7 65.9,35.2 "/>
<polygon class="st3" points="121.5,110.2 121.5,104 115.3,104 115.3,98 121.5,98 121.5,91.8 127.4,91.8 127.4,98 133.6,98 
	133.6,104 127.4,104 127.4,110.2 "/>
<polygon class="st2" points="125.3,62.6 125.3,56.8 119.6,56.8 119.6,51.3 125.3,51.3 125.3,45.5 130.9,45.5 130.9,51.3 136.6,51.3 
	136.6,56.8 130.9,56.8 130.9,62.6 "/>
<polygon class="st2" points="171.7,91.5 171.7,85.1 165.3,85.1 165.3,78.9 171.7,78.9 171.7,72.5 177.8,72.5 177.8,78.9 184.2,78.9 
	184.2,85.1 177.8,85.1 177.8,91.5 "/>
<polygon class="st0" points="199.8,94.4 199.8,89.3 194.8,89.3 194.8,84.5 199.8,84.5 199.8,79.5 204.7,79.5 204.7,84.5 209.7,84.5 
	209.7,89.3 204.7,89.3 204.7,94.4 "/>
<polygon class="st0" points="214.4,66.2 214.4,61.5 209.7,61.5 209.7,57 214.4,57 214.4,52.2 218.9,52.2 218.9,57 223.7,57 
	223.7,61.5 218.9,61.5 218.9,66.2 "/>
<polygon class="st0" points="91,28.7 91,21.1 83.4,21.1 83.4,13.8 91,13.8 91,6.2 98.3,6.2 98.3,13.8 105.8,13.8 105.8,21.1 
	98.3,21.1 98.3,28.7 "/>
<polygon class="st4" points="171.7,46.1 171.7,39.7 165.3,39.7 165.3,33.6 171.7,33.6 171.7,27.2 177.8,27.2 177.8,33.6 184.2,33.6 
	184.2,39.7 177.8,39.7 177.8,46.1 "/>
<polygon class="st1" points="222.6,76.7 222.6,70.8 216.7,70.8 216.7,65.1 222.6,65.1 222.6,59.2 228.2,59.2 228.2,65.1 234.1,65.1 
	234.1,70.8 228.2,70.8 228.2,76.7 "/>
<polygon class="st3" points="12.3,147.1 12.3,137.7 3,137.7 3,128.7 12.3,128.7 12.3,119.3 21.3,119.3 21.3,128.7 30.7,128.7 
	30.7,137.7 21.3,137.7 21.3,147.1 "/>
<polygon class="st1" points="85.5,143.5 85.5,133.4 75.4,133.4 75.4,123.8 85.5,123.8 85.5,113.7 95.1,113.7 95.1,123.8 
	105.2,123.8 105.2,133.4 95.1,133.4 95.1,143.5 "/>
<polygon class="st3" points="134.7,84.3 134.7,74.6 124.9,74.6 124.9,65.2 134.7,65.2 134.7,55.5 144,55.5 144,65.2 153.7,65.2 
	153.7,74.6 144,74.6 144,84.3 "/>
<polygon class="st5" points="156.8,58.9 156.8,50.3 148.2,50.3 148.2,41.9 156.8,41.9 156.8,33.2 165.2,33.2 165.2,41.9 173.9,41.9 
	173.9,50.3 165.2,50.3 165.2,58.9 "/>
<polygon class="st1" points="205.7,23.3 205.7,16.2 198.5,16.2 198.5,9.3 205.7,9.3 205.7,2.2 212.5,2.2 212.5,9.3 219.7,9.3 
	219.7,16.2 212.5,16.2 212.5,23.3 "/>
<polygon class="st2" points="35.5,118.7 35.5,107.9 24.7,107.9 24.7,97.4 35.5,97.4 35.5,86.6 46,86.6 46,97.4 56.8,97.4 
	56.8,107.9 46,107.9 46,118.7 "/>
<polygon class="st3" points="162.5,134.6 162.5,123.6 151.5,123.6 151.5,113.1 162.5,113.1 162.5,102.1 173,102.1 173,113.1 
	184,113.1 184,123.6 173,123.6 173,134.6 "/>
<polygon class="st3" points="215.8,150.6 215.8,139 204.2,139 204.2,127.8 215.8,127.8 215.8,116.2 227,116.2 227,127.8 
	238.6,127.8 238.6,139 227,139 227,150.6 "/>
</svg>
