<?xml version="1.0" encoding="utf-8"?>
<!-- Generator: Adobe Illustrator 25.4.1, SVG Export Plug-In . SVG Version: 6.00 Build 0)  -->
<svg version="1.1" id="Layer_1" xmlns="http://www.w3.org/2000/svg" xmlns:xlink="http://www.w3.org/1999/xlink" x="0px" y="0px"
	 viewBox="0 0 288 123.9" style="enable-background:new 0 0 288 123.9;" xml:space="preserve">
<style type="text/css">
	.st0{fill-rule:evenodd;clip-rule:evenodd;fill:#2B65AD;}
	.st1{opacity:7.000000e-02;fill:#FFFFFF;enable-background:new    ;}
	.st2{opacity:5.000000e-02;fill:#FFFFFF;enable-background:new    ;}
	.st3{opacity:3.000000e-02;fill:#FFFFFF;enable-background:new    ;}
	.st4{opacity:4.000000e-02;fill:#FFFFFF;enable-background:new    ;}
</style>
<g>
	<path class="st0" d="M0.9,0.2c0,0,31.1,29.6,48.2,61c41.3,75.8,154.2,64.8,189,57.4c32.9-7,49.6-16.6,49.6-16.6L288,0L0.9,0.2z"/>
	<polygon class="st1" points="31.1,19.1 31.1,17.8 29.7,17.8 29.7,16.5 31.1,16.5 31.1,15.1 32.3,15.1 32.3,16.5 33.7,16.5 
		33.7,17.8 32.3,17.8 32.3,19.1 	"/>
	<polygon class="st1" points="38.9,18.7 38.9,16.8 37.1,16.8 37.1,15 38.9,15 38.9,13.1 40.7,13.1 40.7,15 42.6,15 42.6,16.8 
		40.7,16.8 40.7,18.7 	"/>
	<polygon class="st1" points="45.1,9.9 45.1,7.2 42.5,7.2 42.5,4.7 45.1,4.7 45.1,2.1 47.6,2.1 47.6,4.7 50.3,4.7 50.3,7.2 
		47.6,7.2 47.6,9.9 	"/>
	<polygon class="st2" points="64.2,30.4 64.2,27.5 61.4,27.5 61.4,24.8 64.2,24.8 64.2,21.9 67,21.9 67,24.8 69.9,24.8 69.9,27.5 
		67,27.5 67,30.4 	"/>
	<polygon class="st3" points="69,45.1 69,38.7 62.6,38.7 62.6,32.5 69,32.5 69,26.2 75.1,26.2 75.1,32.5 81.5,32.5 81.5,38.7 
		75.1,38.7 75.1,45.1 	"/>
	<path class="st1" d="M25.6,20.5v-3.4h-3.3v3.4H20c1.8,2.1,3.7,4.3,5.6,6.7v-3.4H29v-3.3C29,20.5,25.6,20.5,25.6,20.5z"/>
	<polygon class="st2" points="37.7,32.3 37.7,26.7 32,26.7 32,21.2 37.7,21.2 37.7,15.6 43.1,15.6 43.1,21.2 48.8,21.2 48.8,26.7 
		43.1,26.7 43.1,32.3 	"/>
	<polygon class="st1" points="48,18.3 48,16.7 46.4,16.7 46.4,15.1 48,15.1 48,13.5 49.6,13.5 49.6,15.1 51.2,15.1 51.2,16.7 
		49.6,16.7 49.6,18.3 	"/>
	<polygon class="st1" points="48.6,45.9 48.6,42.4 45.1,42.4 45.1,39.1 48.6,39.1 48.6,35.6 51.9,35.6 51.9,39.1 55.4,39.1 
		55.4,42.4 51.9,42.4 51.9,45.9 	"/>
	<polygon class="st2" points="73.4,25 73.4,21.8 70.2,21.8 70.2,18.8 73.4,18.8 73.4,15.6 76.4,15.6 76.4,18.8 79.6,18.8 79.6,21.8 
		76.4,21.8 76.4,25 	"/>
	<polygon class="st1" points="27.4,12.7 27.4,10.4 25.1,10.4 25.1,8.2 27.4,8.2 27.4,6 29.6,6 29.6,8.2 31.9,8.2 31.9,10.4 
		29.6,10.4 29.6,12.7 	"/>
	<path class="st4" d="M67.7,0.2v3.3h4.5V8h4.3V3.5H81V0.1L67.7,0.2z M2.9,2.1h0.4v0.4c0.9,0.9,2,2.1,3.4,3.4H7V2.1h3.8V0.2H0.9
		C0.9,0.2,1.7,0.9,2.9,2.1z M16.6,1.5h1.8v1.8h1.7V1.5h1.8V0.2h-5.3C16.6,0.2,16.6,1.5,16.6,1.5z M32.3,1.4h2.6V4h2.5V1.4H40V0.2
		h-7.7V1.4z M51.7,2.3h3V0.2h-3V2.3z"/>
	<polygon class="st1" points="14.4,10.4 14.4,8.8 12.9,8.8 12.9,7.3 14.4,7.3 14.4,5.7 16,5.7 16,7.3 17.5,7.3 17.5,8.8 16,8.8 
		16,10.4 	"/>
	<polygon class="st3" points="58.2,20 58.2,16.4 54.7,16.4 54.7,12.9 58.2,12.9 58.2,9.3 61.7,9.3 61.7,12.9 65.3,12.9 65.3,16.4 
		61.7,16.4 61.7,20 	"/>
</g>
</svg>
