<?xml version="1.0" encoding="utf-8"?>
<!-- Generator: Adobe Illustrator 25.4.1, SVG Export Plug-In . SVG Version: 6.00 Build 0)  -->
<svg version="1.1" id="Layer_1" xmlns="http://www.w3.org/2000/svg" xmlns:xlink="http://www.w3.org/1999/xlink" x="0px" y="0px"
	 viewBox="0 0 216.4 152" style="enable-background:new 0 0 216.4 152;" xml:space="preserve">
<style type="text/css">
	.st0{opacity:5.000000e-02;fill:#0C6CB7;enable-background:new    ;}
	.st1{opacity:8.000000e-02;fill:#0C6CB7;enable-background:new    ;}
	.st2{opacity:6.000000e-02;fill:#0C6CB7;enable-background:new    ;}
	.st3{opacity:3.000000e-02;fill:#0C6CB7;enable-background:new    ;}
	.st4{opacity:4.000000e-02;fill:#0C6CB7;enable-background:new    ;}
	.st5{opacity:2.000000e-02;fill:#0C6CB7;enable-background:new    ;}
</style>
<polygon class="st0" points="48.1,92.3 48.1,87.5 43.2,87.5 43.2,82.8 48.1,82.8 48.1,77.9 52.8,77.9 52.8,82.8 57.7,82.8 
	57.7,87.5 52.8,87.5 52.8,92.3 "/>
<polygon class="st1" points="31.9,129.8 31.9,126.1 28.3,126.1 28.3,122.5 31.9,122.5 31.9,118.8 35.6,118.8 35.6,122.5 39.2,122.5 
	39.2,126.1 35.6,126.1 35.6,129.8 "/>
<polygon class="st2" points="78.3,34 78.3,30.9 75.2,30.9 75.2,27.9 78.3,27.9 78.3,24.8 81.3,24.8 81.3,27.9 84.4,27.9 84.4,30.9 
	81.3,30.9 81.3,34 "/>
<polygon class="st3" points="84.5,59.1 84.5,54.3 79.8,54.3 79.8,49.8 84.5,49.8 84.5,45.1 89,45.1 89,49.8 93.8,49.8 93.8,54.3 
	89,54.3 89,59.1 "/>
<polygon class="st4" points="7.7,17.8 7.7,14.4 4.3,14.4 4.3,11.2 7.7,11.2 7.7,7.7 10.9,7.7 10.9,11.2 14.4,11.2 14.4,14.4 
	10.9,14.4 10.9,17.8 "/>
<polygon class="st1" points="98.1,115.4 98.1,111.1 93.8,111.1 93.8,107.1 98.1,107.1 98.1,102.9 102.1,102.9 102.1,107.1 
	106.3,107.1 106.3,111.1 102.1,111.1 102.1,115.4 "/>
<polygon class="st1" points="116.9,22.6 116.9,19.1 113.4,19.1 113.4,15.8 116.9,15.8 116.9,12.3 120.3,12.3 120.3,15.8 123.8,15.8 
	123.8,19.1 120.3,19.1 120.3,22.6 "/>
<polygon class="st2" points="15.8,63.9 15.8,58.8 10.6,58.8 10.6,53.9 15.8,53.9 15.8,48.7 20.6,48.7 20.6,53.9 25.8,53.9 
	25.8,58.8 20.6,58.8 20.6,63.9 "/>
<polygon class="st1" points="170,28.5 170,24.9 166.5,24.9 166.5,21.5 170,21.5 170,18 173.5,18 173.5,21.5 177,21.5 177,24.9 
	173.5,24.9 173.5,28.5 "/>
<polygon class="st0" points="54.7,59.2 54.7,52.2 47.5,52.2 47.5,45.3 54.7,45.3 54.7,38.3 61.4,38.3 61.4,45.3 68.6,45.3 
	68.6,52.2 61.4,52.2 61.4,59.2 "/>
<polygon class="st3" points="170.1,62.1 170.1,56.8 164.7,56.8 164.7,51.8 170.1,51.8 170.1,46.4 175.2,46.4 175.2,51.8 180.6,51.8 
	180.6,56.8 175.2,56.8 175.2,62.1 "/>
<polygon class="st4" points="37.4,35.2 37.4,30.7 33.1,30.7 33.1,26.4 37.4,26.4 37.4,22 41.8,22 41.8,26.4 46.2,26.4 46.2,30.7 
	41.8,30.7 41.8,35.2 "/>
<polygon class="st0" points="156.4,98.1 156.4,90.7 148.9,90.7 148.9,83.5 156.4,83.5 156.4,76 163.5,76 163.5,83.5 170.9,83.5 
	170.9,90.7 163.5,90.7 163.5,98.1 "/>
<polygon class="st1" points="196.4,57.2 196.4,54.1 193.2,54.1 193.2,51.1 196.4,51.1 196.4,47.9 199.4,47.9 199.4,51.1 202.6,51.1 
	202.6,54.1 199.4,54.1 199.4,57.2 "/>
<polygon class="st5" points="66.8,28.7 66.8,21.1 59.2,21.1 59.2,13.8 66.8,13.8 66.8,6.2 74.2,6.2 74.2,13.8 81.7,13.8 81.7,21.1 
	74.2,21.1 74.2,28.7 "/>
<polygon class="st2" points="143.5,42 143.5,37.8 139.2,37.8 139.2,33.8 143.5,33.8 143.5,29.5 147.5,29.5 147.5,33.8 151.8,33.8 
	151.8,37.8 147.5,37.8 147.5,42 "/>
<polygon class="st0" points="198.5,76.7 198.5,70.8 192.6,70.8 192.6,65.1 198.5,65.1 198.5,59.2 204.1,59.2 204.1,65.1 210,65.1 
	210,70.8 204.1,70.8 204.1,76.7 "/>
<polygon class="st0" points="61.3,143.5 61.3,133.4 51.2,133.4 51.2,123.8 61.3,123.8 61.3,113.7 70.9,113.7 70.9,123.8 81,123.8 
	81,133.4 70.9,133.4 70.9,143.5 "/>
<polygon class="st3" points="110.8,90.9 110.8,81.2 101.1,81.2 101.1,71.8 110.8,71.8 110.8,62.1 120.2,62.1 120.2,71.8 129.9,71.8 
	129.9,81.2 120.2,81.2 120.2,90.9 "/>
<polygon class="st5" points="123.5,51.7 123.5,44.5 116.3,44.5 116.3,37.5 123.5,37.5 123.5,30.2 130.5,30.2 130.5,37.5 137.8,37.5 
	137.8,44.5 130.5,44.5 130.5,51.7 "/>
<polygon class="st0" points="181.6,23.3 181.6,16.2 174.4,16.2 174.4,9.3 181.6,9.3 181.6,2.2 188.4,2.2 188.4,9.3 195.6,9.3 
	195.6,16.2 188.4,16.2 188.4,23.3 "/>
<polygon class="st4" points="7.2,102.2 7.2,95.1 0,95.1 0,88.1 7.2,88.1 7.2,80.9 14.1,80.9 14.1,88.1 21.3,88.1 21.3,95.1 
	14.1,95.1 14.1,102.2 "/>
<polygon class="st3" points="137.2,136.5 137.2,126.3 127.1,126.3 127.1,116.6 137.2,116.6 137.2,106.4 146.9,106.4 146.9,116.6 
	157.1,116.6 157.1,126.3 146.9,126.3 146.9,136.5 "/>
<polygon class="st3" points="191.7,150.6 191.7,139 180.1,139 180.1,127.8 191.7,127.8 191.7,116.2 202.9,116.2 202.9,127.8 
	214.5,127.8 214.5,139 202.9,139 202.9,150.6 "/>
</svg>
